M48
INCH,TZ
T1C0.0157
T2C0.0315
T3C0.0354
T4C0.0394
%
G90
G05
T1
X36534Y-31686
X37654Y-23979
X38693Y-24272
X38849Y-33253
X38878Y-24914
X39313Y-28194
X39457Y-27727
X40450Y-27903
X40611Y-24672
X41225Y-28690
X45006Y-35549
X46061Y-33318
X46353Y-34611
X47202Y-36259
X48653Y-35843
X49037Y-35657
X49132Y-39773
X50752Y-33318
X50758Y-32817
X51327Y-33632
X51615Y-33179
X54210Y-33250
X54561Y-32633
T2
X33000Y-23531
X33000Y-25500
X33000Y-28031
X33000Y-30000
X33000Y-32500
X33000Y-34469
X35000Y-23000
X35000Y-26000
X35000Y-27400
X35000Y-30400
X35000Y-32000
X35000Y-35000
X35000Y-37516
X35000Y-38500
X36000Y-23000
X36000Y-26000
X36000Y-27400
X36000Y-30400
X36000Y-32000
X36000Y-35000
X37000Y-23000
X37000Y-26000
X37000Y-27400
X37000Y-30400
X37000Y-32000
X37000Y-35000
X38000Y-23000
X38000Y-26000
X38000Y-27400
X38000Y-30400
X38000Y-32000
X38000Y-35000
X39000Y-23000
X39000Y-26000
X39000Y-27400
X39000Y-30400
X39000Y-32000
X39000Y-35000
X40000Y-23000
X40000Y-26000
X40000Y-27400
X40000Y-30400
X40000Y-32000
X40000Y-35000
X41000Y-23000
X41000Y-26000
X41000Y-27400
X41000Y-30400
X41000Y-32000
X41000Y-35000
X42000Y-27400
X42000Y-30400
X42000Y-32000
X42000Y-35000
X46704Y-35531
X46704Y-37500
X48500Y-35000
X48500Y-38000
X49500Y-35000
X49500Y-38000
X50500Y-35000
X50500Y-38000
X51500Y-35000
X51500Y-38000
X52500Y-35000
X52500Y-38000
X53500Y-35000
X53500Y-38000
X54500Y-35000
X54500Y-38000
X55500Y-35000
X55500Y-38000
X56500Y-35000
X56500Y-38000
X57500Y-35000
X57500Y-38000
X59531Y-35000
X61500Y-35000
X63500Y-34500
X63500Y-37500
X66500Y-27156
X66500Y-28750
X66500Y-30344
X66500Y-31939
X66500Y-33439
X66500Y-35033
X66500Y-36628
X66500Y-38222
X69500Y-27156
X69500Y-28750
X69500Y-30344
X69500Y-31939
X69500Y-33439
X69500Y-35033
X69500Y-36628
X69500Y-38222
T3
X63000Y-39500
X64000Y-39500
T4
X28000Y-24600
X28000Y-25600
X28000Y-26600
X28000Y-27600
X28000Y-28600
X28000Y-29600
X28000Y-30600
X28000Y-31600
X28000Y-32600
X28000Y-33600
X28000Y-34600
X28000Y-35600
X28000Y-36600
X28000Y-37600
X28000Y-38600
X30000Y-24600
X30000Y-25600
X30000Y-26600
X30000Y-27600
X30000Y-28600
X30000Y-29600
X30000Y-30600
X30000Y-31600
X30000Y-32600
X30000Y-33600
X30000Y-34600
X30000Y-35600
X30000Y-36600
X30000Y-37600
X30000Y-38600
X34500Y-41000
X35500Y-41000
X41496Y-41000
X42496Y-41000
X43496Y-41000
X44250Y-35250
X44250Y-36250
X44250Y-37250
X44496Y-41000
X45496Y-22000
X45496Y-41000
X46496Y-22000
X46496Y-41000
X47496Y-22000
X47496Y-26000
X47496Y-32000
X47496Y-41000
X48496Y-22000
X48496Y-26000
X48496Y-32000
X48496Y-41000
X49496Y-22000
X49496Y-26000
X49496Y-32000
X49496Y-41000
X50496Y-22000
X50496Y-26000
X50496Y-32000
X50496Y-41000
X51496Y-22000
X51496Y-26000
X51496Y-32000
X51496Y-41000
X52496Y-22000
X52496Y-26000
X52496Y-32000
X52496Y-41000
X53496Y-22000
X53496Y-26000
X53496Y-32000
X53496Y-41000
X54496Y-22000
X54496Y-26000
X54496Y-32000
X54496Y-41000
X55496Y-22000
X55496Y-26000
X55496Y-32000
X55496Y-41000
X56496Y-22000
X56496Y-26000
X56496Y-32000
X56496Y-41000
X57496Y-22000
X57496Y-26000
X57496Y-32000
X57496Y-41000
X58496Y-22000
X58496Y-26000
X58496Y-32000
X58496Y-41000
X59496Y-22000
X59496Y-26000
X59496Y-32000
X59496Y-41000
X60496Y-22000
X60496Y-26000
X60496Y-32000
X60496Y-41000
M30
