G04 #@! TF.GenerationSoftware,KiCad,Pcbnew,7.0.10-7.0.10~ubuntu22.04.1*
G04 #@! TF.CreationDate,2024-08-31T13:48:36+10:00*
G04 #@! TF.ProjectId,Cat_ROM_Cartridge,4361745f-524f-44d5-9f43-617274726964,rev?*
G04 #@! TF.SameCoordinates,Original*
G04 #@! TF.FileFunction,Legend,Top*
G04 #@! TF.FilePolarity,Positive*
%FSLAX46Y46*%
G04 Gerber Fmt 4.6, Leading zero omitted, Abs format (unit mm)*
G04 Created by KiCad (PCBNEW 7.0.10-7.0.10~ubuntu22.04.1) date 2024-08-31 13:48:36*
%MOMM*%
%LPD*%
G01*
G04 APERTURE LIST*
%ADD10C,0.150000*%
%ADD11C,0.100000*%
%ADD12C,0.120000*%
G04 APERTURE END LIST*
D10*
X113534819Y-101898220D02*
X112534819Y-101898220D01*
X112534819Y-101231554D02*
X112534819Y-101041078D01*
X112534819Y-101041078D02*
X112582438Y-100945840D01*
X112582438Y-100945840D02*
X112677676Y-100850602D01*
X112677676Y-100850602D02*
X112868152Y-100802983D01*
X112868152Y-100802983D02*
X113201485Y-100802983D01*
X113201485Y-100802983D02*
X113391961Y-100850602D01*
X113391961Y-100850602D02*
X113487200Y-100945840D01*
X113487200Y-100945840D02*
X113534819Y-101041078D01*
X113534819Y-101041078D02*
X113534819Y-101231554D01*
X113534819Y-101231554D02*
X113487200Y-101326792D01*
X113487200Y-101326792D02*
X113391961Y-101422030D01*
X113391961Y-101422030D02*
X113201485Y-101469649D01*
X113201485Y-101469649D02*
X112868152Y-101469649D01*
X112868152Y-101469649D02*
X112677676Y-101422030D01*
X112677676Y-101422030D02*
X112582438Y-101326792D01*
X112582438Y-101326792D02*
X112534819Y-101231554D01*
X112868152Y-99945840D02*
X113534819Y-99945840D01*
X112487200Y-100183935D02*
X113201485Y-100422030D01*
X113201485Y-100422030D02*
X113201485Y-99802983D01*
X112257200Y-102036316D02*
X112257200Y-99760126D01*
X110144160Y-89135057D02*
X110191779Y-89087438D01*
X110191779Y-89087438D02*
X110287017Y-89039819D01*
X110287017Y-89039819D02*
X110525112Y-89039819D01*
X110525112Y-89039819D02*
X110620350Y-89087438D01*
X110620350Y-89087438D02*
X110667969Y-89135057D01*
X110667969Y-89135057D02*
X110715588Y-89230295D01*
X110715588Y-89230295D02*
X110715588Y-89325533D01*
X110715588Y-89325533D02*
X110667969Y-89468390D01*
X110667969Y-89468390D02*
X110096541Y-90039819D01*
X110096541Y-90039819D02*
X110715588Y-90039819D01*
X125368207Y-70259580D02*
X125320588Y-70307200D01*
X125320588Y-70307200D02*
X125177731Y-70354819D01*
X125177731Y-70354819D02*
X125082493Y-70354819D01*
X125082493Y-70354819D02*
X124939636Y-70307200D01*
X124939636Y-70307200D02*
X124844398Y-70211961D01*
X124844398Y-70211961D02*
X124796779Y-70116723D01*
X124796779Y-70116723D02*
X124749160Y-69926247D01*
X124749160Y-69926247D02*
X124749160Y-69783390D01*
X124749160Y-69783390D02*
X124796779Y-69592914D01*
X124796779Y-69592914D02*
X124844398Y-69497676D01*
X124844398Y-69497676D02*
X124939636Y-69402438D01*
X124939636Y-69402438D02*
X125082493Y-69354819D01*
X125082493Y-69354819D02*
X125177731Y-69354819D01*
X125177731Y-69354819D02*
X125320588Y-69402438D01*
X125320588Y-69402438D02*
X125368207Y-69450057D01*
X126225350Y-70354819D02*
X126225350Y-69831009D01*
X126225350Y-69831009D02*
X126177731Y-69735771D01*
X126177731Y-69735771D02*
X126082493Y-69688152D01*
X126082493Y-69688152D02*
X125892017Y-69688152D01*
X125892017Y-69688152D02*
X125796779Y-69735771D01*
X126225350Y-70307200D02*
X126130112Y-70354819D01*
X126130112Y-70354819D02*
X125892017Y-70354819D01*
X125892017Y-70354819D02*
X125796779Y-70307200D01*
X125796779Y-70307200D02*
X125749160Y-70211961D01*
X125749160Y-70211961D02*
X125749160Y-70116723D01*
X125749160Y-70116723D02*
X125796779Y-70021485D01*
X125796779Y-70021485D02*
X125892017Y-69973866D01*
X125892017Y-69973866D02*
X126130112Y-69973866D01*
X126130112Y-69973866D02*
X126225350Y-69926247D01*
X126558684Y-69688152D02*
X126939636Y-69688152D01*
X126701541Y-69354819D02*
X126701541Y-70211961D01*
X126701541Y-70211961D02*
X126749160Y-70307200D01*
X126749160Y-70307200D02*
X126844398Y-70354819D01*
X126844398Y-70354819D02*
X126939636Y-70354819D01*
X128749160Y-69307200D02*
X127892018Y-70592914D01*
X130320589Y-70354819D02*
X129844399Y-70354819D01*
X129844399Y-70354819D02*
X129844399Y-69354819D01*
X131082494Y-70354819D02*
X131082494Y-69831009D01*
X131082494Y-69831009D02*
X131034875Y-69735771D01*
X131034875Y-69735771D02*
X130939637Y-69688152D01*
X130939637Y-69688152D02*
X130749161Y-69688152D01*
X130749161Y-69688152D02*
X130653923Y-69735771D01*
X131082494Y-70307200D02*
X130987256Y-70354819D01*
X130987256Y-70354819D02*
X130749161Y-70354819D01*
X130749161Y-70354819D02*
X130653923Y-70307200D01*
X130653923Y-70307200D02*
X130606304Y-70211961D01*
X130606304Y-70211961D02*
X130606304Y-70116723D01*
X130606304Y-70116723D02*
X130653923Y-70021485D01*
X130653923Y-70021485D02*
X130749161Y-69973866D01*
X130749161Y-69973866D02*
X130987256Y-69973866D01*
X130987256Y-69973866D02*
X131082494Y-69926247D01*
X131511066Y-70307200D02*
X131606304Y-70354819D01*
X131606304Y-70354819D02*
X131796780Y-70354819D01*
X131796780Y-70354819D02*
X131892018Y-70307200D01*
X131892018Y-70307200D02*
X131939637Y-70211961D01*
X131939637Y-70211961D02*
X131939637Y-70164342D01*
X131939637Y-70164342D02*
X131892018Y-70069104D01*
X131892018Y-70069104D02*
X131796780Y-70021485D01*
X131796780Y-70021485D02*
X131653923Y-70021485D01*
X131653923Y-70021485D02*
X131558685Y-69973866D01*
X131558685Y-69973866D02*
X131511066Y-69878628D01*
X131511066Y-69878628D02*
X131511066Y-69831009D01*
X131511066Y-69831009D02*
X131558685Y-69735771D01*
X131558685Y-69735771D02*
X131653923Y-69688152D01*
X131653923Y-69688152D02*
X131796780Y-69688152D01*
X131796780Y-69688152D02*
X131892018Y-69735771D01*
X132749161Y-70307200D02*
X132653923Y-70354819D01*
X132653923Y-70354819D02*
X132463447Y-70354819D01*
X132463447Y-70354819D02*
X132368209Y-70307200D01*
X132368209Y-70307200D02*
X132320590Y-70211961D01*
X132320590Y-70211961D02*
X132320590Y-69831009D01*
X132320590Y-69831009D02*
X132368209Y-69735771D01*
X132368209Y-69735771D02*
X132463447Y-69688152D01*
X132463447Y-69688152D02*
X132653923Y-69688152D01*
X132653923Y-69688152D02*
X132749161Y-69735771D01*
X132749161Y-69735771D02*
X132796780Y-69831009D01*
X132796780Y-69831009D02*
X132796780Y-69926247D01*
X132796780Y-69926247D02*
X132320590Y-70021485D01*
X133225352Y-70354819D02*
X133225352Y-69688152D01*
X133225352Y-69878628D02*
X133272971Y-69783390D01*
X133272971Y-69783390D02*
X133320590Y-69735771D01*
X133320590Y-69735771D02*
X133415828Y-69688152D01*
X133415828Y-69688152D02*
X133511066Y-69688152D01*
X134511067Y-69354819D02*
X135130114Y-69354819D01*
X135130114Y-69354819D02*
X134796781Y-69735771D01*
X134796781Y-69735771D02*
X134939638Y-69735771D01*
X134939638Y-69735771D02*
X135034876Y-69783390D01*
X135034876Y-69783390D02*
X135082495Y-69831009D01*
X135082495Y-69831009D02*
X135130114Y-69926247D01*
X135130114Y-69926247D02*
X135130114Y-70164342D01*
X135130114Y-70164342D02*
X135082495Y-70259580D01*
X135082495Y-70259580D02*
X135034876Y-70307200D01*
X135034876Y-70307200D02*
X134939638Y-70354819D01*
X134939638Y-70354819D02*
X134653924Y-70354819D01*
X134653924Y-70354819D02*
X134558686Y-70307200D01*
X134558686Y-70307200D02*
X134511067Y-70259580D01*
X135749162Y-69354819D02*
X135844400Y-69354819D01*
X135844400Y-69354819D02*
X135939638Y-69402438D01*
X135939638Y-69402438D02*
X135987257Y-69450057D01*
X135987257Y-69450057D02*
X136034876Y-69545295D01*
X136034876Y-69545295D02*
X136082495Y-69735771D01*
X136082495Y-69735771D02*
X136082495Y-69973866D01*
X136082495Y-69973866D02*
X136034876Y-70164342D01*
X136034876Y-70164342D02*
X135987257Y-70259580D01*
X135987257Y-70259580D02*
X135939638Y-70307200D01*
X135939638Y-70307200D02*
X135844400Y-70354819D01*
X135844400Y-70354819D02*
X135749162Y-70354819D01*
X135749162Y-70354819D02*
X135653924Y-70307200D01*
X135653924Y-70307200D02*
X135606305Y-70259580D01*
X135606305Y-70259580D02*
X135558686Y-70164342D01*
X135558686Y-70164342D02*
X135511067Y-69973866D01*
X135511067Y-69973866D02*
X135511067Y-69735771D01*
X135511067Y-69735771D02*
X135558686Y-69545295D01*
X135558686Y-69545295D02*
X135606305Y-69450057D01*
X135606305Y-69450057D02*
X135653924Y-69402438D01*
X135653924Y-69402438D02*
X135749162Y-69354819D01*
X136701543Y-69354819D02*
X136796781Y-69354819D01*
X136796781Y-69354819D02*
X136892019Y-69402438D01*
X136892019Y-69402438D02*
X136939638Y-69450057D01*
X136939638Y-69450057D02*
X136987257Y-69545295D01*
X136987257Y-69545295D02*
X137034876Y-69735771D01*
X137034876Y-69735771D02*
X137034876Y-69973866D01*
X137034876Y-69973866D02*
X136987257Y-70164342D01*
X136987257Y-70164342D02*
X136939638Y-70259580D01*
X136939638Y-70259580D02*
X136892019Y-70307200D01*
X136892019Y-70307200D02*
X136796781Y-70354819D01*
X136796781Y-70354819D02*
X136701543Y-70354819D01*
X136701543Y-70354819D02*
X136606305Y-70307200D01*
X136606305Y-70307200D02*
X136558686Y-70259580D01*
X136558686Y-70259580D02*
X136511067Y-70164342D01*
X136511067Y-70164342D02*
X136463448Y-69973866D01*
X136463448Y-69973866D02*
X136463448Y-69735771D01*
X136463448Y-69735771D02*
X136511067Y-69545295D01*
X136511067Y-69545295D02*
X136558686Y-69450057D01*
X136558686Y-69450057D02*
X136606305Y-69402438D01*
X136606305Y-69402438D02*
X136701543Y-69354819D01*
X137653924Y-69354819D02*
X137749162Y-69354819D01*
X137749162Y-69354819D02*
X137844400Y-69402438D01*
X137844400Y-69402438D02*
X137892019Y-69450057D01*
X137892019Y-69450057D02*
X137939638Y-69545295D01*
X137939638Y-69545295D02*
X137987257Y-69735771D01*
X137987257Y-69735771D02*
X137987257Y-69973866D01*
X137987257Y-69973866D02*
X137939638Y-70164342D01*
X137939638Y-70164342D02*
X137892019Y-70259580D01*
X137892019Y-70259580D02*
X137844400Y-70307200D01*
X137844400Y-70307200D02*
X137749162Y-70354819D01*
X137749162Y-70354819D02*
X137653924Y-70354819D01*
X137653924Y-70354819D02*
X137558686Y-70307200D01*
X137558686Y-70307200D02*
X137511067Y-70259580D01*
X137511067Y-70259580D02*
X137463448Y-70164342D01*
X137463448Y-70164342D02*
X137415829Y-69973866D01*
X137415829Y-69973866D02*
X137415829Y-69735771D01*
X137415829Y-69735771D02*
X137463448Y-69545295D01*
X137463448Y-69545295D02*
X137511067Y-69450057D01*
X137511067Y-69450057D02*
X137558686Y-69402438D01*
X137558686Y-69402438D02*
X137653924Y-69354819D01*
X139749162Y-70354819D02*
X139415829Y-69878628D01*
X139177734Y-70354819D02*
X139177734Y-69354819D01*
X139177734Y-69354819D02*
X139558686Y-69354819D01*
X139558686Y-69354819D02*
X139653924Y-69402438D01*
X139653924Y-69402438D02*
X139701543Y-69450057D01*
X139701543Y-69450057D02*
X139749162Y-69545295D01*
X139749162Y-69545295D02*
X139749162Y-69688152D01*
X139749162Y-69688152D02*
X139701543Y-69783390D01*
X139701543Y-69783390D02*
X139653924Y-69831009D01*
X139653924Y-69831009D02*
X139558686Y-69878628D01*
X139558686Y-69878628D02*
X139177734Y-69878628D01*
X140368210Y-69354819D02*
X140558686Y-69354819D01*
X140558686Y-69354819D02*
X140653924Y-69402438D01*
X140653924Y-69402438D02*
X140749162Y-69497676D01*
X140749162Y-69497676D02*
X140796781Y-69688152D01*
X140796781Y-69688152D02*
X140796781Y-70021485D01*
X140796781Y-70021485D02*
X140749162Y-70211961D01*
X140749162Y-70211961D02*
X140653924Y-70307200D01*
X140653924Y-70307200D02*
X140558686Y-70354819D01*
X140558686Y-70354819D02*
X140368210Y-70354819D01*
X140368210Y-70354819D02*
X140272972Y-70307200D01*
X140272972Y-70307200D02*
X140177734Y-70211961D01*
X140177734Y-70211961D02*
X140130115Y-70021485D01*
X140130115Y-70021485D02*
X140130115Y-69688152D01*
X140130115Y-69688152D02*
X140177734Y-69497676D01*
X140177734Y-69497676D02*
X140272972Y-69402438D01*
X140272972Y-69402438D02*
X140368210Y-69354819D01*
X141225353Y-70354819D02*
X141225353Y-69354819D01*
X141225353Y-69354819D02*
X141558686Y-70069104D01*
X141558686Y-70069104D02*
X141892019Y-69354819D01*
X141892019Y-69354819D02*
X141892019Y-70354819D01*
X143701543Y-70259580D02*
X143653924Y-70307200D01*
X143653924Y-70307200D02*
X143511067Y-70354819D01*
X143511067Y-70354819D02*
X143415829Y-70354819D01*
X143415829Y-70354819D02*
X143272972Y-70307200D01*
X143272972Y-70307200D02*
X143177734Y-70211961D01*
X143177734Y-70211961D02*
X143130115Y-70116723D01*
X143130115Y-70116723D02*
X143082496Y-69926247D01*
X143082496Y-69926247D02*
X143082496Y-69783390D01*
X143082496Y-69783390D02*
X143130115Y-69592914D01*
X143130115Y-69592914D02*
X143177734Y-69497676D01*
X143177734Y-69497676D02*
X143272972Y-69402438D01*
X143272972Y-69402438D02*
X143415829Y-69354819D01*
X143415829Y-69354819D02*
X143511067Y-69354819D01*
X143511067Y-69354819D02*
X143653924Y-69402438D01*
X143653924Y-69402438D02*
X143701543Y-69450057D01*
X144558686Y-70354819D02*
X144558686Y-69831009D01*
X144558686Y-69831009D02*
X144511067Y-69735771D01*
X144511067Y-69735771D02*
X144415829Y-69688152D01*
X144415829Y-69688152D02*
X144225353Y-69688152D01*
X144225353Y-69688152D02*
X144130115Y-69735771D01*
X144558686Y-70307200D02*
X144463448Y-70354819D01*
X144463448Y-70354819D02*
X144225353Y-70354819D01*
X144225353Y-70354819D02*
X144130115Y-70307200D01*
X144130115Y-70307200D02*
X144082496Y-70211961D01*
X144082496Y-70211961D02*
X144082496Y-70116723D01*
X144082496Y-70116723D02*
X144130115Y-70021485D01*
X144130115Y-70021485D02*
X144225353Y-69973866D01*
X144225353Y-69973866D02*
X144463448Y-69973866D01*
X144463448Y-69973866D02*
X144558686Y-69926247D01*
X145034877Y-70354819D02*
X145034877Y-69688152D01*
X145034877Y-69878628D02*
X145082496Y-69783390D01*
X145082496Y-69783390D02*
X145130115Y-69735771D01*
X145130115Y-69735771D02*
X145225353Y-69688152D01*
X145225353Y-69688152D02*
X145320591Y-69688152D01*
X145511068Y-69688152D02*
X145892020Y-69688152D01*
X145653925Y-69354819D02*
X145653925Y-70211961D01*
X145653925Y-70211961D02*
X145701544Y-70307200D01*
X145701544Y-70307200D02*
X145796782Y-70354819D01*
X145796782Y-70354819D02*
X145892020Y-70354819D01*
X146225354Y-70354819D02*
X146225354Y-69688152D01*
X146225354Y-69878628D02*
X146272973Y-69783390D01*
X146272973Y-69783390D02*
X146320592Y-69735771D01*
X146320592Y-69735771D02*
X146415830Y-69688152D01*
X146415830Y-69688152D02*
X146511068Y-69688152D01*
X146844402Y-70354819D02*
X146844402Y-69688152D01*
X146844402Y-69354819D02*
X146796783Y-69402438D01*
X146796783Y-69402438D02*
X146844402Y-69450057D01*
X146844402Y-69450057D02*
X146892021Y-69402438D01*
X146892021Y-69402438D02*
X146844402Y-69354819D01*
X146844402Y-69354819D02*
X146844402Y-69450057D01*
X147749163Y-70354819D02*
X147749163Y-69354819D01*
X147749163Y-70307200D02*
X147653925Y-70354819D01*
X147653925Y-70354819D02*
X147463449Y-70354819D01*
X147463449Y-70354819D02*
X147368211Y-70307200D01*
X147368211Y-70307200D02*
X147320592Y-70259580D01*
X147320592Y-70259580D02*
X147272973Y-70164342D01*
X147272973Y-70164342D02*
X147272973Y-69878628D01*
X147272973Y-69878628D02*
X147320592Y-69783390D01*
X147320592Y-69783390D02*
X147368211Y-69735771D01*
X147368211Y-69735771D02*
X147463449Y-69688152D01*
X147463449Y-69688152D02*
X147653925Y-69688152D01*
X147653925Y-69688152D02*
X147749163Y-69735771D01*
X148653925Y-69688152D02*
X148653925Y-70497676D01*
X148653925Y-70497676D02*
X148606306Y-70592914D01*
X148606306Y-70592914D02*
X148558687Y-70640533D01*
X148558687Y-70640533D02*
X148463449Y-70688152D01*
X148463449Y-70688152D02*
X148320592Y-70688152D01*
X148320592Y-70688152D02*
X148225354Y-70640533D01*
X148653925Y-70307200D02*
X148558687Y-70354819D01*
X148558687Y-70354819D02*
X148368211Y-70354819D01*
X148368211Y-70354819D02*
X148272973Y-70307200D01*
X148272973Y-70307200D02*
X148225354Y-70259580D01*
X148225354Y-70259580D02*
X148177735Y-70164342D01*
X148177735Y-70164342D02*
X148177735Y-69878628D01*
X148177735Y-69878628D02*
X148225354Y-69783390D01*
X148225354Y-69783390D02*
X148272973Y-69735771D01*
X148272973Y-69735771D02*
X148368211Y-69688152D01*
X148368211Y-69688152D02*
X148558687Y-69688152D01*
X148558687Y-69688152D02*
X148653925Y-69735771D01*
X149511068Y-70307200D02*
X149415830Y-70354819D01*
X149415830Y-70354819D02*
X149225354Y-70354819D01*
X149225354Y-70354819D02*
X149130116Y-70307200D01*
X149130116Y-70307200D02*
X149082497Y-70211961D01*
X149082497Y-70211961D02*
X149082497Y-69831009D01*
X149082497Y-69831009D02*
X149130116Y-69735771D01*
X149130116Y-69735771D02*
X149225354Y-69688152D01*
X149225354Y-69688152D02*
X149415830Y-69688152D01*
X149415830Y-69688152D02*
X149511068Y-69735771D01*
X149511068Y-69735771D02*
X149558687Y-69831009D01*
X149558687Y-69831009D02*
X149558687Y-69926247D01*
X149558687Y-69926247D02*
X149082497Y-70021485D01*
X153174819Y-101422030D02*
X153174819Y-101898220D01*
X153174819Y-101898220D02*
X153651009Y-101945839D01*
X153651009Y-101945839D02*
X153603390Y-101898220D01*
X153603390Y-101898220D02*
X153555771Y-101802982D01*
X153555771Y-101802982D02*
X153555771Y-101564887D01*
X153555771Y-101564887D02*
X153603390Y-101469649D01*
X153603390Y-101469649D02*
X153651009Y-101422030D01*
X153651009Y-101422030D02*
X153746247Y-101374411D01*
X153746247Y-101374411D02*
X153984342Y-101374411D01*
X153984342Y-101374411D02*
X154079580Y-101422030D01*
X154079580Y-101422030D02*
X154127200Y-101469649D01*
X154127200Y-101469649D02*
X154174819Y-101564887D01*
X154174819Y-101564887D02*
X154174819Y-101802982D01*
X154174819Y-101802982D02*
X154127200Y-101898220D01*
X154127200Y-101898220D02*
X154079580Y-101945839D01*
X153174819Y-101088696D02*
X154174819Y-100755363D01*
X154174819Y-100755363D02*
X153174819Y-100422030D01*
X123409104Y-59502731D02*
X123409104Y-59026541D01*
X123694819Y-59597969D02*
X122694819Y-59264636D01*
X122694819Y-59264636D02*
X123694819Y-58931303D01*
X122694819Y-58693207D02*
X122694819Y-58074160D01*
X122694819Y-58074160D02*
X123075771Y-58407493D01*
X123075771Y-58407493D02*
X123075771Y-58264636D01*
X123075771Y-58264636D02*
X123123390Y-58169398D01*
X123123390Y-58169398D02*
X123171009Y-58121779D01*
X123171009Y-58121779D02*
X123266247Y-58074160D01*
X123266247Y-58074160D02*
X123504342Y-58074160D01*
X123504342Y-58074160D02*
X123599580Y-58121779D01*
X123599580Y-58121779D02*
X123647200Y-58169398D01*
X123647200Y-58169398D02*
X123694819Y-58264636D01*
X123694819Y-58264636D02*
X123694819Y-58550350D01*
X123694819Y-58550350D02*
X123647200Y-58645588D01*
X123647200Y-58645588D02*
X123599580Y-58693207D01*
X115789104Y-59502731D02*
X115789104Y-59026541D01*
X116074819Y-59597969D02*
X115074819Y-59264636D01*
X115074819Y-59264636D02*
X116074819Y-58931303D01*
X115074819Y-58407493D02*
X115074819Y-58312255D01*
X115074819Y-58312255D02*
X115122438Y-58217017D01*
X115122438Y-58217017D02*
X115170057Y-58169398D01*
X115170057Y-58169398D02*
X115265295Y-58121779D01*
X115265295Y-58121779D02*
X115455771Y-58074160D01*
X115455771Y-58074160D02*
X115693866Y-58074160D01*
X115693866Y-58074160D02*
X115884342Y-58121779D01*
X115884342Y-58121779D02*
X115979580Y-58169398D01*
X115979580Y-58169398D02*
X116027200Y-58217017D01*
X116027200Y-58217017D02*
X116074819Y-58312255D01*
X116074819Y-58312255D02*
X116074819Y-58407493D01*
X116074819Y-58407493D02*
X116027200Y-58502731D01*
X116027200Y-58502731D02*
X115979580Y-58550350D01*
X115979580Y-58550350D02*
X115884342Y-58597969D01*
X115884342Y-58597969D02*
X115693866Y-58645588D01*
X115693866Y-58645588D02*
X115455771Y-58645588D01*
X115455771Y-58645588D02*
X115265295Y-58597969D01*
X115265295Y-58597969D02*
X115170057Y-58550350D01*
X115170057Y-58550350D02*
X115122438Y-58502731D01*
X115122438Y-58502731D02*
X115074819Y-58407493D01*
X141189104Y-60455112D02*
X141189104Y-59978922D01*
X141474819Y-60550350D02*
X140474819Y-60217017D01*
X140474819Y-60217017D02*
X141474819Y-59883684D01*
X141474819Y-59026541D02*
X141474819Y-59597969D01*
X141474819Y-59312255D02*
X140474819Y-59312255D01*
X140474819Y-59312255D02*
X140617676Y-59407493D01*
X140617676Y-59407493D02*
X140712914Y-59502731D01*
X140712914Y-59502731D02*
X140760533Y-59597969D01*
X140474819Y-58407493D02*
X140474819Y-58312255D01*
X140474819Y-58312255D02*
X140522438Y-58217017D01*
X140522438Y-58217017D02*
X140570057Y-58169398D01*
X140570057Y-58169398D02*
X140665295Y-58121779D01*
X140665295Y-58121779D02*
X140855771Y-58074160D01*
X140855771Y-58074160D02*
X141093866Y-58074160D01*
X141093866Y-58074160D02*
X141284342Y-58121779D01*
X141284342Y-58121779D02*
X141379580Y-58169398D01*
X141379580Y-58169398D02*
X141427200Y-58217017D01*
X141427200Y-58217017D02*
X141474819Y-58312255D01*
X141474819Y-58312255D02*
X141474819Y-58407493D01*
X141474819Y-58407493D02*
X141427200Y-58502731D01*
X141427200Y-58502731D02*
X141379580Y-58550350D01*
X141379580Y-58550350D02*
X141284342Y-58597969D01*
X141284342Y-58597969D02*
X141093866Y-58645588D01*
X141093866Y-58645588D02*
X140855771Y-58645588D01*
X140855771Y-58645588D02*
X140665295Y-58597969D01*
X140665295Y-58597969D02*
X140570057Y-58550350D01*
X140570057Y-58550350D02*
X140522438Y-58502731D01*
X140522438Y-58502731D02*
X140474819Y-58407493D01*
X136394819Y-101898220D02*
X135394819Y-101898220D01*
X135394819Y-101898220D02*
X135394819Y-101660125D01*
X135394819Y-101660125D02*
X135442438Y-101517268D01*
X135442438Y-101517268D02*
X135537676Y-101422030D01*
X135537676Y-101422030D02*
X135632914Y-101374411D01*
X135632914Y-101374411D02*
X135823390Y-101326792D01*
X135823390Y-101326792D02*
X135966247Y-101326792D01*
X135966247Y-101326792D02*
X136156723Y-101374411D01*
X136156723Y-101374411D02*
X136251961Y-101422030D01*
X136251961Y-101422030D02*
X136347200Y-101517268D01*
X136347200Y-101517268D02*
X136394819Y-101660125D01*
X136394819Y-101660125D02*
X136394819Y-101898220D01*
X135394819Y-100993458D02*
X135394819Y-100326792D01*
X135394819Y-100326792D02*
X136394819Y-100755363D01*
X137934819Y-101993458D02*
X138934819Y-101755363D01*
X138934819Y-101755363D02*
X138220533Y-101564887D01*
X138220533Y-101564887D02*
X138934819Y-101374411D01*
X138934819Y-101374411D02*
X137934819Y-101136316D01*
X138934819Y-100183935D02*
X138458628Y-100517268D01*
X138934819Y-100755363D02*
X137934819Y-100755363D01*
X137934819Y-100755363D02*
X137934819Y-100374411D01*
X137934819Y-100374411D02*
X137982438Y-100279173D01*
X137982438Y-100279173D02*
X138030057Y-100231554D01*
X138030057Y-100231554D02*
X138125295Y-100183935D01*
X138125295Y-100183935D02*
X138268152Y-100183935D01*
X138268152Y-100183935D02*
X138363390Y-100231554D01*
X138363390Y-100231554D02*
X138411009Y-100279173D01*
X138411009Y-100279173D02*
X138458628Y-100374411D01*
X138458628Y-100374411D02*
X138458628Y-100755363D01*
X137657200Y-102036316D02*
X137657200Y-100093459D01*
X131029104Y-59502731D02*
X131029104Y-59026541D01*
X131314819Y-59597969D02*
X130314819Y-59264636D01*
X130314819Y-59264636D02*
X131314819Y-58931303D01*
X130314819Y-58169398D02*
X130314819Y-58359874D01*
X130314819Y-58359874D02*
X130362438Y-58455112D01*
X130362438Y-58455112D02*
X130410057Y-58502731D01*
X130410057Y-58502731D02*
X130552914Y-58597969D01*
X130552914Y-58597969D02*
X130743390Y-58645588D01*
X130743390Y-58645588D02*
X131124342Y-58645588D01*
X131124342Y-58645588D02*
X131219580Y-58597969D01*
X131219580Y-58597969D02*
X131267200Y-58550350D01*
X131267200Y-58550350D02*
X131314819Y-58455112D01*
X131314819Y-58455112D02*
X131314819Y-58264636D01*
X131314819Y-58264636D02*
X131267200Y-58169398D01*
X131267200Y-58169398D02*
X131219580Y-58121779D01*
X131219580Y-58121779D02*
X131124342Y-58074160D01*
X131124342Y-58074160D02*
X130886247Y-58074160D01*
X130886247Y-58074160D02*
X130791009Y-58121779D01*
X130791009Y-58121779D02*
X130743390Y-58169398D01*
X130743390Y-58169398D02*
X130695771Y-58264636D01*
X130695771Y-58264636D02*
X130695771Y-58455112D01*
X130695771Y-58455112D02*
X130743390Y-58550350D01*
X130743390Y-58550350D02*
X130791009Y-58597969D01*
X130791009Y-58597969D02*
X130886247Y-58645588D01*
X108454819Y-101326792D02*
X107978628Y-101660125D01*
X108454819Y-101898220D02*
X107454819Y-101898220D01*
X107454819Y-101898220D02*
X107454819Y-101517268D01*
X107454819Y-101517268D02*
X107502438Y-101422030D01*
X107502438Y-101422030D02*
X107550057Y-101374411D01*
X107550057Y-101374411D02*
X107645295Y-101326792D01*
X107645295Y-101326792D02*
X107788152Y-101326792D01*
X107788152Y-101326792D02*
X107883390Y-101374411D01*
X107883390Y-101374411D02*
X107931009Y-101422030D01*
X107931009Y-101422030D02*
X107978628Y-101517268D01*
X107978628Y-101517268D02*
X107978628Y-101898220D01*
X107454819Y-100707744D02*
X107454819Y-100517268D01*
X107454819Y-100517268D02*
X107502438Y-100422030D01*
X107502438Y-100422030D02*
X107597676Y-100326792D01*
X107597676Y-100326792D02*
X107788152Y-100279173D01*
X107788152Y-100279173D02*
X108121485Y-100279173D01*
X108121485Y-100279173D02*
X108311961Y-100326792D01*
X108311961Y-100326792D02*
X108407200Y-100422030D01*
X108407200Y-100422030D02*
X108454819Y-100517268D01*
X108454819Y-100517268D02*
X108454819Y-100707744D01*
X108454819Y-100707744D02*
X108407200Y-100802982D01*
X108407200Y-100802982D02*
X108311961Y-100898220D01*
X108311961Y-100898220D02*
X108121485Y-100945839D01*
X108121485Y-100945839D02*
X107788152Y-100945839D01*
X107788152Y-100945839D02*
X107597676Y-100898220D01*
X107597676Y-100898220D02*
X107502438Y-100802982D01*
X107502438Y-100802982D02*
X107454819Y-100707744D01*
X108454819Y-99850601D02*
X107454819Y-99850601D01*
X107454819Y-99850601D02*
X108169104Y-99517268D01*
X108169104Y-99517268D02*
X107454819Y-99183935D01*
X107454819Y-99183935D02*
X108454819Y-99183935D01*
X107788152Y-98279173D02*
X108454819Y-98279173D01*
X107407200Y-98517268D02*
X108121485Y-98755363D01*
X108121485Y-98755363D02*
X108121485Y-98136316D01*
X107177200Y-102036316D02*
X107177200Y-98093459D01*
X150634819Y-101422030D02*
X150634819Y-101898220D01*
X150634819Y-101898220D02*
X151111009Y-101945839D01*
X151111009Y-101945839D02*
X151063390Y-101898220D01*
X151063390Y-101898220D02*
X151015771Y-101802982D01*
X151015771Y-101802982D02*
X151015771Y-101564887D01*
X151015771Y-101564887D02*
X151063390Y-101469649D01*
X151063390Y-101469649D02*
X151111009Y-101422030D01*
X151111009Y-101422030D02*
X151206247Y-101374411D01*
X151206247Y-101374411D02*
X151444342Y-101374411D01*
X151444342Y-101374411D02*
X151539580Y-101422030D01*
X151539580Y-101422030D02*
X151587200Y-101469649D01*
X151587200Y-101469649D02*
X151634819Y-101564887D01*
X151634819Y-101564887D02*
X151634819Y-101802982D01*
X151634819Y-101802982D02*
X151587200Y-101898220D01*
X151587200Y-101898220D02*
X151539580Y-101945839D01*
X150634819Y-101088696D02*
X151634819Y-100755363D01*
X151634819Y-100755363D02*
X150634819Y-100422030D01*
X128774819Y-101898220D02*
X127774819Y-101898220D01*
X127774819Y-101898220D02*
X127774819Y-101660125D01*
X127774819Y-101660125D02*
X127822438Y-101517268D01*
X127822438Y-101517268D02*
X127917676Y-101422030D01*
X127917676Y-101422030D02*
X128012914Y-101374411D01*
X128012914Y-101374411D02*
X128203390Y-101326792D01*
X128203390Y-101326792D02*
X128346247Y-101326792D01*
X128346247Y-101326792D02*
X128536723Y-101374411D01*
X128536723Y-101374411D02*
X128631961Y-101422030D01*
X128631961Y-101422030D02*
X128727200Y-101517268D01*
X128727200Y-101517268D02*
X128774819Y-101660125D01*
X128774819Y-101660125D02*
X128774819Y-101898220D01*
X128108152Y-100469649D02*
X128774819Y-100469649D01*
X127727200Y-100707744D02*
X128441485Y-100945839D01*
X128441485Y-100945839D02*
X128441485Y-100326792D01*
X138649104Y-59502731D02*
X138649104Y-59026541D01*
X138934819Y-59597969D02*
X137934819Y-59264636D01*
X137934819Y-59264636D02*
X138934819Y-58931303D01*
X138934819Y-58550350D02*
X138934819Y-58359874D01*
X138934819Y-58359874D02*
X138887200Y-58264636D01*
X138887200Y-58264636D02*
X138839580Y-58217017D01*
X138839580Y-58217017D02*
X138696723Y-58121779D01*
X138696723Y-58121779D02*
X138506247Y-58074160D01*
X138506247Y-58074160D02*
X138125295Y-58074160D01*
X138125295Y-58074160D02*
X138030057Y-58121779D01*
X138030057Y-58121779D02*
X137982438Y-58169398D01*
X137982438Y-58169398D02*
X137934819Y-58264636D01*
X137934819Y-58264636D02*
X137934819Y-58455112D01*
X137934819Y-58455112D02*
X137982438Y-58550350D01*
X137982438Y-58550350D02*
X138030057Y-58597969D01*
X138030057Y-58597969D02*
X138125295Y-58645588D01*
X138125295Y-58645588D02*
X138363390Y-58645588D01*
X138363390Y-58645588D02*
X138458628Y-58597969D01*
X138458628Y-58597969D02*
X138506247Y-58550350D01*
X138506247Y-58550350D02*
X138553866Y-58455112D01*
X138553866Y-58455112D02*
X138553866Y-58264636D01*
X138553866Y-58264636D02*
X138506247Y-58169398D01*
X138506247Y-58169398D02*
X138458628Y-58121779D01*
X138458628Y-58121779D02*
X138363390Y-58074160D01*
X143348152Y-101469649D02*
X144014819Y-101469649D01*
X142967200Y-101707744D02*
X143681485Y-101945839D01*
X143681485Y-101945839D02*
X143681485Y-101326792D01*
X144014819Y-100945839D02*
X143014819Y-100945839D01*
X143014819Y-100945839D02*
X143729104Y-100612506D01*
X143729104Y-100612506D02*
X143014819Y-100279173D01*
X143014819Y-100279173D02*
X144014819Y-100279173D01*
X144014819Y-99802982D02*
X143014819Y-99802982D01*
X143491009Y-99802982D02*
X143491009Y-99231554D01*
X144014819Y-99231554D02*
X143014819Y-99231554D01*
X143348152Y-98850601D02*
X143348152Y-98326792D01*
X143348152Y-98326792D02*
X144014819Y-98850601D01*
X144014819Y-98850601D02*
X144014819Y-98326792D01*
X148142438Y-101374411D02*
X148094819Y-101469649D01*
X148094819Y-101469649D02*
X148094819Y-101612506D01*
X148094819Y-101612506D02*
X148142438Y-101755363D01*
X148142438Y-101755363D02*
X148237676Y-101850601D01*
X148237676Y-101850601D02*
X148332914Y-101898220D01*
X148332914Y-101898220D02*
X148523390Y-101945839D01*
X148523390Y-101945839D02*
X148666247Y-101945839D01*
X148666247Y-101945839D02*
X148856723Y-101898220D01*
X148856723Y-101898220D02*
X148951961Y-101850601D01*
X148951961Y-101850601D02*
X149047200Y-101755363D01*
X149047200Y-101755363D02*
X149094819Y-101612506D01*
X149094819Y-101612506D02*
X149094819Y-101517268D01*
X149094819Y-101517268D02*
X149047200Y-101374411D01*
X149047200Y-101374411D02*
X148999580Y-101326792D01*
X148999580Y-101326792D02*
X148666247Y-101326792D01*
X148666247Y-101326792D02*
X148666247Y-101517268D01*
X149094819Y-100898220D02*
X148094819Y-100898220D01*
X148094819Y-100898220D02*
X149094819Y-100326792D01*
X149094819Y-100326792D02*
X148094819Y-100326792D01*
X149094819Y-99850601D02*
X148094819Y-99850601D01*
X148094819Y-99850601D02*
X148094819Y-99612506D01*
X148094819Y-99612506D02*
X148142438Y-99469649D01*
X148142438Y-99469649D02*
X148237676Y-99374411D01*
X148237676Y-99374411D02*
X148332914Y-99326792D01*
X148332914Y-99326792D02*
X148523390Y-99279173D01*
X148523390Y-99279173D02*
X148666247Y-99279173D01*
X148666247Y-99279173D02*
X148856723Y-99326792D01*
X148856723Y-99326792D02*
X148951961Y-99374411D01*
X148951961Y-99374411D02*
X149047200Y-99469649D01*
X149047200Y-99469649D02*
X149094819Y-99612506D01*
X149094819Y-99612506D02*
X149094819Y-99850601D01*
X123694819Y-101898220D02*
X122694819Y-101898220D01*
X122694819Y-101898220D02*
X122694819Y-101660125D01*
X122694819Y-101660125D02*
X122742438Y-101517268D01*
X122742438Y-101517268D02*
X122837676Y-101422030D01*
X122837676Y-101422030D02*
X122932914Y-101374411D01*
X122932914Y-101374411D02*
X123123390Y-101326792D01*
X123123390Y-101326792D02*
X123266247Y-101326792D01*
X123266247Y-101326792D02*
X123456723Y-101374411D01*
X123456723Y-101374411D02*
X123551961Y-101422030D01*
X123551961Y-101422030D02*
X123647200Y-101517268D01*
X123647200Y-101517268D02*
X123694819Y-101660125D01*
X123694819Y-101660125D02*
X123694819Y-101898220D01*
X122790057Y-100945839D02*
X122742438Y-100898220D01*
X122742438Y-100898220D02*
X122694819Y-100802982D01*
X122694819Y-100802982D02*
X122694819Y-100564887D01*
X122694819Y-100564887D02*
X122742438Y-100469649D01*
X122742438Y-100469649D02*
X122790057Y-100422030D01*
X122790057Y-100422030D02*
X122885295Y-100374411D01*
X122885295Y-100374411D02*
X122980533Y-100374411D01*
X122980533Y-100374411D02*
X123123390Y-100422030D01*
X123123390Y-100422030D02*
X123694819Y-100993458D01*
X123694819Y-100993458D02*
X123694819Y-100374411D01*
X146554819Y-60169397D02*
X145554819Y-60169397D01*
X145554819Y-60169397D02*
X145554819Y-59788445D01*
X145554819Y-59788445D02*
X145602438Y-59693207D01*
X145602438Y-59693207D02*
X145650057Y-59645588D01*
X145650057Y-59645588D02*
X145745295Y-59597969D01*
X145745295Y-59597969D02*
X145888152Y-59597969D01*
X145888152Y-59597969D02*
X145983390Y-59645588D01*
X145983390Y-59645588D02*
X146031009Y-59693207D01*
X146031009Y-59693207D02*
X146078628Y-59788445D01*
X146078628Y-59788445D02*
X146078628Y-60169397D01*
X146554819Y-59169397D02*
X145554819Y-59169397D01*
X145554819Y-58502731D02*
X145554819Y-58312255D01*
X145554819Y-58312255D02*
X145602438Y-58217017D01*
X145602438Y-58217017D02*
X145697676Y-58121779D01*
X145697676Y-58121779D02*
X145888152Y-58074160D01*
X145888152Y-58074160D02*
X146221485Y-58074160D01*
X146221485Y-58074160D02*
X146411961Y-58121779D01*
X146411961Y-58121779D02*
X146507200Y-58217017D01*
X146507200Y-58217017D02*
X146554819Y-58312255D01*
X146554819Y-58312255D02*
X146554819Y-58502731D01*
X146554819Y-58502731D02*
X146507200Y-58597969D01*
X146507200Y-58597969D02*
X146411961Y-58693207D01*
X146411961Y-58693207D02*
X146221485Y-58740826D01*
X146221485Y-58740826D02*
X145888152Y-58740826D01*
X145888152Y-58740826D02*
X145697676Y-58693207D01*
X145697676Y-58693207D02*
X145602438Y-58597969D01*
X145602438Y-58597969D02*
X145554819Y-58502731D01*
X145277200Y-60307493D02*
X145277200Y-57983684D01*
X104962438Y-101374411D02*
X104914819Y-101469649D01*
X104914819Y-101469649D02*
X104914819Y-101612506D01*
X104914819Y-101612506D02*
X104962438Y-101755363D01*
X104962438Y-101755363D02*
X105057676Y-101850601D01*
X105057676Y-101850601D02*
X105152914Y-101898220D01*
X105152914Y-101898220D02*
X105343390Y-101945839D01*
X105343390Y-101945839D02*
X105486247Y-101945839D01*
X105486247Y-101945839D02*
X105676723Y-101898220D01*
X105676723Y-101898220D02*
X105771961Y-101850601D01*
X105771961Y-101850601D02*
X105867200Y-101755363D01*
X105867200Y-101755363D02*
X105914819Y-101612506D01*
X105914819Y-101612506D02*
X105914819Y-101517268D01*
X105914819Y-101517268D02*
X105867200Y-101374411D01*
X105867200Y-101374411D02*
X105819580Y-101326792D01*
X105819580Y-101326792D02*
X105486247Y-101326792D01*
X105486247Y-101326792D02*
X105486247Y-101517268D01*
X105914819Y-100898220D02*
X104914819Y-100898220D01*
X104914819Y-100898220D02*
X105914819Y-100326792D01*
X105914819Y-100326792D02*
X104914819Y-100326792D01*
X105914819Y-99850601D02*
X104914819Y-99850601D01*
X104914819Y-99850601D02*
X104914819Y-99612506D01*
X104914819Y-99612506D02*
X104962438Y-99469649D01*
X104962438Y-99469649D02*
X105057676Y-99374411D01*
X105057676Y-99374411D02*
X105152914Y-99326792D01*
X105152914Y-99326792D02*
X105343390Y-99279173D01*
X105343390Y-99279173D02*
X105486247Y-99279173D01*
X105486247Y-99279173D02*
X105676723Y-99326792D01*
X105676723Y-99326792D02*
X105771961Y-99374411D01*
X105771961Y-99374411D02*
X105867200Y-99469649D01*
X105867200Y-99469649D02*
X105914819Y-99612506D01*
X105914819Y-99612506D02*
X105914819Y-99850601D01*
X124098207Y-77879580D02*
X124050588Y-77927200D01*
X124050588Y-77927200D02*
X123907731Y-77974819D01*
X123907731Y-77974819D02*
X123812493Y-77974819D01*
X123812493Y-77974819D02*
X123669636Y-77927200D01*
X123669636Y-77927200D02*
X123574398Y-77831961D01*
X123574398Y-77831961D02*
X123526779Y-77736723D01*
X123526779Y-77736723D02*
X123479160Y-77546247D01*
X123479160Y-77546247D02*
X123479160Y-77403390D01*
X123479160Y-77403390D02*
X123526779Y-77212914D01*
X123526779Y-77212914D02*
X123574398Y-77117676D01*
X123574398Y-77117676D02*
X123669636Y-77022438D01*
X123669636Y-77022438D02*
X123812493Y-76974819D01*
X123812493Y-76974819D02*
X123907731Y-76974819D01*
X123907731Y-76974819D02*
X124050588Y-77022438D01*
X124050588Y-77022438D02*
X124098207Y-77070057D01*
X124669636Y-77974819D02*
X124574398Y-77927200D01*
X124574398Y-77927200D02*
X124526779Y-77879580D01*
X124526779Y-77879580D02*
X124479160Y-77784342D01*
X124479160Y-77784342D02*
X124479160Y-77498628D01*
X124479160Y-77498628D02*
X124526779Y-77403390D01*
X124526779Y-77403390D02*
X124574398Y-77355771D01*
X124574398Y-77355771D02*
X124669636Y-77308152D01*
X124669636Y-77308152D02*
X124812493Y-77308152D01*
X124812493Y-77308152D02*
X124907731Y-77355771D01*
X124907731Y-77355771D02*
X124955350Y-77403390D01*
X124955350Y-77403390D02*
X125002969Y-77498628D01*
X125002969Y-77498628D02*
X125002969Y-77784342D01*
X125002969Y-77784342D02*
X124955350Y-77879580D01*
X124955350Y-77879580D02*
X124907731Y-77927200D01*
X124907731Y-77927200D02*
X124812493Y-77974819D01*
X124812493Y-77974819D02*
X124669636Y-77974819D01*
X125431541Y-77308152D02*
X125431541Y-78308152D01*
X125431541Y-77355771D02*
X125526779Y-77308152D01*
X125526779Y-77308152D02*
X125717255Y-77308152D01*
X125717255Y-77308152D02*
X125812493Y-77355771D01*
X125812493Y-77355771D02*
X125860112Y-77403390D01*
X125860112Y-77403390D02*
X125907731Y-77498628D01*
X125907731Y-77498628D02*
X125907731Y-77784342D01*
X125907731Y-77784342D02*
X125860112Y-77879580D01*
X125860112Y-77879580D02*
X125812493Y-77927200D01*
X125812493Y-77927200D02*
X125717255Y-77974819D01*
X125717255Y-77974819D02*
X125526779Y-77974819D01*
X125526779Y-77974819D02*
X125431541Y-77927200D01*
X126241065Y-77308152D02*
X126479160Y-77974819D01*
X126717255Y-77308152D02*
X126479160Y-77974819D01*
X126479160Y-77974819D02*
X126383922Y-78212914D01*
X126383922Y-78212914D02*
X126336303Y-78260533D01*
X126336303Y-78260533D02*
X126241065Y-78308152D01*
X127098208Y-77974819D02*
X127098208Y-77308152D01*
X127098208Y-77498628D02*
X127145827Y-77403390D01*
X127145827Y-77403390D02*
X127193446Y-77355771D01*
X127193446Y-77355771D02*
X127288684Y-77308152D01*
X127288684Y-77308152D02*
X127383922Y-77308152D01*
X127717256Y-77974819D02*
X127717256Y-77308152D01*
X127717256Y-76974819D02*
X127669637Y-77022438D01*
X127669637Y-77022438D02*
X127717256Y-77070057D01*
X127717256Y-77070057D02*
X127764875Y-77022438D01*
X127764875Y-77022438D02*
X127717256Y-76974819D01*
X127717256Y-76974819D02*
X127717256Y-77070057D01*
X128622017Y-77308152D02*
X128622017Y-78117676D01*
X128622017Y-78117676D02*
X128574398Y-78212914D01*
X128574398Y-78212914D02*
X128526779Y-78260533D01*
X128526779Y-78260533D02*
X128431541Y-78308152D01*
X128431541Y-78308152D02*
X128288684Y-78308152D01*
X128288684Y-78308152D02*
X128193446Y-78260533D01*
X128622017Y-77927200D02*
X128526779Y-77974819D01*
X128526779Y-77974819D02*
X128336303Y-77974819D01*
X128336303Y-77974819D02*
X128241065Y-77927200D01*
X128241065Y-77927200D02*
X128193446Y-77879580D01*
X128193446Y-77879580D02*
X128145827Y-77784342D01*
X128145827Y-77784342D02*
X128145827Y-77498628D01*
X128145827Y-77498628D02*
X128193446Y-77403390D01*
X128193446Y-77403390D02*
X128241065Y-77355771D01*
X128241065Y-77355771D02*
X128336303Y-77308152D01*
X128336303Y-77308152D02*
X128526779Y-77308152D01*
X128526779Y-77308152D02*
X128622017Y-77355771D01*
X129098208Y-77974819D02*
X129098208Y-76974819D01*
X129526779Y-77974819D02*
X129526779Y-77451009D01*
X129526779Y-77451009D02*
X129479160Y-77355771D01*
X129479160Y-77355771D02*
X129383922Y-77308152D01*
X129383922Y-77308152D02*
X129241065Y-77308152D01*
X129241065Y-77308152D02*
X129145827Y-77355771D01*
X129145827Y-77355771D02*
X129098208Y-77403390D01*
X129860113Y-77308152D02*
X130241065Y-77308152D01*
X130002970Y-76974819D02*
X130002970Y-77831961D01*
X130002970Y-77831961D02*
X130050589Y-77927200D01*
X130050589Y-77927200D02*
X130145827Y-77974819D01*
X130145827Y-77974819D02*
X130241065Y-77974819D01*
X131622018Y-78355771D02*
X131574399Y-78308152D01*
X131574399Y-78308152D02*
X131479161Y-78165295D01*
X131479161Y-78165295D02*
X131431542Y-78070057D01*
X131431542Y-78070057D02*
X131383923Y-77927200D01*
X131383923Y-77927200D02*
X131336304Y-77689104D01*
X131336304Y-77689104D02*
X131336304Y-77498628D01*
X131336304Y-77498628D02*
X131383923Y-77260533D01*
X131383923Y-77260533D02*
X131431542Y-77117676D01*
X131431542Y-77117676D02*
X131479161Y-77022438D01*
X131479161Y-77022438D02*
X131574399Y-76879580D01*
X131574399Y-76879580D02*
X131622018Y-76831961D01*
X132431542Y-77927200D02*
X132336304Y-77974819D01*
X132336304Y-77974819D02*
X132145828Y-77974819D01*
X132145828Y-77974819D02*
X132050590Y-77927200D01*
X132050590Y-77927200D02*
X132002971Y-77879580D01*
X132002971Y-77879580D02*
X131955352Y-77784342D01*
X131955352Y-77784342D02*
X131955352Y-77498628D01*
X131955352Y-77498628D02*
X132002971Y-77403390D01*
X132002971Y-77403390D02*
X132050590Y-77355771D01*
X132050590Y-77355771D02*
X132145828Y-77308152D01*
X132145828Y-77308152D02*
X132336304Y-77308152D01*
X132336304Y-77308152D02*
X132431542Y-77355771D01*
X132764876Y-78355771D02*
X132812495Y-78308152D01*
X132812495Y-78308152D02*
X132907733Y-78165295D01*
X132907733Y-78165295D02*
X132955352Y-78070057D01*
X132955352Y-78070057D02*
X133002971Y-77927200D01*
X133002971Y-77927200D02*
X133050590Y-77689104D01*
X133050590Y-77689104D02*
X133050590Y-77498628D01*
X133050590Y-77498628D02*
X133002971Y-77260533D01*
X133002971Y-77260533D02*
X132955352Y-77117676D01*
X132955352Y-77117676D02*
X132907733Y-77022438D01*
X132907733Y-77022438D02*
X132812495Y-76879580D01*
X132812495Y-76879580D02*
X132764876Y-76831961D01*
X134241067Y-77070057D02*
X134288686Y-77022438D01*
X134288686Y-77022438D02*
X134383924Y-76974819D01*
X134383924Y-76974819D02*
X134622019Y-76974819D01*
X134622019Y-76974819D02*
X134717257Y-77022438D01*
X134717257Y-77022438D02*
X134764876Y-77070057D01*
X134764876Y-77070057D02*
X134812495Y-77165295D01*
X134812495Y-77165295D02*
X134812495Y-77260533D01*
X134812495Y-77260533D02*
X134764876Y-77403390D01*
X134764876Y-77403390D02*
X134193448Y-77974819D01*
X134193448Y-77974819D02*
X134812495Y-77974819D01*
X135431543Y-76974819D02*
X135526781Y-76974819D01*
X135526781Y-76974819D02*
X135622019Y-77022438D01*
X135622019Y-77022438D02*
X135669638Y-77070057D01*
X135669638Y-77070057D02*
X135717257Y-77165295D01*
X135717257Y-77165295D02*
X135764876Y-77355771D01*
X135764876Y-77355771D02*
X135764876Y-77593866D01*
X135764876Y-77593866D02*
X135717257Y-77784342D01*
X135717257Y-77784342D02*
X135669638Y-77879580D01*
X135669638Y-77879580D02*
X135622019Y-77927200D01*
X135622019Y-77927200D02*
X135526781Y-77974819D01*
X135526781Y-77974819D02*
X135431543Y-77974819D01*
X135431543Y-77974819D02*
X135336305Y-77927200D01*
X135336305Y-77927200D02*
X135288686Y-77879580D01*
X135288686Y-77879580D02*
X135241067Y-77784342D01*
X135241067Y-77784342D02*
X135193448Y-77593866D01*
X135193448Y-77593866D02*
X135193448Y-77355771D01*
X135193448Y-77355771D02*
X135241067Y-77165295D01*
X135241067Y-77165295D02*
X135288686Y-77070057D01*
X135288686Y-77070057D02*
X135336305Y-77022438D01*
X135336305Y-77022438D02*
X135431543Y-76974819D01*
X136145829Y-77070057D02*
X136193448Y-77022438D01*
X136193448Y-77022438D02*
X136288686Y-76974819D01*
X136288686Y-76974819D02*
X136526781Y-76974819D01*
X136526781Y-76974819D02*
X136622019Y-77022438D01*
X136622019Y-77022438D02*
X136669638Y-77070057D01*
X136669638Y-77070057D02*
X136717257Y-77165295D01*
X136717257Y-77165295D02*
X136717257Y-77260533D01*
X136717257Y-77260533D02*
X136669638Y-77403390D01*
X136669638Y-77403390D02*
X136098210Y-77974819D01*
X136098210Y-77974819D02*
X136717257Y-77974819D01*
X137574400Y-77308152D02*
X137574400Y-77974819D01*
X137336305Y-76927200D02*
X137098210Y-77641485D01*
X137098210Y-77641485D02*
X137717257Y-77641485D01*
X139431543Y-77974819D02*
X139098210Y-77498628D01*
X138860115Y-77974819D02*
X138860115Y-76974819D01*
X138860115Y-76974819D02*
X139241067Y-76974819D01*
X139241067Y-76974819D02*
X139336305Y-77022438D01*
X139336305Y-77022438D02*
X139383924Y-77070057D01*
X139383924Y-77070057D02*
X139431543Y-77165295D01*
X139431543Y-77165295D02*
X139431543Y-77308152D01*
X139431543Y-77308152D02*
X139383924Y-77403390D01*
X139383924Y-77403390D02*
X139336305Y-77451009D01*
X139336305Y-77451009D02*
X139241067Y-77498628D01*
X139241067Y-77498628D02*
X138860115Y-77498628D01*
X139860115Y-77974819D02*
X139860115Y-76974819D01*
X140288686Y-77974819D02*
X140288686Y-77451009D01*
X140288686Y-77451009D02*
X140241067Y-77355771D01*
X140241067Y-77355771D02*
X140145829Y-77308152D01*
X140145829Y-77308152D02*
X140002972Y-77308152D01*
X140002972Y-77308152D02*
X139907734Y-77355771D01*
X139907734Y-77355771D02*
X139860115Y-77403390D01*
X140669639Y-77308152D02*
X140907734Y-77974819D01*
X141145829Y-77308152D02*
X140907734Y-77974819D01*
X140907734Y-77974819D02*
X140812496Y-78212914D01*
X140812496Y-78212914D02*
X140764877Y-78260533D01*
X140764877Y-78260533D02*
X140669639Y-78308152D01*
X141479163Y-77927200D02*
X141574401Y-77974819D01*
X141574401Y-77974819D02*
X141764877Y-77974819D01*
X141764877Y-77974819D02*
X141860115Y-77927200D01*
X141860115Y-77927200D02*
X141907734Y-77831961D01*
X141907734Y-77831961D02*
X141907734Y-77784342D01*
X141907734Y-77784342D02*
X141860115Y-77689104D01*
X141860115Y-77689104D02*
X141764877Y-77641485D01*
X141764877Y-77641485D02*
X141622020Y-77641485D01*
X141622020Y-77641485D02*
X141526782Y-77593866D01*
X141526782Y-77593866D02*
X141479163Y-77498628D01*
X141479163Y-77498628D02*
X141479163Y-77451009D01*
X141479163Y-77451009D02*
X141526782Y-77355771D01*
X141526782Y-77355771D02*
X141622020Y-77308152D01*
X141622020Y-77308152D02*
X141764877Y-77308152D01*
X141764877Y-77308152D02*
X141860115Y-77355771D01*
X143002973Y-76974819D02*
X143241068Y-77974819D01*
X143241068Y-77974819D02*
X143431544Y-77260533D01*
X143431544Y-77260533D02*
X143622020Y-77974819D01*
X143622020Y-77974819D02*
X143860116Y-76974819D01*
X144622020Y-77927200D02*
X144526782Y-77974819D01*
X144526782Y-77974819D02*
X144336306Y-77974819D01*
X144336306Y-77974819D02*
X144241068Y-77927200D01*
X144241068Y-77927200D02*
X144193449Y-77831961D01*
X144193449Y-77831961D02*
X144193449Y-77451009D01*
X144193449Y-77451009D02*
X144241068Y-77355771D01*
X144241068Y-77355771D02*
X144336306Y-77308152D01*
X144336306Y-77308152D02*
X144526782Y-77308152D01*
X144526782Y-77308152D02*
X144622020Y-77355771D01*
X144622020Y-77355771D02*
X144669639Y-77451009D01*
X144669639Y-77451009D02*
X144669639Y-77546247D01*
X144669639Y-77546247D02*
X144193449Y-77641485D01*
X145526782Y-77974819D02*
X145526782Y-77451009D01*
X145526782Y-77451009D02*
X145479163Y-77355771D01*
X145479163Y-77355771D02*
X145383925Y-77308152D01*
X145383925Y-77308152D02*
X145193449Y-77308152D01*
X145193449Y-77308152D02*
X145098211Y-77355771D01*
X145526782Y-77927200D02*
X145431544Y-77974819D01*
X145431544Y-77974819D02*
X145193449Y-77974819D01*
X145193449Y-77974819D02*
X145098211Y-77927200D01*
X145098211Y-77927200D02*
X145050592Y-77831961D01*
X145050592Y-77831961D02*
X145050592Y-77736723D01*
X145050592Y-77736723D02*
X145098211Y-77641485D01*
X145098211Y-77641485D02*
X145193449Y-77593866D01*
X145193449Y-77593866D02*
X145431544Y-77593866D01*
X145431544Y-77593866D02*
X145526782Y-77546247D01*
X145860116Y-77308152D02*
X146241068Y-77308152D01*
X146002973Y-76974819D02*
X146002973Y-77831961D01*
X146002973Y-77831961D02*
X146050592Y-77927200D01*
X146050592Y-77927200D02*
X146145830Y-77974819D01*
X146145830Y-77974819D02*
X146241068Y-77974819D01*
X146574402Y-77974819D02*
X146574402Y-76974819D01*
X147002973Y-77974819D02*
X147002973Y-77451009D01*
X147002973Y-77451009D02*
X146955354Y-77355771D01*
X146955354Y-77355771D02*
X146860116Y-77308152D01*
X146860116Y-77308152D02*
X146717259Y-77308152D01*
X146717259Y-77308152D02*
X146622021Y-77355771D01*
X146622021Y-77355771D02*
X146574402Y-77403390D01*
X147860116Y-77927200D02*
X147764878Y-77974819D01*
X147764878Y-77974819D02*
X147574402Y-77974819D01*
X147574402Y-77974819D02*
X147479164Y-77927200D01*
X147479164Y-77927200D02*
X147431545Y-77831961D01*
X147431545Y-77831961D02*
X147431545Y-77451009D01*
X147431545Y-77451009D02*
X147479164Y-77355771D01*
X147479164Y-77355771D02*
X147574402Y-77308152D01*
X147574402Y-77308152D02*
X147764878Y-77308152D01*
X147764878Y-77308152D02*
X147860116Y-77355771D01*
X147860116Y-77355771D02*
X147907735Y-77451009D01*
X147907735Y-77451009D02*
X147907735Y-77546247D01*
X147907735Y-77546247D02*
X147431545Y-77641485D01*
X148336307Y-77974819D02*
X148336307Y-77308152D01*
X148336307Y-77498628D02*
X148383926Y-77403390D01*
X148383926Y-77403390D02*
X148431545Y-77355771D01*
X148431545Y-77355771D02*
X148526783Y-77308152D01*
X148526783Y-77308152D02*
X148622021Y-77308152D01*
X149098212Y-77974819D02*
X149002974Y-77927200D01*
X149002974Y-77927200D02*
X148955355Y-77831961D01*
X148955355Y-77831961D02*
X148955355Y-76974819D01*
X149860117Y-77927200D02*
X149764879Y-77974819D01*
X149764879Y-77974819D02*
X149574403Y-77974819D01*
X149574403Y-77974819D02*
X149479165Y-77927200D01*
X149479165Y-77927200D02*
X149431546Y-77831961D01*
X149431546Y-77831961D02*
X149431546Y-77451009D01*
X149431546Y-77451009D02*
X149479165Y-77355771D01*
X149479165Y-77355771D02*
X149574403Y-77308152D01*
X149574403Y-77308152D02*
X149764879Y-77308152D01*
X149764879Y-77308152D02*
X149860117Y-77355771D01*
X149860117Y-77355771D02*
X149907736Y-77451009D01*
X149907736Y-77451009D02*
X149907736Y-77546247D01*
X149907736Y-77546247D02*
X149431546Y-77641485D01*
X150241070Y-77308152D02*
X150479165Y-77974819D01*
X150717260Y-77308152D02*
X150479165Y-77974819D01*
X150479165Y-77974819D02*
X150383927Y-78212914D01*
X150383927Y-78212914D02*
X150336308Y-78260533D01*
X150336308Y-78260533D02*
X150241070Y-78308152D01*
X150682438Y-60169398D02*
X150634819Y-60264636D01*
X150634819Y-60264636D02*
X150634819Y-60407493D01*
X150634819Y-60407493D02*
X150682438Y-60550350D01*
X150682438Y-60550350D02*
X150777676Y-60645588D01*
X150777676Y-60645588D02*
X150872914Y-60693207D01*
X150872914Y-60693207D02*
X151063390Y-60740826D01*
X151063390Y-60740826D02*
X151206247Y-60740826D01*
X151206247Y-60740826D02*
X151396723Y-60693207D01*
X151396723Y-60693207D02*
X151491961Y-60645588D01*
X151491961Y-60645588D02*
X151587200Y-60550350D01*
X151587200Y-60550350D02*
X151634819Y-60407493D01*
X151634819Y-60407493D02*
X151634819Y-60312255D01*
X151634819Y-60312255D02*
X151587200Y-60169398D01*
X151587200Y-60169398D02*
X151539580Y-60121779D01*
X151539580Y-60121779D02*
X151206247Y-60121779D01*
X151206247Y-60121779D02*
X151206247Y-60312255D01*
X151634819Y-59693207D02*
X150634819Y-59693207D01*
X150634819Y-59693207D02*
X151634819Y-59121779D01*
X151634819Y-59121779D02*
X150634819Y-59121779D01*
X151634819Y-58645588D02*
X150634819Y-58645588D01*
X150634819Y-58645588D02*
X150634819Y-58407493D01*
X150634819Y-58407493D02*
X150682438Y-58264636D01*
X150682438Y-58264636D02*
X150777676Y-58169398D01*
X150777676Y-58169398D02*
X150872914Y-58121779D01*
X150872914Y-58121779D02*
X151063390Y-58074160D01*
X151063390Y-58074160D02*
X151206247Y-58074160D01*
X151206247Y-58074160D02*
X151396723Y-58121779D01*
X151396723Y-58121779D02*
X151491961Y-58169398D01*
X151491961Y-58169398D02*
X151587200Y-58264636D01*
X151587200Y-58264636D02*
X151634819Y-58407493D01*
X151634819Y-58407493D02*
X151634819Y-58645588D01*
X128489104Y-59502731D02*
X128489104Y-59026541D01*
X128774819Y-59597969D02*
X127774819Y-59264636D01*
X127774819Y-59264636D02*
X128774819Y-58931303D01*
X127774819Y-58121779D02*
X127774819Y-58597969D01*
X127774819Y-58597969D02*
X128251009Y-58645588D01*
X128251009Y-58645588D02*
X128203390Y-58597969D01*
X128203390Y-58597969D02*
X128155771Y-58502731D01*
X128155771Y-58502731D02*
X128155771Y-58264636D01*
X128155771Y-58264636D02*
X128203390Y-58169398D01*
X128203390Y-58169398D02*
X128251009Y-58121779D01*
X128251009Y-58121779D02*
X128346247Y-58074160D01*
X128346247Y-58074160D02*
X128584342Y-58074160D01*
X128584342Y-58074160D02*
X128679580Y-58121779D01*
X128679580Y-58121779D02*
X128727200Y-58169398D01*
X128727200Y-58169398D02*
X128774819Y-58264636D01*
X128774819Y-58264636D02*
X128774819Y-58502731D01*
X128774819Y-58502731D02*
X128727200Y-58597969D01*
X128727200Y-58597969D02*
X128679580Y-58645588D01*
X110994819Y-101898220D02*
X109994819Y-101898220D01*
X109994819Y-101231554D02*
X109994819Y-101041078D01*
X109994819Y-101041078D02*
X110042438Y-100945840D01*
X110042438Y-100945840D02*
X110137676Y-100850602D01*
X110137676Y-100850602D02*
X110328152Y-100802983D01*
X110328152Y-100802983D02*
X110661485Y-100802983D01*
X110661485Y-100802983D02*
X110851961Y-100850602D01*
X110851961Y-100850602D02*
X110947200Y-100945840D01*
X110947200Y-100945840D02*
X110994819Y-101041078D01*
X110994819Y-101041078D02*
X110994819Y-101231554D01*
X110994819Y-101231554D02*
X110947200Y-101326792D01*
X110947200Y-101326792D02*
X110851961Y-101422030D01*
X110851961Y-101422030D02*
X110661485Y-101469649D01*
X110661485Y-101469649D02*
X110328152Y-101469649D01*
X110328152Y-101469649D02*
X110137676Y-101422030D01*
X110137676Y-101422030D02*
X110042438Y-101326792D01*
X110042438Y-101326792D02*
X109994819Y-101231554D01*
X110090057Y-100422030D02*
X110042438Y-100374411D01*
X110042438Y-100374411D02*
X109994819Y-100279173D01*
X109994819Y-100279173D02*
X109994819Y-100041078D01*
X109994819Y-100041078D02*
X110042438Y-99945840D01*
X110042438Y-99945840D02*
X110090057Y-99898221D01*
X110090057Y-99898221D02*
X110185295Y-99850602D01*
X110185295Y-99850602D02*
X110280533Y-99850602D01*
X110280533Y-99850602D02*
X110423390Y-99898221D01*
X110423390Y-99898221D02*
X110994819Y-100469649D01*
X110994819Y-100469649D02*
X110994819Y-99850602D01*
X109717200Y-102036316D02*
X109717200Y-99760126D01*
X118329104Y-59502731D02*
X118329104Y-59026541D01*
X118614819Y-59597969D02*
X117614819Y-59264636D01*
X117614819Y-59264636D02*
X118614819Y-58931303D01*
X118614819Y-58074160D02*
X118614819Y-58645588D01*
X118614819Y-58359874D02*
X117614819Y-58359874D01*
X117614819Y-58359874D02*
X117757676Y-58455112D01*
X117757676Y-58455112D02*
X117852914Y-58550350D01*
X117852914Y-58550350D02*
X117900533Y-58645588D01*
X131314819Y-101898220D02*
X130314819Y-101898220D01*
X130314819Y-101898220D02*
X130314819Y-101660125D01*
X130314819Y-101660125D02*
X130362438Y-101517268D01*
X130362438Y-101517268D02*
X130457676Y-101422030D01*
X130457676Y-101422030D02*
X130552914Y-101374411D01*
X130552914Y-101374411D02*
X130743390Y-101326792D01*
X130743390Y-101326792D02*
X130886247Y-101326792D01*
X130886247Y-101326792D02*
X131076723Y-101374411D01*
X131076723Y-101374411D02*
X131171961Y-101422030D01*
X131171961Y-101422030D02*
X131267200Y-101517268D01*
X131267200Y-101517268D02*
X131314819Y-101660125D01*
X131314819Y-101660125D02*
X131314819Y-101898220D01*
X130314819Y-100422030D02*
X130314819Y-100898220D01*
X130314819Y-100898220D02*
X130791009Y-100945839D01*
X130791009Y-100945839D02*
X130743390Y-100898220D01*
X130743390Y-100898220D02*
X130695771Y-100802982D01*
X130695771Y-100802982D02*
X130695771Y-100564887D01*
X130695771Y-100564887D02*
X130743390Y-100469649D01*
X130743390Y-100469649D02*
X130791009Y-100422030D01*
X130791009Y-100422030D02*
X130886247Y-100374411D01*
X130886247Y-100374411D02*
X131124342Y-100374411D01*
X131124342Y-100374411D02*
X131219580Y-100422030D01*
X131219580Y-100422030D02*
X131267200Y-100469649D01*
X131267200Y-100469649D02*
X131314819Y-100564887D01*
X131314819Y-100564887D02*
X131314819Y-100802982D01*
X131314819Y-100802982D02*
X131267200Y-100898220D01*
X131267200Y-100898220D02*
X131219580Y-100945839D01*
X116074819Y-101898220D02*
X115074819Y-101898220D01*
X115074819Y-101231554D02*
X115074819Y-101041078D01*
X115074819Y-101041078D02*
X115122438Y-100945840D01*
X115122438Y-100945840D02*
X115217676Y-100850602D01*
X115217676Y-100850602D02*
X115408152Y-100802983D01*
X115408152Y-100802983D02*
X115741485Y-100802983D01*
X115741485Y-100802983D02*
X115931961Y-100850602D01*
X115931961Y-100850602D02*
X116027200Y-100945840D01*
X116027200Y-100945840D02*
X116074819Y-101041078D01*
X116074819Y-101041078D02*
X116074819Y-101231554D01*
X116074819Y-101231554D02*
X116027200Y-101326792D01*
X116027200Y-101326792D02*
X115931961Y-101422030D01*
X115931961Y-101422030D02*
X115741485Y-101469649D01*
X115741485Y-101469649D02*
X115408152Y-101469649D01*
X115408152Y-101469649D02*
X115217676Y-101422030D01*
X115217676Y-101422030D02*
X115122438Y-101326792D01*
X115122438Y-101326792D02*
X115074819Y-101231554D01*
X115074819Y-99898221D02*
X115074819Y-100374411D01*
X115074819Y-100374411D02*
X115551009Y-100422030D01*
X115551009Y-100422030D02*
X115503390Y-100374411D01*
X115503390Y-100374411D02*
X115455771Y-100279173D01*
X115455771Y-100279173D02*
X115455771Y-100041078D01*
X115455771Y-100041078D02*
X115503390Y-99945840D01*
X115503390Y-99945840D02*
X115551009Y-99898221D01*
X115551009Y-99898221D02*
X115646247Y-99850602D01*
X115646247Y-99850602D02*
X115884342Y-99850602D01*
X115884342Y-99850602D02*
X115979580Y-99898221D01*
X115979580Y-99898221D02*
X116027200Y-99945840D01*
X116027200Y-99945840D02*
X116074819Y-100041078D01*
X116074819Y-100041078D02*
X116074819Y-100279173D01*
X116074819Y-100279173D02*
X116027200Y-100374411D01*
X116027200Y-100374411D02*
X115979580Y-100422030D01*
X114797200Y-102036316D02*
X114797200Y-99760126D01*
X110667969Y-94119819D02*
X110191779Y-94119819D01*
X110191779Y-94119819D02*
X110144160Y-94596009D01*
X110144160Y-94596009D02*
X110191779Y-94548390D01*
X110191779Y-94548390D02*
X110287017Y-94500771D01*
X110287017Y-94500771D02*
X110525112Y-94500771D01*
X110525112Y-94500771D02*
X110620350Y-94548390D01*
X110620350Y-94548390D02*
X110667969Y-94596009D01*
X110667969Y-94596009D02*
X110715588Y-94691247D01*
X110715588Y-94691247D02*
X110715588Y-94929342D01*
X110715588Y-94929342D02*
X110667969Y-95024580D01*
X110667969Y-95024580D02*
X110620350Y-95072200D01*
X110620350Y-95072200D02*
X110525112Y-95119819D01*
X110525112Y-95119819D02*
X110287017Y-95119819D01*
X110287017Y-95119819D02*
X110191779Y-95072200D01*
X110191779Y-95072200D02*
X110144160Y-95024580D01*
X118614819Y-101898220D02*
X117614819Y-101898220D01*
X117614819Y-101898220D02*
X117614819Y-101660125D01*
X117614819Y-101660125D02*
X117662438Y-101517268D01*
X117662438Y-101517268D02*
X117757676Y-101422030D01*
X117757676Y-101422030D02*
X117852914Y-101374411D01*
X117852914Y-101374411D02*
X118043390Y-101326792D01*
X118043390Y-101326792D02*
X118186247Y-101326792D01*
X118186247Y-101326792D02*
X118376723Y-101374411D01*
X118376723Y-101374411D02*
X118471961Y-101422030D01*
X118471961Y-101422030D02*
X118567200Y-101517268D01*
X118567200Y-101517268D02*
X118614819Y-101660125D01*
X118614819Y-101660125D02*
X118614819Y-101898220D01*
X117614819Y-100707744D02*
X117614819Y-100612506D01*
X117614819Y-100612506D02*
X117662438Y-100517268D01*
X117662438Y-100517268D02*
X117710057Y-100469649D01*
X117710057Y-100469649D02*
X117805295Y-100422030D01*
X117805295Y-100422030D02*
X117995771Y-100374411D01*
X117995771Y-100374411D02*
X118233866Y-100374411D01*
X118233866Y-100374411D02*
X118424342Y-100422030D01*
X118424342Y-100422030D02*
X118519580Y-100469649D01*
X118519580Y-100469649D02*
X118567200Y-100517268D01*
X118567200Y-100517268D02*
X118614819Y-100612506D01*
X118614819Y-100612506D02*
X118614819Y-100707744D01*
X118614819Y-100707744D02*
X118567200Y-100802982D01*
X118567200Y-100802982D02*
X118519580Y-100850601D01*
X118519580Y-100850601D02*
X118424342Y-100898220D01*
X118424342Y-100898220D02*
X118233866Y-100945839D01*
X118233866Y-100945839D02*
X117995771Y-100945839D01*
X117995771Y-100945839D02*
X117805295Y-100898220D01*
X117805295Y-100898220D02*
X117710057Y-100850601D01*
X117710057Y-100850601D02*
X117662438Y-100802982D01*
X117662438Y-100802982D02*
X117614819Y-100707744D01*
X148999580Y-59883684D02*
X149047200Y-59931303D01*
X149047200Y-59931303D02*
X149094819Y-60074160D01*
X149094819Y-60074160D02*
X149094819Y-60169398D01*
X149094819Y-60169398D02*
X149047200Y-60312255D01*
X149047200Y-60312255D02*
X148951961Y-60407493D01*
X148951961Y-60407493D02*
X148856723Y-60455112D01*
X148856723Y-60455112D02*
X148666247Y-60502731D01*
X148666247Y-60502731D02*
X148523390Y-60502731D01*
X148523390Y-60502731D02*
X148332914Y-60455112D01*
X148332914Y-60455112D02*
X148237676Y-60407493D01*
X148237676Y-60407493D02*
X148142438Y-60312255D01*
X148142438Y-60312255D02*
X148094819Y-60169398D01*
X148094819Y-60169398D02*
X148094819Y-60074160D01*
X148094819Y-60074160D02*
X148142438Y-59931303D01*
X148142438Y-59931303D02*
X148190057Y-59883684D01*
X149094819Y-58978922D02*
X149094819Y-59455112D01*
X149094819Y-59455112D02*
X148094819Y-59455112D01*
X149094819Y-58645588D02*
X148094819Y-58645588D01*
X149094819Y-58074160D02*
X148523390Y-58502731D01*
X148094819Y-58074160D02*
X148666247Y-58645588D01*
X121154819Y-101898220D02*
X120154819Y-101898220D01*
X120154819Y-101898220D02*
X120154819Y-101660125D01*
X120154819Y-101660125D02*
X120202438Y-101517268D01*
X120202438Y-101517268D02*
X120297676Y-101422030D01*
X120297676Y-101422030D02*
X120392914Y-101374411D01*
X120392914Y-101374411D02*
X120583390Y-101326792D01*
X120583390Y-101326792D02*
X120726247Y-101326792D01*
X120726247Y-101326792D02*
X120916723Y-101374411D01*
X120916723Y-101374411D02*
X121011961Y-101422030D01*
X121011961Y-101422030D02*
X121107200Y-101517268D01*
X121107200Y-101517268D02*
X121154819Y-101660125D01*
X121154819Y-101660125D02*
X121154819Y-101898220D01*
X121154819Y-100374411D02*
X121154819Y-100945839D01*
X121154819Y-100660125D02*
X120154819Y-100660125D01*
X120154819Y-100660125D02*
X120297676Y-100755363D01*
X120297676Y-100755363D02*
X120392914Y-100850601D01*
X120392914Y-100850601D02*
X120440533Y-100945839D01*
X145602438Y-101374411D02*
X145554819Y-101469649D01*
X145554819Y-101469649D02*
X145554819Y-101612506D01*
X145554819Y-101612506D02*
X145602438Y-101755363D01*
X145602438Y-101755363D02*
X145697676Y-101850601D01*
X145697676Y-101850601D02*
X145792914Y-101898220D01*
X145792914Y-101898220D02*
X145983390Y-101945839D01*
X145983390Y-101945839D02*
X146126247Y-101945839D01*
X146126247Y-101945839D02*
X146316723Y-101898220D01*
X146316723Y-101898220D02*
X146411961Y-101850601D01*
X146411961Y-101850601D02*
X146507200Y-101755363D01*
X146507200Y-101755363D02*
X146554819Y-101612506D01*
X146554819Y-101612506D02*
X146554819Y-101517268D01*
X146554819Y-101517268D02*
X146507200Y-101374411D01*
X146507200Y-101374411D02*
X146459580Y-101326792D01*
X146459580Y-101326792D02*
X146126247Y-101326792D01*
X146126247Y-101326792D02*
X146126247Y-101517268D01*
X146554819Y-100898220D02*
X145554819Y-100898220D01*
X145554819Y-100898220D02*
X146554819Y-100326792D01*
X146554819Y-100326792D02*
X145554819Y-100326792D01*
X146554819Y-99850601D02*
X145554819Y-99850601D01*
X145554819Y-99850601D02*
X145554819Y-99612506D01*
X145554819Y-99612506D02*
X145602438Y-99469649D01*
X145602438Y-99469649D02*
X145697676Y-99374411D01*
X145697676Y-99374411D02*
X145792914Y-99326792D01*
X145792914Y-99326792D02*
X145983390Y-99279173D01*
X145983390Y-99279173D02*
X146126247Y-99279173D01*
X146126247Y-99279173D02*
X146316723Y-99326792D01*
X146316723Y-99326792D02*
X146411961Y-99374411D01*
X146411961Y-99374411D02*
X146507200Y-99469649D01*
X146507200Y-99469649D02*
X146554819Y-99612506D01*
X146554819Y-99612506D02*
X146554819Y-99850601D01*
X136109104Y-59502731D02*
X136109104Y-59026541D01*
X136394819Y-59597969D02*
X135394819Y-59264636D01*
X135394819Y-59264636D02*
X136394819Y-58931303D01*
X135823390Y-58455112D02*
X135775771Y-58550350D01*
X135775771Y-58550350D02*
X135728152Y-58597969D01*
X135728152Y-58597969D02*
X135632914Y-58645588D01*
X135632914Y-58645588D02*
X135585295Y-58645588D01*
X135585295Y-58645588D02*
X135490057Y-58597969D01*
X135490057Y-58597969D02*
X135442438Y-58550350D01*
X135442438Y-58550350D02*
X135394819Y-58455112D01*
X135394819Y-58455112D02*
X135394819Y-58264636D01*
X135394819Y-58264636D02*
X135442438Y-58169398D01*
X135442438Y-58169398D02*
X135490057Y-58121779D01*
X135490057Y-58121779D02*
X135585295Y-58074160D01*
X135585295Y-58074160D02*
X135632914Y-58074160D01*
X135632914Y-58074160D02*
X135728152Y-58121779D01*
X135728152Y-58121779D02*
X135775771Y-58169398D01*
X135775771Y-58169398D02*
X135823390Y-58264636D01*
X135823390Y-58264636D02*
X135823390Y-58455112D01*
X135823390Y-58455112D02*
X135871009Y-58550350D01*
X135871009Y-58550350D02*
X135918628Y-58597969D01*
X135918628Y-58597969D02*
X136013866Y-58645588D01*
X136013866Y-58645588D02*
X136204342Y-58645588D01*
X136204342Y-58645588D02*
X136299580Y-58597969D01*
X136299580Y-58597969D02*
X136347200Y-58550350D01*
X136347200Y-58550350D02*
X136394819Y-58455112D01*
X136394819Y-58455112D02*
X136394819Y-58264636D01*
X136394819Y-58264636D02*
X136347200Y-58169398D01*
X136347200Y-58169398D02*
X136299580Y-58121779D01*
X136299580Y-58121779D02*
X136204342Y-58074160D01*
X136204342Y-58074160D02*
X136013866Y-58074160D01*
X136013866Y-58074160D02*
X135918628Y-58121779D01*
X135918628Y-58121779D02*
X135871009Y-58169398D01*
X135871009Y-58169398D02*
X135823390Y-58264636D01*
X153174819Y-58978922D02*
X153174819Y-59455112D01*
X153174819Y-59455112D02*
X153651009Y-59502731D01*
X153651009Y-59502731D02*
X153603390Y-59455112D01*
X153603390Y-59455112D02*
X153555771Y-59359874D01*
X153555771Y-59359874D02*
X153555771Y-59121779D01*
X153555771Y-59121779D02*
X153603390Y-59026541D01*
X153603390Y-59026541D02*
X153651009Y-58978922D01*
X153651009Y-58978922D02*
X153746247Y-58931303D01*
X153746247Y-58931303D02*
X153984342Y-58931303D01*
X153984342Y-58931303D02*
X154079580Y-58978922D01*
X154079580Y-58978922D02*
X154127200Y-59026541D01*
X154127200Y-59026541D02*
X154174819Y-59121779D01*
X154174819Y-59121779D02*
X154174819Y-59359874D01*
X154174819Y-59359874D02*
X154127200Y-59455112D01*
X154127200Y-59455112D02*
X154079580Y-59502731D01*
X153174819Y-58645588D02*
X154174819Y-58312255D01*
X154174819Y-58312255D02*
X153174819Y-57978922D01*
X133569104Y-59502731D02*
X133569104Y-59026541D01*
X133854819Y-59597969D02*
X132854819Y-59264636D01*
X132854819Y-59264636D02*
X133854819Y-58931303D01*
X132854819Y-58693207D02*
X132854819Y-58026541D01*
X132854819Y-58026541D02*
X133854819Y-58455112D01*
X90395588Y-101152438D02*
X90300350Y-101104819D01*
X90300350Y-101104819D02*
X90157493Y-101104819D01*
X90157493Y-101104819D02*
X90014636Y-101152438D01*
X90014636Y-101152438D02*
X89919398Y-101247676D01*
X89919398Y-101247676D02*
X89871779Y-101342914D01*
X89871779Y-101342914D02*
X89824160Y-101533390D01*
X89824160Y-101533390D02*
X89824160Y-101676247D01*
X89824160Y-101676247D02*
X89871779Y-101866723D01*
X89871779Y-101866723D02*
X89919398Y-101961961D01*
X89919398Y-101961961D02*
X90014636Y-102057200D01*
X90014636Y-102057200D02*
X90157493Y-102104819D01*
X90157493Y-102104819D02*
X90252731Y-102104819D01*
X90252731Y-102104819D02*
X90395588Y-102057200D01*
X90395588Y-102057200D02*
X90443207Y-102009580D01*
X90443207Y-102009580D02*
X90443207Y-101676247D01*
X90443207Y-101676247D02*
X90252731Y-101676247D01*
X90871779Y-102104819D02*
X90871779Y-101104819D01*
X90871779Y-101104819D02*
X91443207Y-102104819D01*
X91443207Y-102104819D02*
X91443207Y-101104819D01*
X91919398Y-102104819D02*
X91919398Y-101104819D01*
X91919398Y-101104819D02*
X92157493Y-101104819D01*
X92157493Y-101104819D02*
X92300350Y-101152438D01*
X92300350Y-101152438D02*
X92395588Y-101247676D01*
X92395588Y-101247676D02*
X92443207Y-101342914D01*
X92443207Y-101342914D02*
X92490826Y-101533390D01*
X92490826Y-101533390D02*
X92490826Y-101676247D01*
X92490826Y-101676247D02*
X92443207Y-101866723D01*
X92443207Y-101866723D02*
X92395588Y-101961961D01*
X92395588Y-101961961D02*
X92300350Y-102057200D01*
X92300350Y-102057200D02*
X92157493Y-102104819D01*
X92157493Y-102104819D02*
X91919398Y-102104819D01*
X141474819Y-101326792D02*
X140998628Y-101660125D01*
X141474819Y-101898220D02*
X140474819Y-101898220D01*
X140474819Y-101898220D02*
X140474819Y-101517268D01*
X140474819Y-101517268D02*
X140522438Y-101422030D01*
X140522438Y-101422030D02*
X140570057Y-101374411D01*
X140570057Y-101374411D02*
X140665295Y-101326792D01*
X140665295Y-101326792D02*
X140808152Y-101326792D01*
X140808152Y-101326792D02*
X140903390Y-101374411D01*
X140903390Y-101374411D02*
X140951009Y-101422030D01*
X140951009Y-101422030D02*
X140998628Y-101517268D01*
X140998628Y-101517268D02*
X140998628Y-101898220D01*
X141474819Y-100898220D02*
X140474819Y-100898220D01*
X140474819Y-100898220D02*
X140474819Y-100660125D01*
X140474819Y-100660125D02*
X140522438Y-100517268D01*
X140522438Y-100517268D02*
X140617676Y-100422030D01*
X140617676Y-100422030D02*
X140712914Y-100374411D01*
X140712914Y-100374411D02*
X140903390Y-100326792D01*
X140903390Y-100326792D02*
X141046247Y-100326792D01*
X141046247Y-100326792D02*
X141236723Y-100374411D01*
X141236723Y-100374411D02*
X141331961Y-100422030D01*
X141331961Y-100422030D02*
X141427200Y-100517268D01*
X141427200Y-100517268D02*
X141474819Y-100660125D01*
X141474819Y-100660125D02*
X141474819Y-100898220D01*
X140197200Y-102036316D02*
X140197200Y-100236316D01*
X133854819Y-101898220D02*
X132854819Y-101898220D01*
X132854819Y-101898220D02*
X132854819Y-101660125D01*
X132854819Y-101660125D02*
X132902438Y-101517268D01*
X132902438Y-101517268D02*
X132997676Y-101422030D01*
X132997676Y-101422030D02*
X133092914Y-101374411D01*
X133092914Y-101374411D02*
X133283390Y-101326792D01*
X133283390Y-101326792D02*
X133426247Y-101326792D01*
X133426247Y-101326792D02*
X133616723Y-101374411D01*
X133616723Y-101374411D02*
X133711961Y-101422030D01*
X133711961Y-101422030D02*
X133807200Y-101517268D01*
X133807200Y-101517268D02*
X133854819Y-101660125D01*
X133854819Y-101660125D02*
X133854819Y-101898220D01*
X132854819Y-100469649D02*
X132854819Y-100660125D01*
X132854819Y-100660125D02*
X132902438Y-100755363D01*
X132902438Y-100755363D02*
X132950057Y-100802982D01*
X132950057Y-100802982D02*
X133092914Y-100898220D01*
X133092914Y-100898220D02*
X133283390Y-100945839D01*
X133283390Y-100945839D02*
X133664342Y-100945839D01*
X133664342Y-100945839D02*
X133759580Y-100898220D01*
X133759580Y-100898220D02*
X133807200Y-100850601D01*
X133807200Y-100850601D02*
X133854819Y-100755363D01*
X133854819Y-100755363D02*
X133854819Y-100564887D01*
X133854819Y-100564887D02*
X133807200Y-100469649D01*
X133807200Y-100469649D02*
X133759580Y-100422030D01*
X133759580Y-100422030D02*
X133664342Y-100374411D01*
X133664342Y-100374411D02*
X133426247Y-100374411D01*
X133426247Y-100374411D02*
X133331009Y-100422030D01*
X133331009Y-100422030D02*
X133283390Y-100469649D01*
X133283390Y-100469649D02*
X133235771Y-100564887D01*
X133235771Y-100564887D02*
X133235771Y-100755363D01*
X133235771Y-100755363D02*
X133283390Y-100850601D01*
X133283390Y-100850601D02*
X133331009Y-100898220D01*
X133331009Y-100898220D02*
X133426247Y-100945839D01*
X120869104Y-59502731D02*
X120869104Y-59026541D01*
X121154819Y-59597969D02*
X120154819Y-59264636D01*
X120154819Y-59264636D02*
X121154819Y-58931303D01*
X120250057Y-58645588D02*
X120202438Y-58597969D01*
X120202438Y-58597969D02*
X120154819Y-58502731D01*
X120154819Y-58502731D02*
X120154819Y-58264636D01*
X120154819Y-58264636D02*
X120202438Y-58169398D01*
X120202438Y-58169398D02*
X120250057Y-58121779D01*
X120250057Y-58121779D02*
X120345295Y-58074160D01*
X120345295Y-58074160D02*
X120440533Y-58074160D01*
X120440533Y-58074160D02*
X120583390Y-58121779D01*
X120583390Y-58121779D02*
X121154819Y-58693207D01*
X121154819Y-58693207D02*
X121154819Y-58074160D01*
X125949104Y-59502731D02*
X125949104Y-59026541D01*
X126234819Y-59597969D02*
X125234819Y-59264636D01*
X125234819Y-59264636D02*
X126234819Y-58931303D01*
X125568152Y-58169398D02*
X126234819Y-58169398D01*
X125187200Y-58407493D02*
X125901485Y-58645588D01*
X125901485Y-58645588D02*
X125901485Y-58026541D01*
X126234819Y-101898220D02*
X125234819Y-101898220D01*
X125234819Y-101898220D02*
X125234819Y-101660125D01*
X125234819Y-101660125D02*
X125282438Y-101517268D01*
X125282438Y-101517268D02*
X125377676Y-101422030D01*
X125377676Y-101422030D02*
X125472914Y-101374411D01*
X125472914Y-101374411D02*
X125663390Y-101326792D01*
X125663390Y-101326792D02*
X125806247Y-101326792D01*
X125806247Y-101326792D02*
X125996723Y-101374411D01*
X125996723Y-101374411D02*
X126091961Y-101422030D01*
X126091961Y-101422030D02*
X126187200Y-101517268D01*
X126187200Y-101517268D02*
X126234819Y-101660125D01*
X126234819Y-101660125D02*
X126234819Y-101898220D01*
X125234819Y-100993458D02*
X125234819Y-100374411D01*
X125234819Y-100374411D02*
X125615771Y-100707744D01*
X125615771Y-100707744D02*
X125615771Y-100564887D01*
X125615771Y-100564887D02*
X125663390Y-100469649D01*
X125663390Y-100469649D02*
X125711009Y-100422030D01*
X125711009Y-100422030D02*
X125806247Y-100374411D01*
X125806247Y-100374411D02*
X126044342Y-100374411D01*
X126044342Y-100374411D02*
X126139580Y-100422030D01*
X126139580Y-100422030D02*
X126187200Y-100469649D01*
X126187200Y-100469649D02*
X126234819Y-100564887D01*
X126234819Y-100564887D02*
X126234819Y-100850601D01*
X126234819Y-100850601D02*
X126187200Y-100945839D01*
X126187200Y-100945839D02*
X126139580Y-100993458D01*
X143729104Y-60455112D02*
X143729104Y-59978922D01*
X144014819Y-60550350D02*
X143014819Y-60217017D01*
X143014819Y-60217017D02*
X144014819Y-59883684D01*
X144014819Y-59026541D02*
X144014819Y-59597969D01*
X144014819Y-59312255D02*
X143014819Y-59312255D01*
X143014819Y-59312255D02*
X143157676Y-59407493D01*
X143157676Y-59407493D02*
X143252914Y-59502731D01*
X143252914Y-59502731D02*
X143300533Y-59597969D01*
X144014819Y-58074160D02*
X144014819Y-58645588D01*
X144014819Y-58359874D02*
X143014819Y-58359874D01*
X143014819Y-58359874D02*
X143157676Y-58455112D01*
X143157676Y-58455112D02*
X143252914Y-58550350D01*
X143252914Y-58550350D02*
X143300533Y-58645588D01*
X84966666Y-103594819D02*
X84966666Y-104309104D01*
X84966666Y-104309104D02*
X84919047Y-104451961D01*
X84919047Y-104451961D02*
X84823809Y-104547200D01*
X84823809Y-104547200D02*
X84680952Y-104594819D01*
X84680952Y-104594819D02*
X84585714Y-104594819D01*
X85395238Y-103690057D02*
X85442857Y-103642438D01*
X85442857Y-103642438D02*
X85538095Y-103594819D01*
X85538095Y-103594819D02*
X85776190Y-103594819D01*
X85776190Y-103594819D02*
X85871428Y-103642438D01*
X85871428Y-103642438D02*
X85919047Y-103690057D01*
X85919047Y-103690057D02*
X85966666Y-103785295D01*
X85966666Y-103785295D02*
X85966666Y-103880533D01*
X85966666Y-103880533D02*
X85919047Y-104023390D01*
X85919047Y-104023390D02*
X85347619Y-104594819D01*
X85347619Y-104594819D02*
X85966666Y-104594819D01*
X86375952Y-102054819D02*
X85804524Y-102054819D01*
X86090238Y-102054819D02*
X86090238Y-101054819D01*
X86090238Y-101054819D02*
X85995000Y-101197676D01*
X85995000Y-101197676D02*
X85899762Y-101292914D01*
X85899762Y-101292914D02*
X85804524Y-101340533D01*
X86756905Y-101150057D02*
X86804524Y-101102438D01*
X86804524Y-101102438D02*
X86899762Y-101054819D01*
X86899762Y-101054819D02*
X87137857Y-101054819D01*
X87137857Y-101054819D02*
X87233095Y-101102438D01*
X87233095Y-101102438D02*
X87280714Y-101150057D01*
X87280714Y-101150057D02*
X87328333Y-101245295D01*
X87328333Y-101245295D02*
X87328333Y-101340533D01*
X87328333Y-101340533D02*
X87280714Y-101483390D01*
X87280714Y-101483390D02*
X86709286Y-102054819D01*
X86709286Y-102054819D02*
X87328333Y-102054819D01*
X87614048Y-101054819D02*
X87947381Y-102054819D01*
X87947381Y-102054819D02*
X88280714Y-101054819D01*
X160551905Y-97824819D02*
X160551905Y-96824819D01*
X160551905Y-96824819D02*
X160790000Y-96824819D01*
X160790000Y-96824819D02*
X160932857Y-96872438D01*
X160932857Y-96872438D02*
X161028095Y-96967676D01*
X161028095Y-96967676D02*
X161075714Y-97062914D01*
X161075714Y-97062914D02*
X161123333Y-97253390D01*
X161123333Y-97253390D02*
X161123333Y-97396247D01*
X161123333Y-97396247D02*
X161075714Y-97586723D01*
X161075714Y-97586723D02*
X161028095Y-97681961D01*
X161028095Y-97681961D02*
X160932857Y-97777200D01*
X160932857Y-97777200D02*
X160790000Y-97824819D01*
X160790000Y-97824819D02*
X160551905Y-97824819D01*
X162075714Y-97824819D02*
X161504286Y-97824819D01*
X161790000Y-97824819D02*
X161790000Y-96824819D01*
X161790000Y-96824819D02*
X161694762Y-96967676D01*
X161694762Y-96967676D02*
X161599524Y-97062914D01*
X161599524Y-97062914D02*
X161504286Y-97110533D01*
X166457333Y-97835819D02*
X166124000Y-97359628D01*
X165885905Y-97835819D02*
X165885905Y-96835819D01*
X165885905Y-96835819D02*
X166266857Y-96835819D01*
X166266857Y-96835819D02*
X166362095Y-96883438D01*
X166362095Y-96883438D02*
X166409714Y-96931057D01*
X166409714Y-96931057D02*
X166457333Y-97026295D01*
X166457333Y-97026295D02*
X166457333Y-97169152D01*
X166457333Y-97169152D02*
X166409714Y-97264390D01*
X166409714Y-97264390D02*
X166362095Y-97312009D01*
X166362095Y-97312009D02*
X166266857Y-97359628D01*
X166266857Y-97359628D02*
X165885905Y-97359628D01*
X166838286Y-96931057D02*
X166885905Y-96883438D01*
X166885905Y-96883438D02*
X166981143Y-96835819D01*
X166981143Y-96835819D02*
X167219238Y-96835819D01*
X167219238Y-96835819D02*
X167314476Y-96883438D01*
X167314476Y-96883438D02*
X167362095Y-96931057D01*
X167362095Y-96931057D02*
X167409714Y-97026295D01*
X167409714Y-97026295D02*
X167409714Y-97121533D01*
X167409714Y-97121533D02*
X167362095Y-97264390D01*
X167362095Y-97264390D02*
X166790667Y-97835819D01*
X166790667Y-97835819D02*
X167409714Y-97835819D01*
X172029523Y-100149819D02*
X171458095Y-100149819D01*
X171743809Y-100149819D02*
X171743809Y-99149819D01*
X171743809Y-99149819D02*
X171648571Y-99292676D01*
X171648571Y-99292676D02*
X171553333Y-99387914D01*
X171553333Y-99387914D02*
X171458095Y-99435533D01*
X172648571Y-99149819D02*
X172743809Y-99149819D01*
X172743809Y-99149819D02*
X172839047Y-99197438D01*
X172839047Y-99197438D02*
X172886666Y-99245057D01*
X172886666Y-99245057D02*
X172934285Y-99340295D01*
X172934285Y-99340295D02*
X172981904Y-99530771D01*
X172981904Y-99530771D02*
X172981904Y-99768866D01*
X172981904Y-99768866D02*
X172934285Y-99959342D01*
X172934285Y-99959342D02*
X172886666Y-100054580D01*
X172886666Y-100054580D02*
X172839047Y-100102200D01*
X172839047Y-100102200D02*
X172743809Y-100149819D01*
X172743809Y-100149819D02*
X172648571Y-100149819D01*
X172648571Y-100149819D02*
X172553333Y-100102200D01*
X172553333Y-100102200D02*
X172505714Y-100054580D01*
X172505714Y-100054580D02*
X172458095Y-99959342D01*
X172458095Y-99959342D02*
X172410476Y-99768866D01*
X172410476Y-99768866D02*
X172410476Y-99530771D01*
X172410476Y-99530771D02*
X172458095Y-99340295D01*
X172458095Y-99340295D02*
X172505714Y-99245057D01*
X172505714Y-99245057D02*
X172553333Y-99197438D01*
X172553333Y-99197438D02*
X172648571Y-99149819D01*
X173410476Y-100149819D02*
X173410476Y-99149819D01*
X173981904Y-100149819D02*
X173553333Y-99578390D01*
X173981904Y-99149819D02*
X173410476Y-99721247D01*
X166457333Y-85643819D02*
X166124000Y-85167628D01*
X165885905Y-85643819D02*
X165885905Y-84643819D01*
X165885905Y-84643819D02*
X166266857Y-84643819D01*
X166266857Y-84643819D02*
X166362095Y-84691438D01*
X166362095Y-84691438D02*
X166409714Y-84739057D01*
X166409714Y-84739057D02*
X166457333Y-84834295D01*
X166457333Y-84834295D02*
X166457333Y-84977152D01*
X166457333Y-84977152D02*
X166409714Y-85072390D01*
X166409714Y-85072390D02*
X166362095Y-85120009D01*
X166362095Y-85120009D02*
X166266857Y-85167628D01*
X166266857Y-85167628D02*
X165885905Y-85167628D01*
X167362095Y-84643819D02*
X166885905Y-84643819D01*
X166885905Y-84643819D02*
X166838286Y-85120009D01*
X166838286Y-85120009D02*
X166885905Y-85072390D01*
X166885905Y-85072390D02*
X166981143Y-85024771D01*
X166981143Y-85024771D02*
X167219238Y-85024771D01*
X167219238Y-85024771D02*
X167314476Y-85072390D01*
X167314476Y-85072390D02*
X167362095Y-85120009D01*
X167362095Y-85120009D02*
X167409714Y-85215247D01*
X167409714Y-85215247D02*
X167409714Y-85453342D01*
X167409714Y-85453342D02*
X167362095Y-85548580D01*
X167362095Y-85548580D02*
X167314476Y-85596200D01*
X167314476Y-85596200D02*
X167219238Y-85643819D01*
X167219238Y-85643819D02*
X166981143Y-85643819D01*
X166981143Y-85643819D02*
X166885905Y-85596200D01*
X166885905Y-85596200D02*
X166838286Y-85548580D01*
X159374819Y-91606666D02*
X158898628Y-91939999D01*
X159374819Y-92178094D02*
X158374819Y-92178094D01*
X158374819Y-92178094D02*
X158374819Y-91797142D01*
X158374819Y-91797142D02*
X158422438Y-91701904D01*
X158422438Y-91701904D02*
X158470057Y-91654285D01*
X158470057Y-91654285D02*
X158565295Y-91606666D01*
X158565295Y-91606666D02*
X158708152Y-91606666D01*
X158708152Y-91606666D02*
X158803390Y-91654285D01*
X158803390Y-91654285D02*
X158851009Y-91701904D01*
X158851009Y-91701904D02*
X158898628Y-91797142D01*
X158898628Y-91797142D02*
X158898628Y-92178094D01*
X159374819Y-90654285D02*
X159374819Y-91225713D01*
X159374819Y-90939999D02*
X158374819Y-90939999D01*
X158374819Y-90939999D02*
X158517676Y-91035237D01*
X158517676Y-91035237D02*
X158612914Y-91130475D01*
X158612914Y-91130475D02*
X158660533Y-91225713D01*
X163210057Y-93178094D02*
X163162438Y-93130475D01*
X163162438Y-93130475D02*
X163114819Y-93035237D01*
X163114819Y-93035237D02*
X163114819Y-92797142D01*
X163114819Y-92797142D02*
X163162438Y-92701904D01*
X163162438Y-92701904D02*
X163210057Y-92654285D01*
X163210057Y-92654285D02*
X163305295Y-92606666D01*
X163305295Y-92606666D02*
X163400533Y-92606666D01*
X163400533Y-92606666D02*
X163543390Y-92654285D01*
X163543390Y-92654285D02*
X164114819Y-93225713D01*
X164114819Y-93225713D02*
X164114819Y-92606666D01*
X163210057Y-92225713D02*
X163162438Y-92178094D01*
X163162438Y-92178094D02*
X163114819Y-92082856D01*
X163114819Y-92082856D02*
X163114819Y-91844761D01*
X163114819Y-91844761D02*
X163162438Y-91749523D01*
X163162438Y-91749523D02*
X163210057Y-91701904D01*
X163210057Y-91701904D02*
X163305295Y-91654285D01*
X163305295Y-91654285D02*
X163400533Y-91654285D01*
X163400533Y-91654285D02*
X163543390Y-91701904D01*
X163543390Y-91701904D02*
X164114819Y-92273332D01*
X164114819Y-92273332D02*
X164114819Y-91654285D01*
X163114819Y-91035237D02*
X163114819Y-90939999D01*
X163114819Y-90939999D02*
X163162438Y-90844761D01*
X163162438Y-90844761D02*
X163210057Y-90797142D01*
X163210057Y-90797142D02*
X163305295Y-90749523D01*
X163305295Y-90749523D02*
X163495771Y-90701904D01*
X163495771Y-90701904D02*
X163733866Y-90701904D01*
X163733866Y-90701904D02*
X163924342Y-90749523D01*
X163924342Y-90749523D02*
X164019580Y-90797142D01*
X164019580Y-90797142D02*
X164067200Y-90844761D01*
X164067200Y-90844761D02*
X164114819Y-90939999D01*
X164114819Y-90939999D02*
X164114819Y-91035237D01*
X164114819Y-91035237D02*
X164067200Y-91130475D01*
X164067200Y-91130475D02*
X164019580Y-91178094D01*
X164019580Y-91178094D02*
X163924342Y-91225713D01*
X163924342Y-91225713D02*
X163733866Y-91273332D01*
X163733866Y-91273332D02*
X163495771Y-91273332D01*
X163495771Y-91273332D02*
X163305295Y-91225713D01*
X163305295Y-91225713D02*
X163210057Y-91178094D01*
X163210057Y-91178094D02*
X163162438Y-91130475D01*
X163162438Y-91130475D02*
X163114819Y-91035237D01*
X164114819Y-89701904D02*
X163638628Y-90035237D01*
X164114819Y-90273332D02*
X163114819Y-90273332D01*
X163114819Y-90273332D02*
X163114819Y-89892380D01*
X163114819Y-89892380D02*
X163162438Y-89797142D01*
X163162438Y-89797142D02*
X163210057Y-89749523D01*
X163210057Y-89749523D02*
X163305295Y-89701904D01*
X163305295Y-89701904D02*
X163448152Y-89701904D01*
X163448152Y-89701904D02*
X163543390Y-89749523D01*
X163543390Y-89749523D02*
X163591009Y-89797142D01*
X163591009Y-89797142D02*
X163638628Y-89892380D01*
X163638628Y-89892380D02*
X163638628Y-90273332D01*
X84333333Y-96899580D02*
X84285714Y-96947200D01*
X84285714Y-96947200D02*
X84142857Y-96994819D01*
X84142857Y-96994819D02*
X84047619Y-96994819D01*
X84047619Y-96994819D02*
X83904762Y-96947200D01*
X83904762Y-96947200D02*
X83809524Y-96851961D01*
X83809524Y-96851961D02*
X83761905Y-96756723D01*
X83761905Y-96756723D02*
X83714286Y-96566247D01*
X83714286Y-96566247D02*
X83714286Y-96423390D01*
X83714286Y-96423390D02*
X83761905Y-96232914D01*
X83761905Y-96232914D02*
X83809524Y-96137676D01*
X83809524Y-96137676D02*
X83904762Y-96042438D01*
X83904762Y-96042438D02*
X84047619Y-95994819D01*
X84047619Y-95994819D02*
X84142857Y-95994819D01*
X84142857Y-95994819D02*
X84285714Y-96042438D01*
X84285714Y-96042438D02*
X84333333Y-96090057D01*
X85285714Y-96994819D02*
X84714286Y-96994819D01*
X85000000Y-96994819D02*
X85000000Y-95994819D01*
X85000000Y-95994819D02*
X84904762Y-96137676D01*
X84904762Y-96137676D02*
X84809524Y-96232914D01*
X84809524Y-96232914D02*
X84714286Y-96280533D01*
X166457333Y-69387819D02*
X166124000Y-68911628D01*
X165885905Y-69387819D02*
X165885905Y-68387819D01*
X165885905Y-68387819D02*
X166266857Y-68387819D01*
X166266857Y-68387819D02*
X166362095Y-68435438D01*
X166362095Y-68435438D02*
X166409714Y-68483057D01*
X166409714Y-68483057D02*
X166457333Y-68578295D01*
X166457333Y-68578295D02*
X166457333Y-68721152D01*
X166457333Y-68721152D02*
X166409714Y-68816390D01*
X166409714Y-68816390D02*
X166362095Y-68864009D01*
X166362095Y-68864009D02*
X166266857Y-68911628D01*
X166266857Y-68911628D02*
X165885905Y-68911628D01*
X166933524Y-69387819D02*
X167124000Y-69387819D01*
X167124000Y-69387819D02*
X167219238Y-69340200D01*
X167219238Y-69340200D02*
X167266857Y-69292580D01*
X167266857Y-69292580D02*
X167362095Y-69149723D01*
X167362095Y-69149723D02*
X167409714Y-68959247D01*
X167409714Y-68959247D02*
X167409714Y-68578295D01*
X167409714Y-68578295D02*
X167362095Y-68483057D01*
X167362095Y-68483057D02*
X167314476Y-68435438D01*
X167314476Y-68435438D02*
X167219238Y-68387819D01*
X167219238Y-68387819D02*
X167028762Y-68387819D01*
X167028762Y-68387819D02*
X166933524Y-68435438D01*
X166933524Y-68435438D02*
X166885905Y-68483057D01*
X166885905Y-68483057D02*
X166838286Y-68578295D01*
X166838286Y-68578295D02*
X166838286Y-68816390D01*
X166838286Y-68816390D02*
X166885905Y-68911628D01*
X166885905Y-68911628D02*
X166933524Y-68959247D01*
X166933524Y-68959247D02*
X167028762Y-69006866D01*
X167028762Y-69006866D02*
X167219238Y-69006866D01*
X167219238Y-69006866D02*
X167314476Y-68959247D01*
X167314476Y-68959247D02*
X167362095Y-68911628D01*
X167362095Y-68911628D02*
X167409714Y-68816390D01*
X172029523Y-67059819D02*
X171458095Y-67059819D01*
X171743809Y-67059819D02*
X171743809Y-66059819D01*
X171743809Y-66059819D02*
X171648571Y-66202676D01*
X171648571Y-66202676D02*
X171553333Y-66297914D01*
X171553333Y-66297914D02*
X171458095Y-66345533D01*
X172648571Y-66059819D02*
X172743809Y-66059819D01*
X172743809Y-66059819D02*
X172839047Y-66107438D01*
X172839047Y-66107438D02*
X172886666Y-66155057D01*
X172886666Y-66155057D02*
X172934285Y-66250295D01*
X172934285Y-66250295D02*
X172981904Y-66440771D01*
X172981904Y-66440771D02*
X172981904Y-66678866D01*
X172981904Y-66678866D02*
X172934285Y-66869342D01*
X172934285Y-66869342D02*
X172886666Y-66964580D01*
X172886666Y-66964580D02*
X172839047Y-67012200D01*
X172839047Y-67012200D02*
X172743809Y-67059819D01*
X172743809Y-67059819D02*
X172648571Y-67059819D01*
X172648571Y-67059819D02*
X172553333Y-67012200D01*
X172553333Y-67012200D02*
X172505714Y-66964580D01*
X172505714Y-66964580D02*
X172458095Y-66869342D01*
X172458095Y-66869342D02*
X172410476Y-66678866D01*
X172410476Y-66678866D02*
X172410476Y-66440771D01*
X172410476Y-66440771D02*
X172458095Y-66250295D01*
X172458095Y-66250295D02*
X172505714Y-66155057D01*
X172505714Y-66155057D02*
X172553333Y-66107438D01*
X172553333Y-66107438D02*
X172648571Y-66059819D01*
X173410476Y-67059819D02*
X173410476Y-66059819D01*
X173981904Y-67059819D02*
X173553333Y-66488390D01*
X173981904Y-66059819D02*
X173410476Y-66631247D01*
X86024819Y-85851904D02*
X86834342Y-85851904D01*
X86834342Y-85851904D02*
X86929580Y-85804285D01*
X86929580Y-85804285D02*
X86977200Y-85756666D01*
X86977200Y-85756666D02*
X87024819Y-85661428D01*
X87024819Y-85661428D02*
X87024819Y-85470952D01*
X87024819Y-85470952D02*
X86977200Y-85375714D01*
X86977200Y-85375714D02*
X86929580Y-85328095D01*
X86929580Y-85328095D02*
X86834342Y-85280476D01*
X86834342Y-85280476D02*
X86024819Y-85280476D01*
X86024819Y-84899523D02*
X86024819Y-84280476D01*
X86024819Y-84280476D02*
X86405771Y-84613809D01*
X86405771Y-84613809D02*
X86405771Y-84470952D01*
X86405771Y-84470952D02*
X86453390Y-84375714D01*
X86453390Y-84375714D02*
X86501009Y-84328095D01*
X86501009Y-84328095D02*
X86596247Y-84280476D01*
X86596247Y-84280476D02*
X86834342Y-84280476D01*
X86834342Y-84280476D02*
X86929580Y-84328095D01*
X86929580Y-84328095D02*
X86977200Y-84375714D01*
X86977200Y-84375714D02*
X87024819Y-84470952D01*
X87024819Y-84470952D02*
X87024819Y-84756666D01*
X87024819Y-84756666D02*
X86977200Y-84851904D01*
X86977200Y-84851904D02*
X86929580Y-84899523D01*
X94670952Y-84544819D02*
X95337618Y-84544819D01*
X95337618Y-84544819D02*
X94909047Y-85544819D01*
X96147142Y-84878152D02*
X96147142Y-85544819D01*
X95909047Y-84497200D02*
X95670952Y-85211485D01*
X95670952Y-85211485D02*
X96289999Y-85211485D01*
X97147142Y-85544819D02*
X96670952Y-85544819D01*
X96670952Y-85544819D02*
X96670952Y-84544819D01*
X97432857Y-85497200D02*
X97575714Y-85544819D01*
X97575714Y-85544819D02*
X97813809Y-85544819D01*
X97813809Y-85544819D02*
X97909047Y-85497200D01*
X97909047Y-85497200D02*
X97956666Y-85449580D01*
X97956666Y-85449580D02*
X98004285Y-85354342D01*
X98004285Y-85354342D02*
X98004285Y-85259104D01*
X98004285Y-85259104D02*
X97956666Y-85163866D01*
X97956666Y-85163866D02*
X97909047Y-85116247D01*
X97909047Y-85116247D02*
X97813809Y-85068628D01*
X97813809Y-85068628D02*
X97623333Y-85021009D01*
X97623333Y-85021009D02*
X97528095Y-84973390D01*
X97528095Y-84973390D02*
X97480476Y-84925771D01*
X97480476Y-84925771D02*
X97432857Y-84830533D01*
X97432857Y-84830533D02*
X97432857Y-84735295D01*
X97432857Y-84735295D02*
X97480476Y-84640057D01*
X97480476Y-84640057D02*
X97528095Y-84592438D01*
X97528095Y-84592438D02*
X97623333Y-84544819D01*
X97623333Y-84544819D02*
X97861428Y-84544819D01*
X97861428Y-84544819D02*
X98004285Y-84592438D01*
X98956666Y-85544819D02*
X98385238Y-85544819D01*
X98670952Y-85544819D02*
X98670952Y-84544819D01*
X98670952Y-84544819D02*
X98575714Y-84687676D01*
X98575714Y-84687676D02*
X98480476Y-84782914D01*
X98480476Y-84782914D02*
X98385238Y-84830533D01*
X99290000Y-84544819D02*
X99909047Y-84544819D01*
X99909047Y-84544819D02*
X99575714Y-84925771D01*
X99575714Y-84925771D02*
X99718571Y-84925771D01*
X99718571Y-84925771D02*
X99813809Y-84973390D01*
X99813809Y-84973390D02*
X99861428Y-85021009D01*
X99861428Y-85021009D02*
X99909047Y-85116247D01*
X99909047Y-85116247D02*
X99909047Y-85354342D01*
X99909047Y-85354342D02*
X99861428Y-85449580D01*
X99861428Y-85449580D02*
X99813809Y-85497200D01*
X99813809Y-85497200D02*
X99718571Y-85544819D01*
X99718571Y-85544819D02*
X99432857Y-85544819D01*
X99432857Y-85544819D02*
X99337619Y-85497200D01*
X99337619Y-85497200D02*
X99290000Y-85449580D01*
X100480476Y-84973390D02*
X100385238Y-84925771D01*
X100385238Y-84925771D02*
X100337619Y-84878152D01*
X100337619Y-84878152D02*
X100290000Y-84782914D01*
X100290000Y-84782914D02*
X100290000Y-84735295D01*
X100290000Y-84735295D02*
X100337619Y-84640057D01*
X100337619Y-84640057D02*
X100385238Y-84592438D01*
X100385238Y-84592438D02*
X100480476Y-84544819D01*
X100480476Y-84544819D02*
X100670952Y-84544819D01*
X100670952Y-84544819D02*
X100766190Y-84592438D01*
X100766190Y-84592438D02*
X100813809Y-84640057D01*
X100813809Y-84640057D02*
X100861428Y-84735295D01*
X100861428Y-84735295D02*
X100861428Y-84782914D01*
X100861428Y-84782914D02*
X100813809Y-84878152D01*
X100813809Y-84878152D02*
X100766190Y-84925771D01*
X100766190Y-84925771D02*
X100670952Y-84973390D01*
X100670952Y-84973390D02*
X100480476Y-84973390D01*
X100480476Y-84973390D02*
X100385238Y-85021009D01*
X100385238Y-85021009D02*
X100337619Y-85068628D01*
X100337619Y-85068628D02*
X100290000Y-85163866D01*
X100290000Y-85163866D02*
X100290000Y-85354342D01*
X100290000Y-85354342D02*
X100337619Y-85449580D01*
X100337619Y-85449580D02*
X100385238Y-85497200D01*
X100385238Y-85497200D02*
X100480476Y-85544819D01*
X100480476Y-85544819D02*
X100670952Y-85544819D01*
X100670952Y-85544819D02*
X100766190Y-85497200D01*
X100766190Y-85497200D02*
X100813809Y-85449580D01*
X100813809Y-85449580D02*
X100861428Y-85354342D01*
X100861428Y-85354342D02*
X100861428Y-85163866D01*
X100861428Y-85163866D02*
X100813809Y-85068628D01*
X100813809Y-85068628D02*
X100766190Y-85021009D01*
X100766190Y-85021009D02*
X100670952Y-84973390D01*
X166457333Y-77515819D02*
X166124000Y-77039628D01*
X165885905Y-77515819D02*
X165885905Y-76515819D01*
X165885905Y-76515819D02*
X166266857Y-76515819D01*
X166266857Y-76515819D02*
X166362095Y-76563438D01*
X166362095Y-76563438D02*
X166409714Y-76611057D01*
X166409714Y-76611057D02*
X166457333Y-76706295D01*
X166457333Y-76706295D02*
X166457333Y-76849152D01*
X166457333Y-76849152D02*
X166409714Y-76944390D01*
X166409714Y-76944390D02*
X166362095Y-76992009D01*
X166362095Y-76992009D02*
X166266857Y-77039628D01*
X166266857Y-77039628D02*
X165885905Y-77039628D01*
X166790667Y-76515819D02*
X167457333Y-76515819D01*
X167457333Y-76515819D02*
X167028762Y-77515819D01*
X118461333Y-98149580D02*
X118413714Y-98197200D01*
X118413714Y-98197200D02*
X118270857Y-98244819D01*
X118270857Y-98244819D02*
X118175619Y-98244819D01*
X118175619Y-98244819D02*
X118032762Y-98197200D01*
X118032762Y-98197200D02*
X117937524Y-98101961D01*
X117937524Y-98101961D02*
X117889905Y-98006723D01*
X117889905Y-98006723D02*
X117842286Y-97816247D01*
X117842286Y-97816247D02*
X117842286Y-97673390D01*
X117842286Y-97673390D02*
X117889905Y-97482914D01*
X117889905Y-97482914D02*
X117937524Y-97387676D01*
X117937524Y-97387676D02*
X118032762Y-97292438D01*
X118032762Y-97292438D02*
X118175619Y-97244819D01*
X118175619Y-97244819D02*
X118270857Y-97244819D01*
X118270857Y-97244819D02*
X118413714Y-97292438D01*
X118413714Y-97292438D02*
X118461333Y-97340057D01*
X119318476Y-97578152D02*
X119318476Y-98244819D01*
X119080381Y-97197200D02*
X118842286Y-97911485D01*
X118842286Y-97911485D02*
X119461333Y-97911485D01*
X83653333Y-79099580D02*
X83605714Y-79147200D01*
X83605714Y-79147200D02*
X83462857Y-79194819D01*
X83462857Y-79194819D02*
X83367619Y-79194819D01*
X83367619Y-79194819D02*
X83224762Y-79147200D01*
X83224762Y-79147200D02*
X83129524Y-79051961D01*
X83129524Y-79051961D02*
X83081905Y-78956723D01*
X83081905Y-78956723D02*
X83034286Y-78766247D01*
X83034286Y-78766247D02*
X83034286Y-78623390D01*
X83034286Y-78623390D02*
X83081905Y-78432914D01*
X83081905Y-78432914D02*
X83129524Y-78337676D01*
X83129524Y-78337676D02*
X83224762Y-78242438D01*
X83224762Y-78242438D02*
X83367619Y-78194819D01*
X83367619Y-78194819D02*
X83462857Y-78194819D01*
X83462857Y-78194819D02*
X83605714Y-78242438D01*
X83605714Y-78242438D02*
X83653333Y-78290057D01*
X84034286Y-78290057D02*
X84081905Y-78242438D01*
X84081905Y-78242438D02*
X84177143Y-78194819D01*
X84177143Y-78194819D02*
X84415238Y-78194819D01*
X84415238Y-78194819D02*
X84510476Y-78242438D01*
X84510476Y-78242438D02*
X84558095Y-78290057D01*
X84558095Y-78290057D02*
X84605714Y-78385295D01*
X84605714Y-78385295D02*
X84605714Y-78480533D01*
X84605714Y-78480533D02*
X84558095Y-78623390D01*
X84558095Y-78623390D02*
X83986667Y-79194819D01*
X83986667Y-79194819D02*
X84605714Y-79194819D01*
X112456666Y-55334819D02*
X112456666Y-56049104D01*
X112456666Y-56049104D02*
X112409047Y-56191961D01*
X112409047Y-56191961D02*
X112313809Y-56287200D01*
X112313809Y-56287200D02*
X112170952Y-56334819D01*
X112170952Y-56334819D02*
X112075714Y-56334819D01*
X112837619Y-55334819D02*
X113456666Y-55334819D01*
X113456666Y-55334819D02*
X113123333Y-55715771D01*
X113123333Y-55715771D02*
X113266190Y-55715771D01*
X113266190Y-55715771D02*
X113361428Y-55763390D01*
X113361428Y-55763390D02*
X113409047Y-55811009D01*
X113409047Y-55811009D02*
X113456666Y-55906247D01*
X113456666Y-55906247D02*
X113456666Y-56144342D01*
X113456666Y-56144342D02*
X113409047Y-56239580D01*
X113409047Y-56239580D02*
X113361428Y-56287200D01*
X113361428Y-56287200D02*
X113266190Y-56334819D01*
X113266190Y-56334819D02*
X112980476Y-56334819D01*
X112980476Y-56334819D02*
X112885238Y-56287200D01*
X112885238Y-56287200D02*
X112837619Y-56239580D01*
X166457333Y-89707819D02*
X166124000Y-89231628D01*
X165885905Y-89707819D02*
X165885905Y-88707819D01*
X165885905Y-88707819D02*
X166266857Y-88707819D01*
X166266857Y-88707819D02*
X166362095Y-88755438D01*
X166362095Y-88755438D02*
X166409714Y-88803057D01*
X166409714Y-88803057D02*
X166457333Y-88898295D01*
X166457333Y-88898295D02*
X166457333Y-89041152D01*
X166457333Y-89041152D02*
X166409714Y-89136390D01*
X166409714Y-89136390D02*
X166362095Y-89184009D01*
X166362095Y-89184009D02*
X166266857Y-89231628D01*
X166266857Y-89231628D02*
X165885905Y-89231628D01*
X167314476Y-89041152D02*
X167314476Y-89707819D01*
X167076381Y-88660200D02*
X166838286Y-89374485D01*
X166838286Y-89374485D02*
X167457333Y-89374485D01*
X86024819Y-74167904D02*
X86834342Y-74167904D01*
X86834342Y-74167904D02*
X86929580Y-74120285D01*
X86929580Y-74120285D02*
X86977200Y-74072666D01*
X86977200Y-74072666D02*
X87024819Y-73977428D01*
X87024819Y-73977428D02*
X87024819Y-73786952D01*
X87024819Y-73786952D02*
X86977200Y-73691714D01*
X86977200Y-73691714D02*
X86929580Y-73644095D01*
X86929580Y-73644095D02*
X86834342Y-73596476D01*
X86834342Y-73596476D02*
X86024819Y-73596476D01*
X86120057Y-73167904D02*
X86072438Y-73120285D01*
X86072438Y-73120285D02*
X86024819Y-73025047D01*
X86024819Y-73025047D02*
X86024819Y-72786952D01*
X86024819Y-72786952D02*
X86072438Y-72691714D01*
X86072438Y-72691714D02*
X86120057Y-72644095D01*
X86120057Y-72644095D02*
X86215295Y-72596476D01*
X86215295Y-72596476D02*
X86310533Y-72596476D01*
X86310533Y-72596476D02*
X86453390Y-72644095D01*
X86453390Y-72644095D02*
X87024819Y-73215523D01*
X87024819Y-73215523D02*
X87024819Y-72596476D01*
X94670952Y-72860819D02*
X95337618Y-72860819D01*
X95337618Y-72860819D02*
X94909047Y-73860819D01*
X96147142Y-73194152D02*
X96147142Y-73860819D01*
X95909047Y-72813200D02*
X95670952Y-73527485D01*
X95670952Y-73527485D02*
X96289999Y-73527485D01*
X97147142Y-73860819D02*
X96670952Y-73860819D01*
X96670952Y-73860819D02*
X96670952Y-72860819D01*
X97432857Y-73813200D02*
X97575714Y-73860819D01*
X97575714Y-73860819D02*
X97813809Y-73860819D01*
X97813809Y-73860819D02*
X97909047Y-73813200D01*
X97909047Y-73813200D02*
X97956666Y-73765580D01*
X97956666Y-73765580D02*
X98004285Y-73670342D01*
X98004285Y-73670342D02*
X98004285Y-73575104D01*
X98004285Y-73575104D02*
X97956666Y-73479866D01*
X97956666Y-73479866D02*
X97909047Y-73432247D01*
X97909047Y-73432247D02*
X97813809Y-73384628D01*
X97813809Y-73384628D02*
X97623333Y-73337009D01*
X97623333Y-73337009D02*
X97528095Y-73289390D01*
X97528095Y-73289390D02*
X97480476Y-73241771D01*
X97480476Y-73241771D02*
X97432857Y-73146533D01*
X97432857Y-73146533D02*
X97432857Y-73051295D01*
X97432857Y-73051295D02*
X97480476Y-72956057D01*
X97480476Y-72956057D02*
X97528095Y-72908438D01*
X97528095Y-72908438D02*
X97623333Y-72860819D01*
X97623333Y-72860819D02*
X97861428Y-72860819D01*
X97861428Y-72860819D02*
X98004285Y-72908438D01*
X98956666Y-73860819D02*
X98385238Y-73860819D01*
X98670952Y-73860819D02*
X98670952Y-72860819D01*
X98670952Y-72860819D02*
X98575714Y-73003676D01*
X98575714Y-73003676D02*
X98480476Y-73098914D01*
X98480476Y-73098914D02*
X98385238Y-73146533D01*
X99290000Y-72860819D02*
X99909047Y-72860819D01*
X99909047Y-72860819D02*
X99575714Y-73241771D01*
X99575714Y-73241771D02*
X99718571Y-73241771D01*
X99718571Y-73241771D02*
X99813809Y-73289390D01*
X99813809Y-73289390D02*
X99861428Y-73337009D01*
X99861428Y-73337009D02*
X99909047Y-73432247D01*
X99909047Y-73432247D02*
X99909047Y-73670342D01*
X99909047Y-73670342D02*
X99861428Y-73765580D01*
X99861428Y-73765580D02*
X99813809Y-73813200D01*
X99813809Y-73813200D02*
X99718571Y-73860819D01*
X99718571Y-73860819D02*
X99432857Y-73860819D01*
X99432857Y-73860819D02*
X99337619Y-73813200D01*
X99337619Y-73813200D02*
X99290000Y-73765580D01*
X100480476Y-73289390D02*
X100385238Y-73241771D01*
X100385238Y-73241771D02*
X100337619Y-73194152D01*
X100337619Y-73194152D02*
X100290000Y-73098914D01*
X100290000Y-73098914D02*
X100290000Y-73051295D01*
X100290000Y-73051295D02*
X100337619Y-72956057D01*
X100337619Y-72956057D02*
X100385238Y-72908438D01*
X100385238Y-72908438D02*
X100480476Y-72860819D01*
X100480476Y-72860819D02*
X100670952Y-72860819D01*
X100670952Y-72860819D02*
X100766190Y-72908438D01*
X100766190Y-72908438D02*
X100813809Y-72956057D01*
X100813809Y-72956057D02*
X100861428Y-73051295D01*
X100861428Y-73051295D02*
X100861428Y-73098914D01*
X100861428Y-73098914D02*
X100813809Y-73194152D01*
X100813809Y-73194152D02*
X100766190Y-73241771D01*
X100766190Y-73241771D02*
X100670952Y-73289390D01*
X100670952Y-73289390D02*
X100480476Y-73289390D01*
X100480476Y-73289390D02*
X100385238Y-73337009D01*
X100385238Y-73337009D02*
X100337619Y-73384628D01*
X100337619Y-73384628D02*
X100290000Y-73479866D01*
X100290000Y-73479866D02*
X100290000Y-73670342D01*
X100290000Y-73670342D02*
X100337619Y-73765580D01*
X100337619Y-73765580D02*
X100385238Y-73813200D01*
X100385238Y-73813200D02*
X100480476Y-73860819D01*
X100480476Y-73860819D02*
X100670952Y-73860819D01*
X100670952Y-73860819D02*
X100766190Y-73813200D01*
X100766190Y-73813200D02*
X100813809Y-73765580D01*
X100813809Y-73765580D02*
X100861428Y-73670342D01*
X100861428Y-73670342D02*
X100861428Y-73479866D01*
X100861428Y-73479866D02*
X100813809Y-73384628D01*
X100813809Y-73384628D02*
X100766190Y-73337009D01*
X100766190Y-73337009D02*
X100670952Y-73289390D01*
X166457333Y-73451819D02*
X166124000Y-72975628D01*
X165885905Y-73451819D02*
X165885905Y-72451819D01*
X165885905Y-72451819D02*
X166266857Y-72451819D01*
X166266857Y-72451819D02*
X166362095Y-72499438D01*
X166362095Y-72499438D02*
X166409714Y-72547057D01*
X166409714Y-72547057D02*
X166457333Y-72642295D01*
X166457333Y-72642295D02*
X166457333Y-72785152D01*
X166457333Y-72785152D02*
X166409714Y-72880390D01*
X166409714Y-72880390D02*
X166362095Y-72928009D01*
X166362095Y-72928009D02*
X166266857Y-72975628D01*
X166266857Y-72975628D02*
X165885905Y-72975628D01*
X167028762Y-72880390D02*
X166933524Y-72832771D01*
X166933524Y-72832771D02*
X166885905Y-72785152D01*
X166885905Y-72785152D02*
X166838286Y-72689914D01*
X166838286Y-72689914D02*
X166838286Y-72642295D01*
X166838286Y-72642295D02*
X166885905Y-72547057D01*
X166885905Y-72547057D02*
X166933524Y-72499438D01*
X166933524Y-72499438D02*
X167028762Y-72451819D01*
X167028762Y-72451819D02*
X167219238Y-72451819D01*
X167219238Y-72451819D02*
X167314476Y-72499438D01*
X167314476Y-72499438D02*
X167362095Y-72547057D01*
X167362095Y-72547057D02*
X167409714Y-72642295D01*
X167409714Y-72642295D02*
X167409714Y-72689914D01*
X167409714Y-72689914D02*
X167362095Y-72785152D01*
X167362095Y-72785152D02*
X167314476Y-72832771D01*
X167314476Y-72832771D02*
X167219238Y-72880390D01*
X167219238Y-72880390D02*
X167028762Y-72880390D01*
X167028762Y-72880390D02*
X166933524Y-72928009D01*
X166933524Y-72928009D02*
X166885905Y-72975628D01*
X166885905Y-72975628D02*
X166838286Y-73070866D01*
X166838286Y-73070866D02*
X166838286Y-73261342D01*
X166838286Y-73261342D02*
X166885905Y-73356580D01*
X166885905Y-73356580D02*
X166933524Y-73404200D01*
X166933524Y-73404200D02*
X167028762Y-73451819D01*
X167028762Y-73451819D02*
X167219238Y-73451819D01*
X167219238Y-73451819D02*
X167314476Y-73404200D01*
X167314476Y-73404200D02*
X167362095Y-73356580D01*
X167362095Y-73356580D02*
X167409714Y-73261342D01*
X167409714Y-73261342D02*
X167409714Y-73070866D01*
X167409714Y-73070866D02*
X167362095Y-72975628D01*
X167362095Y-72975628D02*
X167314476Y-72928009D01*
X167314476Y-72928009D02*
X167219238Y-72880390D01*
X153503333Y-91799580D02*
X153455714Y-91847200D01*
X153455714Y-91847200D02*
X153312857Y-91894819D01*
X153312857Y-91894819D02*
X153217619Y-91894819D01*
X153217619Y-91894819D02*
X153074762Y-91847200D01*
X153074762Y-91847200D02*
X152979524Y-91751961D01*
X152979524Y-91751961D02*
X152931905Y-91656723D01*
X152931905Y-91656723D02*
X152884286Y-91466247D01*
X152884286Y-91466247D02*
X152884286Y-91323390D01*
X152884286Y-91323390D02*
X152931905Y-91132914D01*
X152931905Y-91132914D02*
X152979524Y-91037676D01*
X152979524Y-91037676D02*
X153074762Y-90942438D01*
X153074762Y-90942438D02*
X153217619Y-90894819D01*
X153217619Y-90894819D02*
X153312857Y-90894819D01*
X153312857Y-90894819D02*
X153455714Y-90942438D01*
X153455714Y-90942438D02*
X153503333Y-90990057D01*
X154360476Y-90894819D02*
X154170000Y-90894819D01*
X154170000Y-90894819D02*
X154074762Y-90942438D01*
X154074762Y-90942438D02*
X154027143Y-90990057D01*
X154027143Y-90990057D02*
X153931905Y-91132914D01*
X153931905Y-91132914D02*
X153884286Y-91323390D01*
X153884286Y-91323390D02*
X153884286Y-91704342D01*
X153884286Y-91704342D02*
X153931905Y-91799580D01*
X153931905Y-91799580D02*
X153979524Y-91847200D01*
X153979524Y-91847200D02*
X154074762Y-91894819D01*
X154074762Y-91894819D02*
X154265238Y-91894819D01*
X154265238Y-91894819D02*
X154360476Y-91847200D01*
X154360476Y-91847200D02*
X154408095Y-91799580D01*
X154408095Y-91799580D02*
X154455714Y-91704342D01*
X154455714Y-91704342D02*
X154455714Y-91466247D01*
X154455714Y-91466247D02*
X154408095Y-91371009D01*
X154408095Y-91371009D02*
X154360476Y-91323390D01*
X154360476Y-91323390D02*
X154265238Y-91275771D01*
X154265238Y-91275771D02*
X154074762Y-91275771D01*
X154074762Y-91275771D02*
X153979524Y-91323390D01*
X153979524Y-91323390D02*
X153931905Y-91371009D01*
X153931905Y-91371009D02*
X153884286Y-91466247D01*
X83653333Y-67669580D02*
X83605714Y-67717200D01*
X83605714Y-67717200D02*
X83462857Y-67764819D01*
X83462857Y-67764819D02*
X83367619Y-67764819D01*
X83367619Y-67764819D02*
X83224762Y-67717200D01*
X83224762Y-67717200D02*
X83129524Y-67621961D01*
X83129524Y-67621961D02*
X83081905Y-67526723D01*
X83081905Y-67526723D02*
X83034286Y-67336247D01*
X83034286Y-67336247D02*
X83034286Y-67193390D01*
X83034286Y-67193390D02*
X83081905Y-67002914D01*
X83081905Y-67002914D02*
X83129524Y-66907676D01*
X83129524Y-66907676D02*
X83224762Y-66812438D01*
X83224762Y-66812438D02*
X83367619Y-66764819D01*
X83367619Y-66764819D02*
X83462857Y-66764819D01*
X83462857Y-66764819D02*
X83605714Y-66812438D01*
X83605714Y-66812438D02*
X83653333Y-66860057D01*
X84558095Y-66764819D02*
X84081905Y-66764819D01*
X84081905Y-66764819D02*
X84034286Y-67241009D01*
X84034286Y-67241009D02*
X84081905Y-67193390D01*
X84081905Y-67193390D02*
X84177143Y-67145771D01*
X84177143Y-67145771D02*
X84415238Y-67145771D01*
X84415238Y-67145771D02*
X84510476Y-67193390D01*
X84510476Y-67193390D02*
X84558095Y-67241009D01*
X84558095Y-67241009D02*
X84605714Y-67336247D01*
X84605714Y-67336247D02*
X84605714Y-67574342D01*
X84605714Y-67574342D02*
X84558095Y-67669580D01*
X84558095Y-67669580D02*
X84510476Y-67717200D01*
X84510476Y-67717200D02*
X84415238Y-67764819D01*
X84415238Y-67764819D02*
X84177143Y-67764819D01*
X84177143Y-67764819D02*
X84081905Y-67717200D01*
X84081905Y-67717200D02*
X84034286Y-67669580D01*
D11*
X73326666Y-100422419D02*
X73326666Y-101136704D01*
X73326666Y-101136704D02*
X73279047Y-101279561D01*
X73279047Y-101279561D02*
X73183809Y-101374800D01*
X73183809Y-101374800D02*
X73040952Y-101422419D01*
X73040952Y-101422419D02*
X72945714Y-101422419D01*
X74326666Y-101422419D02*
X73755238Y-101422419D01*
X74040952Y-101422419D02*
X74040952Y-100422419D01*
X74040952Y-100422419D02*
X73945714Y-100565276D01*
X73945714Y-100565276D02*
X73850476Y-100660514D01*
X73850476Y-100660514D02*
X73755238Y-100708133D01*
D10*
X86024819Y-62991904D02*
X86834342Y-62991904D01*
X86834342Y-62991904D02*
X86929580Y-62944285D01*
X86929580Y-62944285D02*
X86977200Y-62896666D01*
X86977200Y-62896666D02*
X87024819Y-62801428D01*
X87024819Y-62801428D02*
X87024819Y-62610952D01*
X87024819Y-62610952D02*
X86977200Y-62515714D01*
X86977200Y-62515714D02*
X86929580Y-62468095D01*
X86929580Y-62468095D02*
X86834342Y-62420476D01*
X86834342Y-62420476D02*
X86024819Y-62420476D01*
X87024819Y-61420476D02*
X87024819Y-61991904D01*
X87024819Y-61706190D02*
X86024819Y-61706190D01*
X86024819Y-61706190D02*
X86167676Y-61801428D01*
X86167676Y-61801428D02*
X86262914Y-61896666D01*
X86262914Y-61896666D02*
X86310533Y-61991904D01*
X93877143Y-61684819D02*
X94543809Y-61684819D01*
X94543809Y-61684819D02*
X94115238Y-62684819D01*
X95353333Y-62018152D02*
X95353333Y-62684819D01*
X95115238Y-61637200D02*
X94877143Y-62351485D01*
X94877143Y-62351485D02*
X95496190Y-62351485D01*
X96353333Y-62684819D02*
X95877143Y-62684819D01*
X95877143Y-62684819D02*
X95877143Y-61684819D01*
X96639048Y-62637200D02*
X96781905Y-62684819D01*
X96781905Y-62684819D02*
X97020000Y-62684819D01*
X97020000Y-62684819D02*
X97115238Y-62637200D01*
X97115238Y-62637200D02*
X97162857Y-62589580D01*
X97162857Y-62589580D02*
X97210476Y-62494342D01*
X97210476Y-62494342D02*
X97210476Y-62399104D01*
X97210476Y-62399104D02*
X97162857Y-62303866D01*
X97162857Y-62303866D02*
X97115238Y-62256247D01*
X97115238Y-62256247D02*
X97020000Y-62208628D01*
X97020000Y-62208628D02*
X96829524Y-62161009D01*
X96829524Y-62161009D02*
X96734286Y-62113390D01*
X96734286Y-62113390D02*
X96686667Y-62065771D01*
X96686667Y-62065771D02*
X96639048Y-61970533D01*
X96639048Y-61970533D02*
X96639048Y-61875295D01*
X96639048Y-61875295D02*
X96686667Y-61780057D01*
X96686667Y-61780057D02*
X96734286Y-61732438D01*
X96734286Y-61732438D02*
X96829524Y-61684819D01*
X96829524Y-61684819D02*
X97067619Y-61684819D01*
X97067619Y-61684819D02*
X97210476Y-61732438D01*
X97829524Y-61684819D02*
X97924762Y-61684819D01*
X97924762Y-61684819D02*
X98020000Y-61732438D01*
X98020000Y-61732438D02*
X98067619Y-61780057D01*
X98067619Y-61780057D02*
X98115238Y-61875295D01*
X98115238Y-61875295D02*
X98162857Y-62065771D01*
X98162857Y-62065771D02*
X98162857Y-62303866D01*
X98162857Y-62303866D02*
X98115238Y-62494342D01*
X98115238Y-62494342D02*
X98067619Y-62589580D01*
X98067619Y-62589580D02*
X98020000Y-62637200D01*
X98020000Y-62637200D02*
X97924762Y-62684819D01*
X97924762Y-62684819D02*
X97829524Y-62684819D01*
X97829524Y-62684819D02*
X97734286Y-62637200D01*
X97734286Y-62637200D02*
X97686667Y-62589580D01*
X97686667Y-62589580D02*
X97639048Y-62494342D01*
X97639048Y-62494342D02*
X97591429Y-62303866D01*
X97591429Y-62303866D02*
X97591429Y-62065771D01*
X97591429Y-62065771D02*
X97639048Y-61875295D01*
X97639048Y-61875295D02*
X97686667Y-61780057D01*
X97686667Y-61780057D02*
X97734286Y-61732438D01*
X97734286Y-61732438D02*
X97829524Y-61684819D01*
X98543810Y-61780057D02*
X98591429Y-61732438D01*
X98591429Y-61732438D02*
X98686667Y-61684819D01*
X98686667Y-61684819D02*
X98924762Y-61684819D01*
X98924762Y-61684819D02*
X99020000Y-61732438D01*
X99020000Y-61732438D02*
X99067619Y-61780057D01*
X99067619Y-61780057D02*
X99115238Y-61875295D01*
X99115238Y-61875295D02*
X99115238Y-61970533D01*
X99115238Y-61970533D02*
X99067619Y-62113390D01*
X99067619Y-62113390D02*
X98496191Y-62684819D01*
X98496191Y-62684819D02*
X99115238Y-62684819D01*
X165189819Y-64261904D02*
X165999342Y-64261904D01*
X165999342Y-64261904D02*
X166094580Y-64214285D01*
X166094580Y-64214285D02*
X166142200Y-64166666D01*
X166142200Y-64166666D02*
X166189819Y-64071428D01*
X166189819Y-64071428D02*
X166189819Y-63880952D01*
X166189819Y-63880952D02*
X166142200Y-63785714D01*
X166142200Y-63785714D02*
X166094580Y-63738095D01*
X166094580Y-63738095D02*
X165999342Y-63690476D01*
X165999342Y-63690476D02*
X165189819Y-63690476D01*
X165189819Y-62738095D02*
X165189819Y-63214285D01*
X165189819Y-63214285D02*
X165666009Y-63261904D01*
X165666009Y-63261904D02*
X165618390Y-63214285D01*
X165618390Y-63214285D02*
X165570771Y-63119047D01*
X165570771Y-63119047D02*
X165570771Y-62880952D01*
X165570771Y-62880952D02*
X165618390Y-62785714D01*
X165618390Y-62785714D02*
X165666009Y-62738095D01*
X165666009Y-62738095D02*
X165761247Y-62690476D01*
X165761247Y-62690476D02*
X165999342Y-62690476D01*
X165999342Y-62690476D02*
X166094580Y-62738095D01*
X166094580Y-62738095D02*
X166142200Y-62785714D01*
X166142200Y-62785714D02*
X166189819Y-62880952D01*
X166189819Y-62880952D02*
X166189819Y-63119047D01*
X166189819Y-63119047D02*
X166142200Y-63214285D01*
X166142200Y-63214285D02*
X166094580Y-63261904D01*
X120314819Y-93471904D02*
X121124342Y-93471904D01*
X121124342Y-93471904D02*
X121219580Y-93424285D01*
X121219580Y-93424285D02*
X121267200Y-93376666D01*
X121267200Y-93376666D02*
X121314819Y-93281428D01*
X121314819Y-93281428D02*
X121314819Y-93090952D01*
X121314819Y-93090952D02*
X121267200Y-92995714D01*
X121267200Y-92995714D02*
X121219580Y-92948095D01*
X121219580Y-92948095D02*
X121124342Y-92900476D01*
X121124342Y-92900476D02*
X120314819Y-92900476D01*
X120648152Y-91995714D02*
X121314819Y-91995714D01*
X120267200Y-92233809D02*
X120981485Y-92471904D01*
X120981485Y-92471904D02*
X120981485Y-91852857D01*
X131500952Y-92164819D02*
X132167618Y-92164819D01*
X132167618Y-92164819D02*
X131739047Y-93164819D01*
X132977142Y-92498152D02*
X132977142Y-93164819D01*
X132739047Y-92117200D02*
X132500952Y-92831485D01*
X132500952Y-92831485D02*
X133119999Y-92831485D01*
X133977142Y-93164819D02*
X133500952Y-93164819D01*
X133500952Y-93164819D02*
X133500952Y-92164819D01*
X134262857Y-93117200D02*
X134405714Y-93164819D01*
X134405714Y-93164819D02*
X134643809Y-93164819D01*
X134643809Y-93164819D02*
X134739047Y-93117200D01*
X134739047Y-93117200D02*
X134786666Y-93069580D01*
X134786666Y-93069580D02*
X134834285Y-92974342D01*
X134834285Y-92974342D02*
X134834285Y-92879104D01*
X134834285Y-92879104D02*
X134786666Y-92783866D01*
X134786666Y-92783866D02*
X134739047Y-92736247D01*
X134739047Y-92736247D02*
X134643809Y-92688628D01*
X134643809Y-92688628D02*
X134453333Y-92641009D01*
X134453333Y-92641009D02*
X134358095Y-92593390D01*
X134358095Y-92593390D02*
X134310476Y-92545771D01*
X134310476Y-92545771D02*
X134262857Y-92450533D01*
X134262857Y-92450533D02*
X134262857Y-92355295D01*
X134262857Y-92355295D02*
X134310476Y-92260057D01*
X134310476Y-92260057D02*
X134358095Y-92212438D01*
X134358095Y-92212438D02*
X134453333Y-92164819D01*
X134453333Y-92164819D02*
X134691428Y-92164819D01*
X134691428Y-92164819D02*
X134834285Y-92212438D01*
X135167619Y-92164819D02*
X135786666Y-92164819D01*
X135786666Y-92164819D02*
X135453333Y-92545771D01*
X135453333Y-92545771D02*
X135596190Y-92545771D01*
X135596190Y-92545771D02*
X135691428Y-92593390D01*
X135691428Y-92593390D02*
X135739047Y-92641009D01*
X135739047Y-92641009D02*
X135786666Y-92736247D01*
X135786666Y-92736247D02*
X135786666Y-92974342D01*
X135786666Y-92974342D02*
X135739047Y-93069580D01*
X135739047Y-93069580D02*
X135691428Y-93117200D01*
X135691428Y-93117200D02*
X135596190Y-93164819D01*
X135596190Y-93164819D02*
X135310476Y-93164819D01*
X135310476Y-93164819D02*
X135215238Y-93117200D01*
X135215238Y-93117200D02*
X135167619Y-93069580D01*
X136120000Y-92164819D02*
X136786666Y-92164819D01*
X136786666Y-92164819D02*
X136358095Y-93164819D01*
X137072381Y-92164819D02*
X137691428Y-92164819D01*
X137691428Y-92164819D02*
X137358095Y-92545771D01*
X137358095Y-92545771D02*
X137500952Y-92545771D01*
X137500952Y-92545771D02*
X137596190Y-92593390D01*
X137596190Y-92593390D02*
X137643809Y-92641009D01*
X137643809Y-92641009D02*
X137691428Y-92736247D01*
X137691428Y-92736247D02*
X137691428Y-92974342D01*
X137691428Y-92974342D02*
X137643809Y-93069580D01*
X137643809Y-93069580D02*
X137596190Y-93117200D01*
X137596190Y-93117200D02*
X137500952Y-93164819D01*
X137500952Y-93164819D02*
X137215238Y-93164819D01*
X137215238Y-93164819D02*
X137120000Y-93117200D01*
X137120000Y-93117200D02*
X137072381Y-93069580D01*
X166457333Y-93771819D02*
X166124000Y-93295628D01*
X165885905Y-93771819D02*
X165885905Y-92771819D01*
X165885905Y-92771819D02*
X166266857Y-92771819D01*
X166266857Y-92771819D02*
X166362095Y-92819438D01*
X166362095Y-92819438D02*
X166409714Y-92867057D01*
X166409714Y-92867057D02*
X166457333Y-92962295D01*
X166457333Y-92962295D02*
X166457333Y-93105152D01*
X166457333Y-93105152D02*
X166409714Y-93200390D01*
X166409714Y-93200390D02*
X166362095Y-93248009D01*
X166362095Y-93248009D02*
X166266857Y-93295628D01*
X166266857Y-93295628D02*
X165885905Y-93295628D01*
X166790667Y-92771819D02*
X167409714Y-92771819D01*
X167409714Y-92771819D02*
X167076381Y-93152771D01*
X167076381Y-93152771D02*
X167219238Y-93152771D01*
X167219238Y-93152771D02*
X167314476Y-93200390D01*
X167314476Y-93200390D02*
X167362095Y-93248009D01*
X167362095Y-93248009D02*
X167409714Y-93343247D01*
X167409714Y-93343247D02*
X167409714Y-93581342D01*
X167409714Y-93581342D02*
X167362095Y-93676580D01*
X167362095Y-93676580D02*
X167314476Y-93724200D01*
X167314476Y-93724200D02*
X167219238Y-93771819D01*
X167219238Y-93771819D02*
X166933524Y-93771819D01*
X166933524Y-93771819D02*
X166838286Y-93724200D01*
X166838286Y-93724200D02*
X166790667Y-93676580D01*
X111561666Y-86659819D02*
X111561666Y-87374104D01*
X111561666Y-87374104D02*
X111514047Y-87516961D01*
X111514047Y-87516961D02*
X111418809Y-87612200D01*
X111418809Y-87612200D02*
X111275952Y-87659819D01*
X111275952Y-87659819D02*
X111180714Y-87659819D01*
X112037857Y-87659819D02*
X112037857Y-86659819D01*
X112037857Y-86659819D02*
X112418809Y-86659819D01*
X112418809Y-86659819D02*
X112514047Y-86707438D01*
X112514047Y-86707438D02*
X112561666Y-86755057D01*
X112561666Y-86755057D02*
X112609285Y-86850295D01*
X112609285Y-86850295D02*
X112609285Y-86993152D01*
X112609285Y-86993152D02*
X112561666Y-87088390D01*
X112561666Y-87088390D02*
X112514047Y-87136009D01*
X112514047Y-87136009D02*
X112418809Y-87183628D01*
X112418809Y-87183628D02*
X112037857Y-87183628D01*
X113561666Y-87659819D02*
X112990238Y-87659819D01*
X113275952Y-87659819D02*
X113275952Y-86659819D01*
X113275952Y-86659819D02*
X113180714Y-86802676D01*
X113180714Y-86802676D02*
X113085476Y-86897914D01*
X113085476Y-86897914D02*
X112990238Y-86945533D01*
X109752142Y-97399819D02*
X109418809Y-96923628D01*
X109180714Y-97399819D02*
X109180714Y-96399819D01*
X109180714Y-96399819D02*
X109561666Y-96399819D01*
X109561666Y-96399819D02*
X109656904Y-96447438D01*
X109656904Y-96447438D02*
X109704523Y-96495057D01*
X109704523Y-96495057D02*
X109752142Y-96590295D01*
X109752142Y-96590295D02*
X109752142Y-96733152D01*
X109752142Y-96733152D02*
X109704523Y-96828390D01*
X109704523Y-96828390D02*
X109656904Y-96876009D01*
X109656904Y-96876009D02*
X109561666Y-96923628D01*
X109561666Y-96923628D02*
X109180714Y-96923628D01*
X110371190Y-96399819D02*
X110561666Y-96399819D01*
X110561666Y-96399819D02*
X110656904Y-96447438D01*
X110656904Y-96447438D02*
X110752142Y-96542676D01*
X110752142Y-96542676D02*
X110799761Y-96733152D01*
X110799761Y-96733152D02*
X110799761Y-97066485D01*
X110799761Y-97066485D02*
X110752142Y-97256961D01*
X110752142Y-97256961D02*
X110656904Y-97352200D01*
X110656904Y-97352200D02*
X110561666Y-97399819D01*
X110561666Y-97399819D02*
X110371190Y-97399819D01*
X110371190Y-97399819D02*
X110275952Y-97352200D01*
X110275952Y-97352200D02*
X110180714Y-97256961D01*
X110180714Y-97256961D02*
X110133095Y-97066485D01*
X110133095Y-97066485D02*
X110133095Y-96733152D01*
X110133095Y-96733152D02*
X110180714Y-96542676D01*
X110180714Y-96542676D02*
X110275952Y-96447438D01*
X110275952Y-96447438D02*
X110371190Y-96399819D01*
X111228333Y-97399819D02*
X111228333Y-96399819D01*
X111228333Y-96399819D02*
X111561666Y-97114104D01*
X111561666Y-97114104D02*
X111894999Y-96399819D01*
X111894999Y-96399819D02*
X111894999Y-97399819D01*
X113085476Y-97352200D02*
X113228333Y-97399819D01*
X113228333Y-97399819D02*
X113466428Y-97399819D01*
X113466428Y-97399819D02*
X113561666Y-97352200D01*
X113561666Y-97352200D02*
X113609285Y-97304580D01*
X113609285Y-97304580D02*
X113656904Y-97209342D01*
X113656904Y-97209342D02*
X113656904Y-97114104D01*
X113656904Y-97114104D02*
X113609285Y-97018866D01*
X113609285Y-97018866D02*
X113561666Y-96971247D01*
X113561666Y-96971247D02*
X113466428Y-96923628D01*
X113466428Y-96923628D02*
X113275952Y-96876009D01*
X113275952Y-96876009D02*
X113180714Y-96828390D01*
X113180714Y-96828390D02*
X113133095Y-96780771D01*
X113133095Y-96780771D02*
X113085476Y-96685533D01*
X113085476Y-96685533D02*
X113085476Y-96590295D01*
X113085476Y-96590295D02*
X113133095Y-96495057D01*
X113133095Y-96495057D02*
X113180714Y-96447438D01*
X113180714Y-96447438D02*
X113275952Y-96399819D01*
X113275952Y-96399819D02*
X113514047Y-96399819D01*
X113514047Y-96399819D02*
X113656904Y-96447438D01*
X114228333Y-97399819D02*
X114133095Y-97352200D01*
X114133095Y-97352200D02*
X114085476Y-97256961D01*
X114085476Y-97256961D02*
X114085476Y-96399819D01*
X114752143Y-97399819D02*
X114656905Y-97352200D01*
X114656905Y-97352200D02*
X114609286Y-97304580D01*
X114609286Y-97304580D02*
X114561667Y-97209342D01*
X114561667Y-97209342D02*
X114561667Y-96923628D01*
X114561667Y-96923628D02*
X114609286Y-96828390D01*
X114609286Y-96828390D02*
X114656905Y-96780771D01*
X114656905Y-96780771D02*
X114752143Y-96733152D01*
X114752143Y-96733152D02*
X114895000Y-96733152D01*
X114895000Y-96733152D02*
X114990238Y-96780771D01*
X114990238Y-96780771D02*
X115037857Y-96828390D01*
X115037857Y-96828390D02*
X115085476Y-96923628D01*
X115085476Y-96923628D02*
X115085476Y-97209342D01*
X115085476Y-97209342D02*
X115037857Y-97304580D01*
X115037857Y-97304580D02*
X114990238Y-97352200D01*
X114990238Y-97352200D02*
X114895000Y-97399819D01*
X114895000Y-97399819D02*
X114752143Y-97399819D01*
X115371191Y-96733152D02*
X115752143Y-96733152D01*
X115514048Y-96399819D02*
X115514048Y-97256961D01*
X115514048Y-97256961D02*
X115561667Y-97352200D01*
X115561667Y-97352200D02*
X115656905Y-97399819D01*
X115656905Y-97399819D02*
X115752143Y-97399819D01*
X102296666Y-103594819D02*
X102296666Y-104309104D01*
X102296666Y-104309104D02*
X102249047Y-104451961D01*
X102249047Y-104451961D02*
X102153809Y-104547200D01*
X102153809Y-104547200D02*
X102010952Y-104594819D01*
X102010952Y-104594819D02*
X101915714Y-104594819D01*
X103201428Y-103928152D02*
X103201428Y-104594819D01*
X102963333Y-103547200D02*
X102725238Y-104261485D01*
X102725238Y-104261485D02*
X103344285Y-104261485D01*
X83653333Y-90529580D02*
X83605714Y-90577200D01*
X83605714Y-90577200D02*
X83462857Y-90624819D01*
X83462857Y-90624819D02*
X83367619Y-90624819D01*
X83367619Y-90624819D02*
X83224762Y-90577200D01*
X83224762Y-90577200D02*
X83129524Y-90481961D01*
X83129524Y-90481961D02*
X83081905Y-90386723D01*
X83081905Y-90386723D02*
X83034286Y-90196247D01*
X83034286Y-90196247D02*
X83034286Y-90053390D01*
X83034286Y-90053390D02*
X83081905Y-89862914D01*
X83081905Y-89862914D02*
X83129524Y-89767676D01*
X83129524Y-89767676D02*
X83224762Y-89672438D01*
X83224762Y-89672438D02*
X83367619Y-89624819D01*
X83367619Y-89624819D02*
X83462857Y-89624819D01*
X83462857Y-89624819D02*
X83605714Y-89672438D01*
X83605714Y-89672438D02*
X83653333Y-89720057D01*
X83986667Y-89624819D02*
X84605714Y-89624819D01*
X84605714Y-89624819D02*
X84272381Y-90005771D01*
X84272381Y-90005771D02*
X84415238Y-90005771D01*
X84415238Y-90005771D02*
X84510476Y-90053390D01*
X84510476Y-90053390D02*
X84558095Y-90101009D01*
X84558095Y-90101009D02*
X84605714Y-90196247D01*
X84605714Y-90196247D02*
X84605714Y-90434342D01*
X84605714Y-90434342D02*
X84558095Y-90529580D01*
X84558095Y-90529580D02*
X84510476Y-90577200D01*
X84510476Y-90577200D02*
X84415238Y-90624819D01*
X84415238Y-90624819D02*
X84129524Y-90624819D01*
X84129524Y-90624819D02*
X84034286Y-90577200D01*
X84034286Y-90577200D02*
X83986667Y-90529580D01*
X166457333Y-81579819D02*
X166124000Y-81103628D01*
X165885905Y-81579819D02*
X165885905Y-80579819D01*
X165885905Y-80579819D02*
X166266857Y-80579819D01*
X166266857Y-80579819D02*
X166362095Y-80627438D01*
X166362095Y-80627438D02*
X166409714Y-80675057D01*
X166409714Y-80675057D02*
X166457333Y-80770295D01*
X166457333Y-80770295D02*
X166457333Y-80913152D01*
X166457333Y-80913152D02*
X166409714Y-81008390D01*
X166409714Y-81008390D02*
X166362095Y-81056009D01*
X166362095Y-81056009D02*
X166266857Y-81103628D01*
X166266857Y-81103628D02*
X165885905Y-81103628D01*
X167314476Y-80579819D02*
X167124000Y-80579819D01*
X167124000Y-80579819D02*
X167028762Y-80627438D01*
X167028762Y-80627438D02*
X166981143Y-80675057D01*
X166981143Y-80675057D02*
X166885905Y-80817914D01*
X166885905Y-80817914D02*
X166838286Y-81008390D01*
X166838286Y-81008390D02*
X166838286Y-81389342D01*
X166838286Y-81389342D02*
X166885905Y-81484580D01*
X166885905Y-81484580D02*
X166933524Y-81532200D01*
X166933524Y-81532200D02*
X167028762Y-81579819D01*
X167028762Y-81579819D02*
X167219238Y-81579819D01*
X167219238Y-81579819D02*
X167314476Y-81532200D01*
X167314476Y-81532200D02*
X167362095Y-81484580D01*
X167362095Y-81484580D02*
X167409714Y-81389342D01*
X167409714Y-81389342D02*
X167409714Y-81151247D01*
X167409714Y-81151247D02*
X167362095Y-81056009D01*
X167362095Y-81056009D02*
X167314476Y-81008390D01*
X167314476Y-81008390D02*
X167219238Y-80960771D01*
X167219238Y-80960771D02*
X167028762Y-80960771D01*
X167028762Y-80960771D02*
X166933524Y-81008390D01*
X166933524Y-81008390D02*
X166885905Y-81056009D01*
X166885905Y-81056009D02*
X166838286Y-81151247D01*
D12*
X86300000Y-105470000D02*
X86300000Y-104140000D01*
X87630000Y-105470000D02*
X86300000Y-105470000D01*
X88900000Y-105470000D02*
X91500000Y-105470000D01*
X88900000Y-105470000D02*
X88900000Y-102810000D01*
X91500000Y-105470000D02*
X91500000Y-102810000D01*
X88900000Y-102810000D02*
X91500000Y-102810000D01*
X159730000Y-99094000D02*
X159730000Y-99250000D01*
X159730000Y-101410000D02*
X159730000Y-101566000D01*
X162962334Y-99251392D02*
G75*
G03*
X159730001Y-99094485I-1672334J-1078608D01*
G01*
X162331129Y-99250164D02*
G75*
G03*
X160249040Y-99250001I-1041129J-1079836D01*
G01*
X160249040Y-101409999D02*
G75*
G03*
X162331129Y-101409836I1040960J1079999D01*
G01*
X159730001Y-101565515D02*
G75*
G03*
X162962334Y-101408608I1559999J1235515D01*
G01*
X175990000Y-98455000D02*
X169450000Y-98455000D01*
X175990000Y-98125000D02*
X175990000Y-98455000D01*
X175990000Y-96045000D02*
X175990000Y-95715000D01*
X175990000Y-95715000D02*
X169450000Y-95715000D01*
X169450000Y-98455000D02*
X169450000Y-98125000D01*
X169450000Y-95715000D02*
X169450000Y-96045000D01*
X175990000Y-86305000D02*
X169450000Y-86305000D01*
X175990000Y-85975000D02*
X175990000Y-86305000D01*
X175990000Y-83895000D02*
X175990000Y-83565000D01*
X175990000Y-83565000D02*
X169450000Y-83565000D01*
X169450000Y-86305000D02*
X169450000Y-85975000D01*
X169450000Y-83565000D02*
X169450000Y-83895000D01*
X159920000Y-94710000D02*
X159920000Y-88170000D01*
X160250000Y-94710000D02*
X159920000Y-94710000D01*
X162330000Y-94710000D02*
X162660000Y-94710000D01*
X162660000Y-94710000D02*
X162660000Y-88170000D01*
X159920000Y-88170000D02*
X160250000Y-88170000D01*
X162660000Y-88170000D02*
X162330000Y-88170000D01*
X87061000Y-100040241D02*
X87061000Y-99410241D01*
X86746000Y-99725241D02*
X87376000Y-99725241D01*
X85670000Y-96540000D02*
X92130000Y-96540000D01*
X85670000Y-96500000D02*
X92130000Y-96500000D01*
X85670000Y-96460000D02*
X92130000Y-96460000D01*
X85672000Y-96420000D02*
X92128000Y-96420000D01*
X85673000Y-96380000D02*
X92127000Y-96380000D01*
X85676000Y-96340000D02*
X92124000Y-96340000D01*
X85678000Y-96300000D02*
X87860000Y-96300000D01*
X89940000Y-96300000D02*
X92122000Y-96300000D01*
X85682000Y-96260000D02*
X87860000Y-96260000D01*
X89940000Y-96260000D02*
X92118000Y-96260000D01*
X85685000Y-96220000D02*
X87860000Y-96220000D01*
X89940000Y-96220000D02*
X92115000Y-96220000D01*
X85689000Y-96180000D02*
X87860000Y-96180000D01*
X89940000Y-96180000D02*
X92111000Y-96180000D01*
X85694000Y-96140000D02*
X87860000Y-96140000D01*
X89940000Y-96140000D02*
X92106000Y-96140000D01*
X85699000Y-96100000D02*
X87860000Y-96100000D01*
X89940000Y-96100000D02*
X92101000Y-96100000D01*
X85705000Y-96060000D02*
X87860000Y-96060000D01*
X89940000Y-96060000D02*
X92095000Y-96060000D01*
X85711000Y-96020000D02*
X87860000Y-96020000D01*
X89940000Y-96020000D02*
X92089000Y-96020000D01*
X85718000Y-95980000D02*
X87860000Y-95980000D01*
X89940000Y-95980000D02*
X92082000Y-95980000D01*
X85725000Y-95940000D02*
X87860000Y-95940000D01*
X89940000Y-95940000D02*
X92075000Y-95940000D01*
X85733000Y-95900000D02*
X87860000Y-95900000D01*
X89940000Y-95900000D02*
X92067000Y-95900000D01*
X85741000Y-95860000D02*
X87860000Y-95860000D01*
X89940000Y-95860000D02*
X92059000Y-95860000D01*
X85750000Y-95819000D02*
X87860000Y-95819000D01*
X89940000Y-95819000D02*
X92050000Y-95819000D01*
X85759000Y-95779000D02*
X87860000Y-95779000D01*
X89940000Y-95779000D02*
X92041000Y-95779000D01*
X85769000Y-95739000D02*
X87860000Y-95739000D01*
X89940000Y-95739000D02*
X92031000Y-95739000D01*
X85779000Y-95699000D02*
X87860000Y-95699000D01*
X89940000Y-95699000D02*
X92021000Y-95699000D01*
X85790000Y-95659000D02*
X87860000Y-95659000D01*
X89940000Y-95659000D02*
X92010000Y-95659000D01*
X85802000Y-95619000D02*
X87860000Y-95619000D01*
X89940000Y-95619000D02*
X91998000Y-95619000D01*
X85814000Y-95579000D02*
X87860000Y-95579000D01*
X89940000Y-95579000D02*
X91986000Y-95579000D01*
X85826000Y-95539000D02*
X87860000Y-95539000D01*
X89940000Y-95539000D02*
X91974000Y-95539000D01*
X85839000Y-95499000D02*
X87860000Y-95499000D01*
X89940000Y-95499000D02*
X91961000Y-95499000D01*
X85853000Y-95459000D02*
X87860000Y-95459000D01*
X89940000Y-95459000D02*
X91947000Y-95459000D01*
X85867000Y-95419000D02*
X87860000Y-95419000D01*
X89940000Y-95419000D02*
X91933000Y-95419000D01*
X85882000Y-95379000D02*
X87860000Y-95379000D01*
X89940000Y-95379000D02*
X91918000Y-95379000D01*
X85898000Y-95339000D02*
X87860000Y-95339000D01*
X89940000Y-95339000D02*
X91902000Y-95339000D01*
X85914000Y-95299000D02*
X87860000Y-95299000D01*
X89940000Y-95299000D02*
X91886000Y-95299000D01*
X85930000Y-95259000D02*
X87860000Y-95259000D01*
X89940000Y-95259000D02*
X91870000Y-95259000D01*
X85948000Y-95219000D02*
X87860000Y-95219000D01*
X89940000Y-95219000D02*
X91852000Y-95219000D01*
X85966000Y-95179000D02*
X87860000Y-95179000D01*
X89940000Y-95179000D02*
X91834000Y-95179000D01*
X85984000Y-95139000D02*
X87860000Y-95139000D01*
X89940000Y-95139000D02*
X91816000Y-95139000D01*
X86004000Y-95099000D02*
X87860000Y-95099000D01*
X89940000Y-95099000D02*
X91796000Y-95099000D01*
X86024000Y-95059000D02*
X87860000Y-95059000D01*
X89940000Y-95059000D02*
X91776000Y-95059000D01*
X86044000Y-95019000D02*
X87860000Y-95019000D01*
X89940000Y-95019000D02*
X91756000Y-95019000D01*
X86066000Y-94979000D02*
X87860000Y-94979000D01*
X89940000Y-94979000D02*
X91734000Y-94979000D01*
X86088000Y-94939000D02*
X87860000Y-94939000D01*
X89940000Y-94939000D02*
X91712000Y-94939000D01*
X86110000Y-94899000D02*
X87860000Y-94899000D01*
X89940000Y-94899000D02*
X91690000Y-94899000D01*
X86134000Y-94859000D02*
X87860000Y-94859000D01*
X89940000Y-94859000D02*
X91666000Y-94859000D01*
X86158000Y-94819000D02*
X87860000Y-94819000D01*
X89940000Y-94819000D02*
X91642000Y-94819000D01*
X86184000Y-94779000D02*
X87860000Y-94779000D01*
X89940000Y-94779000D02*
X91616000Y-94779000D01*
X86210000Y-94739000D02*
X87860000Y-94739000D01*
X89940000Y-94739000D02*
X91590000Y-94739000D01*
X86236000Y-94699000D02*
X87860000Y-94699000D01*
X89940000Y-94699000D02*
X91564000Y-94699000D01*
X86264000Y-94659000D02*
X87860000Y-94659000D01*
X89940000Y-94659000D02*
X91536000Y-94659000D01*
X86293000Y-94619000D02*
X87860000Y-94619000D01*
X89940000Y-94619000D02*
X91507000Y-94619000D01*
X86322000Y-94579000D02*
X87860000Y-94579000D01*
X89940000Y-94579000D02*
X91478000Y-94579000D01*
X86352000Y-94539000D02*
X87860000Y-94539000D01*
X89940000Y-94539000D02*
X91448000Y-94539000D01*
X86384000Y-94499000D02*
X87860000Y-94499000D01*
X89940000Y-94499000D02*
X91416000Y-94499000D01*
X86416000Y-94459000D02*
X87860000Y-94459000D01*
X89940000Y-94459000D02*
X91384000Y-94459000D01*
X86450000Y-94419000D02*
X87860000Y-94419000D01*
X89940000Y-94419000D02*
X91350000Y-94419000D01*
X86484000Y-94379000D02*
X87860000Y-94379000D01*
X89940000Y-94379000D02*
X91316000Y-94379000D01*
X86520000Y-94339000D02*
X87860000Y-94339000D01*
X89940000Y-94339000D02*
X91280000Y-94339000D01*
X86557000Y-94299000D02*
X87860000Y-94299000D01*
X89940000Y-94299000D02*
X91243000Y-94299000D01*
X86595000Y-94259000D02*
X87860000Y-94259000D01*
X89940000Y-94259000D02*
X91205000Y-94259000D01*
X86635000Y-94219000D02*
X91165000Y-94219000D01*
X86676000Y-94179000D02*
X91124000Y-94179000D01*
X86718000Y-94139000D02*
X91082000Y-94139000D01*
X86763000Y-94099000D02*
X91037000Y-94099000D01*
X86808000Y-94059000D02*
X90992000Y-94059000D01*
X86856000Y-94019000D02*
X90944000Y-94019000D01*
X86905000Y-93979000D02*
X90895000Y-93979000D01*
X86956000Y-93939000D02*
X90844000Y-93939000D01*
X87010000Y-93899000D02*
X90790000Y-93899000D01*
X87066000Y-93859000D02*
X90734000Y-93859000D01*
X87124000Y-93819000D02*
X90676000Y-93819000D01*
X87186000Y-93779000D02*
X90614000Y-93779000D01*
X87250000Y-93739000D02*
X90550000Y-93739000D01*
X87319000Y-93699000D02*
X90481000Y-93699000D01*
X87391000Y-93659000D02*
X90409000Y-93659000D01*
X87468000Y-93619000D02*
X90332000Y-93619000D01*
X87550000Y-93579000D02*
X90250000Y-93579000D01*
X87638000Y-93539000D02*
X90162000Y-93539000D01*
X87735000Y-93499000D02*
X90065000Y-93499000D01*
X87841000Y-93459000D02*
X89959000Y-93459000D01*
X87960000Y-93419000D02*
X89840000Y-93419000D01*
X88098000Y-93379000D02*
X89702000Y-93379000D01*
X88267000Y-93339000D02*
X89533000Y-93339000D01*
X88498000Y-93299000D02*
X89302000Y-93299000D01*
X92170000Y-96540000D02*
G75*
G03*
X85630000Y-96540000I-3270000J0D01*
G01*
X85630000Y-96540000D02*
G75*
G03*
X92170000Y-96540000I3270000J0D01*
G01*
X175990000Y-70345000D02*
X169450000Y-70345000D01*
X175990000Y-70015000D02*
X175990000Y-70345000D01*
X175990000Y-67935000D02*
X175990000Y-67605000D01*
X175990000Y-67605000D02*
X169450000Y-67605000D01*
X169450000Y-70345000D02*
X169450000Y-70015000D01*
X169450000Y-67605000D02*
X169450000Y-67935000D01*
X87570000Y-87740000D02*
X108010000Y-87740000D01*
X108010000Y-87740000D02*
X108010000Y-82440000D01*
X87570000Y-86090000D02*
X87570000Y-87740000D01*
X87570000Y-82440000D02*
X87570000Y-84090000D01*
X108010000Y-82440000D02*
X87570000Y-82440000D01*
X87570000Y-86090000D02*
G75*
G03*
X87570000Y-84090000I0J1000000D01*
G01*
X175990000Y-78445000D02*
X169450000Y-78445000D01*
X175990000Y-78115000D02*
X175990000Y-78445000D01*
X175990000Y-76035000D02*
X175990000Y-75705000D01*
X175990000Y-75705000D02*
X169450000Y-75705000D01*
X169450000Y-78445000D02*
X169450000Y-78115000D01*
X169450000Y-75705000D02*
X169450000Y-76035000D01*
X119998000Y-90130000D02*
X119683000Y-90130000D01*
X119998000Y-90130000D02*
X119998000Y-95370000D01*
X117573000Y-90130000D02*
X117258000Y-90130000D01*
X117258000Y-90130000D02*
X117258000Y-95370000D01*
X119998000Y-95370000D02*
X119683000Y-95370000D01*
X117573000Y-95370000D02*
X117258000Y-95370000D01*
X85190000Y-71080000D02*
X84875000Y-71080000D01*
X85190000Y-71080000D02*
X85190000Y-76320000D01*
X82765000Y-71080000D02*
X82450000Y-71080000D01*
X82450000Y-71080000D02*
X82450000Y-76320000D01*
X85190000Y-76320000D02*
X84875000Y-76320000D01*
X82765000Y-76320000D02*
X82450000Y-76320000D01*
X116830000Y-57210000D02*
X154990000Y-57210000D01*
X116830000Y-57210000D02*
X116830000Y-54550000D01*
X154990000Y-57210000D02*
X154990000Y-54550000D01*
X114230000Y-55880000D02*
X114230000Y-54550000D01*
X114230000Y-54550000D02*
X115560000Y-54550000D01*
X116830000Y-54550000D02*
X154990000Y-54550000D01*
X175990000Y-90355000D02*
X169450000Y-90355000D01*
X175990000Y-90025000D02*
X175990000Y-90355000D01*
X175990000Y-87945000D02*
X175990000Y-87615000D01*
X175990000Y-87615000D02*
X169450000Y-87615000D01*
X169450000Y-90355000D02*
X169450000Y-90025000D01*
X169450000Y-87615000D02*
X169450000Y-87945000D01*
X87570000Y-76056000D02*
X108010000Y-76056000D01*
X108010000Y-76056000D02*
X108010000Y-70756000D01*
X87570000Y-74406000D02*
X87570000Y-76056000D01*
X87570000Y-70756000D02*
X87570000Y-72406000D01*
X108010000Y-70756000D02*
X87570000Y-70756000D01*
X87570000Y-74406000D02*
G75*
G03*
X87570000Y-72406000I0J1000000D01*
G01*
X175990000Y-74395000D02*
X169450000Y-74395000D01*
X175990000Y-74065000D02*
X175990000Y-74395000D01*
X175990000Y-71985000D02*
X175990000Y-71655000D01*
X175990000Y-71655000D02*
X169450000Y-71655000D01*
X169450000Y-74395000D02*
X169450000Y-74065000D01*
X169450000Y-71655000D02*
X169450000Y-71985000D01*
X151090000Y-87530000D02*
X151090000Y-87845000D01*
X151090000Y-87530000D02*
X156330000Y-87530000D01*
X151090000Y-89955000D02*
X151090000Y-90270000D01*
X151090000Y-90270000D02*
X156330000Y-90270000D01*
X156330000Y-87530000D02*
X156330000Y-87845000D01*
X156330000Y-89955000D02*
X156330000Y-90270000D01*
X85190000Y-59650000D02*
X84875000Y-59650000D01*
X85190000Y-59650000D02*
X85190000Y-64890000D01*
X82765000Y-59650000D02*
X82450000Y-59650000D01*
X82450000Y-59650000D02*
X82450000Y-64890000D01*
X85190000Y-64890000D02*
X84875000Y-64890000D01*
X82765000Y-64890000D02*
X82450000Y-64890000D01*
X69790000Y-61154000D02*
X69790000Y-99374000D01*
X69790000Y-61154000D02*
X74870000Y-61154000D01*
X69790000Y-99374000D02*
X77470000Y-99374000D01*
X74870000Y-61154000D02*
X74870000Y-63754000D01*
X74870000Y-63754000D02*
X77470000Y-63754000D01*
X76140000Y-61154000D02*
X77470000Y-61154000D01*
X77470000Y-61154000D02*
X77470000Y-62484000D01*
X77470000Y-63754000D02*
X77470000Y-99374000D01*
X87570000Y-64880000D02*
X105470000Y-64880000D01*
X105470000Y-64880000D02*
X105470000Y-59580000D01*
X87570000Y-63230000D02*
X87570000Y-64880000D01*
X87570000Y-59580000D02*
X87570000Y-61230000D01*
X105470000Y-59580000D02*
X87570000Y-59580000D01*
X87570000Y-63230000D02*
G75*
G03*
X87570000Y-61230000I0J1000000D01*
G01*
X152390000Y-61090000D02*
X154930000Y-61090000D01*
X164320000Y-62110000D02*
X162460000Y-62110000D01*
X157560000Y-62110000D02*
X113720000Y-62110000D01*
X113720000Y-62110000D02*
X113720000Y-85210000D01*
X164320000Y-64390000D02*
X162060000Y-64390000D01*
X164320000Y-85210000D02*
X164320000Y-62110000D01*
X113720000Y-85210000D02*
X164320000Y-85210000D01*
X160910000Y-62840000D02*
G75*
G03*
X159110000Y-62840000I-900000J0D01*
G01*
X159110000Y-62840000D02*
G75*
G03*
X160910000Y-62840000I900000J0D01*
G01*
X162560000Y-62840000D02*
G75*
G03*
X157460000Y-62840000I-2550000J0D01*
G01*
X157460000Y-62840000D02*
G75*
G03*
X162560000Y-62840000I2550000J0D01*
G01*
X121860000Y-95360000D02*
X147380000Y-95360000D01*
X147380000Y-95360000D02*
X147380000Y-90060000D01*
X121860000Y-93710000D02*
X121860000Y-95360000D01*
X121860000Y-90060000D02*
X121860000Y-91710000D01*
X147380000Y-90060000D02*
X121860000Y-90060000D01*
X121860000Y-93710000D02*
G75*
G03*
X121860000Y-91710000I0J1000000D01*
G01*
X175990000Y-94405000D02*
X169450000Y-94405000D01*
X175990000Y-94075000D02*
X175990000Y-94405000D01*
X175990000Y-91995000D02*
X175990000Y-91665000D01*
X175990000Y-91665000D02*
X169450000Y-91665000D01*
X169450000Y-94405000D02*
X169450000Y-94075000D01*
X169450000Y-91665000D02*
X169450000Y-91995000D01*
X111065000Y-88205000D02*
X112395000Y-88205000D01*
X111065000Y-89535000D02*
X111065000Y-88205000D01*
X111065000Y-90805000D02*
X111065000Y-95945000D01*
X111065000Y-90805000D02*
X113725000Y-90805000D01*
X111065000Y-95945000D02*
X113725000Y-95945000D01*
X113725000Y-90805000D02*
X113725000Y-95945000D01*
X106670000Y-105470000D02*
X154990000Y-105470000D01*
X106670000Y-105470000D02*
X106670000Y-102810000D01*
X154990000Y-105470000D02*
X154990000Y-102810000D01*
X104070000Y-104140000D02*
X104070000Y-102810000D01*
X104070000Y-102810000D02*
X105400000Y-102810000D01*
X106670000Y-102810000D02*
X154990000Y-102810000D01*
X85190000Y-82430000D02*
X84875000Y-82430000D01*
X85190000Y-82430000D02*
X85190000Y-87670000D01*
X82765000Y-82430000D02*
X82450000Y-82430000D01*
X82450000Y-82430000D02*
X82450000Y-87670000D01*
X85190000Y-87670000D02*
X84875000Y-87670000D01*
X82765000Y-87670000D02*
X82450000Y-87670000D01*
X175990000Y-82495000D02*
X169450000Y-82495000D01*
X175990000Y-82165000D02*
X175990000Y-82495000D01*
X175990000Y-80085000D02*
X175990000Y-79755000D01*
X175990000Y-79755000D02*
X169450000Y-79755000D01*
X169450000Y-82495000D02*
X169450000Y-82165000D01*
X169450000Y-79755000D02*
X169450000Y-80085000D01*
M02*
