G04 #@! TF.GenerationSoftware,KiCad,Pcbnew,7.0.10-7.0.10~ubuntu22.04.1*
G04 #@! TF.CreationDate,2024-08-31T13:48:36+10:00*
G04 #@! TF.ProjectId,Cat_ROM_Cartridge,4361745f-524f-44d5-9f43-617274726964,rev?*
G04 #@! TF.SameCoordinates,Original*
G04 #@! TF.FileFunction,Copper,L4,Bot*
G04 #@! TF.FilePolarity,Positive*
%FSLAX46Y46*%
G04 Gerber Fmt 4.6, Leading zero omitted, Abs format (unit mm)*
G04 Created by KiCad (PCBNEW 7.0.10-7.0.10~ubuntu22.04.1) date 2024-08-31 13:48:36*
%MOMM*%
%LPD*%
G01*
G04 APERTURE LIST*
G04 #@! TA.AperFunction,ComponentPad*
%ADD10R,1.700000X1.700000*%
G04 #@! TD*
G04 #@! TA.AperFunction,ComponentPad*
%ADD11O,1.700000X1.700000*%
G04 #@! TD*
G04 #@! TA.AperFunction,ComponentPad*
%ADD12R,1.800000X1.800000*%
G04 #@! TD*
G04 #@! TA.AperFunction,ComponentPad*
%ADD13C,1.800000*%
G04 #@! TD*
G04 #@! TA.AperFunction,ComponentPad*
%ADD14C,1.600000*%
G04 #@! TD*
G04 #@! TA.AperFunction,ComponentPad*
%ADD15O,1.600000X1.600000*%
G04 #@! TD*
G04 #@! TA.AperFunction,ComponentPad*
%ADD16R,1.600000X1.600000*%
G04 #@! TD*
G04 #@! TA.AperFunction,ComponentPad*
%ADD17R,1.440000X2.000000*%
G04 #@! TD*
G04 #@! TA.AperFunction,ComponentPad*
%ADD18O,1.440000X2.000000*%
G04 #@! TD*
G04 #@! TA.AperFunction,ViaPad*
%ADD19C,0.800000*%
G04 #@! TD*
G04 #@! TA.AperFunction,Conductor*
%ADD20C,0.250000*%
G04 #@! TD*
G04 APERTURE END LIST*
D10*
X87630000Y-104140000D03*
D11*
X90170000Y-104140000D03*
D12*
X160020000Y-100330000D03*
D13*
X162560000Y-100330000D03*
D14*
X176530000Y-97085000D03*
D15*
X168910000Y-97085000D03*
D14*
X176530000Y-84935000D03*
D15*
X168910000Y-84935000D03*
D14*
X161290000Y-95250000D03*
D15*
X161290000Y-87630000D03*
D16*
X88900000Y-97790000D03*
D14*
X88900000Y-95290000D03*
X176530000Y-68975000D03*
D15*
X168910000Y-68975000D03*
D16*
X88900000Y-88900000D03*
D15*
X91440000Y-88900000D03*
X93980000Y-88900000D03*
X96520000Y-88900000D03*
X99060000Y-88900000D03*
X101600000Y-88900000D03*
X104140000Y-88900000D03*
X106680000Y-88900000D03*
X106680000Y-81280000D03*
X104140000Y-81280000D03*
X101600000Y-81280000D03*
X99060000Y-81280000D03*
X96520000Y-81280000D03*
X93980000Y-81280000D03*
X91440000Y-81280000D03*
X88900000Y-81280000D03*
D14*
X176530000Y-77075000D03*
D15*
X168910000Y-77075000D03*
D14*
X118628000Y-90250000D03*
X118628000Y-95250000D03*
X83820000Y-71200000D03*
X83820000Y-76200000D03*
D10*
X115560000Y-55880000D03*
D11*
X118100000Y-55880000D03*
X120640000Y-55880000D03*
X123180000Y-55880000D03*
X125720000Y-55880000D03*
X128260000Y-55880000D03*
X130800000Y-55880000D03*
X133340000Y-55880000D03*
X135880000Y-55880000D03*
X138420000Y-55880000D03*
X140960000Y-55880000D03*
X143500000Y-55880000D03*
X146040000Y-55880000D03*
X148580000Y-55880000D03*
X151120000Y-55880000D03*
X153660000Y-55880000D03*
D14*
X176530000Y-88985000D03*
D15*
X168910000Y-88985000D03*
D16*
X88900000Y-77216000D03*
D15*
X91440000Y-77216000D03*
X93980000Y-77216000D03*
X96520000Y-77216000D03*
X99060000Y-77216000D03*
X101600000Y-77216000D03*
X104140000Y-77216000D03*
X106680000Y-77216000D03*
X106680000Y-69596000D03*
X104140000Y-69596000D03*
X101600000Y-69596000D03*
X99060000Y-69596000D03*
X96520000Y-69596000D03*
X93980000Y-69596000D03*
X91440000Y-69596000D03*
X88900000Y-69596000D03*
D14*
X176530000Y-73025000D03*
D15*
X168910000Y-73025000D03*
D14*
X151210000Y-88900000D03*
X156210000Y-88900000D03*
X83820000Y-59770000D03*
X83820000Y-64770000D03*
D10*
X76200000Y-62484000D03*
D11*
X76200000Y-65024000D03*
X76200000Y-67564000D03*
X76200000Y-70104000D03*
X76200000Y-72644000D03*
X76200000Y-75184000D03*
X76200000Y-77724000D03*
X76200000Y-80264000D03*
X76200000Y-82804000D03*
X76200000Y-85344000D03*
X76200000Y-87884000D03*
X76200000Y-90424000D03*
X76200000Y-92964000D03*
X76200000Y-95504000D03*
X76200000Y-98044000D03*
X71120000Y-62484000D03*
X71120000Y-65024000D03*
X71120000Y-67564000D03*
X71120000Y-70104000D03*
X71120000Y-72644000D03*
X71120000Y-75184000D03*
X71120000Y-77724000D03*
X71120000Y-80264000D03*
X71120000Y-82804000D03*
X71120000Y-85344000D03*
X71120000Y-87884000D03*
X71120000Y-90424000D03*
X71120000Y-92964000D03*
X71120000Y-95504000D03*
X71120000Y-98044000D03*
D16*
X88900000Y-66040000D03*
D15*
X91440000Y-66040000D03*
X93980000Y-66040000D03*
X96520000Y-66040000D03*
X99060000Y-66040000D03*
X101600000Y-66040000D03*
X104140000Y-66040000D03*
X104140000Y-58420000D03*
X101600000Y-58420000D03*
X99060000Y-58420000D03*
X96520000Y-58420000D03*
X93980000Y-58420000D03*
X91440000Y-58420000D03*
X88900000Y-58420000D03*
D17*
X153660000Y-66040000D03*
D18*
X151120000Y-66040000D03*
X148580000Y-66040000D03*
X146040000Y-66040000D03*
X143500000Y-66040000D03*
X140960000Y-66040000D03*
X138420000Y-66040000D03*
X135880000Y-66040000D03*
X133340000Y-66040000D03*
X130800000Y-66040000D03*
X128260000Y-66040000D03*
X125720000Y-66040000D03*
X123180000Y-66040000D03*
X120640000Y-66040000D03*
X120640000Y-81280000D03*
X123180000Y-81280000D03*
X125720000Y-81280000D03*
X128260000Y-81280000D03*
X130800000Y-81280000D03*
X133340000Y-81280000D03*
X135880000Y-81280000D03*
X138420000Y-81280000D03*
X140960000Y-81280000D03*
X143500000Y-81280000D03*
X146040000Y-81280000D03*
X148580000Y-81280000D03*
X151120000Y-81280000D03*
X153660000Y-81280000D03*
D16*
X123190000Y-96520000D03*
D15*
X125730000Y-96520000D03*
X128270000Y-96520000D03*
X130810000Y-96520000D03*
X133350000Y-96520000D03*
X135890000Y-96520000D03*
X138430000Y-96520000D03*
X140970000Y-96520000D03*
X143510000Y-96520000D03*
X146050000Y-96520000D03*
X146050000Y-88900000D03*
X143510000Y-88900000D03*
X140970000Y-88900000D03*
X138430000Y-88900000D03*
X135890000Y-88900000D03*
X133350000Y-88900000D03*
X130810000Y-88900000D03*
X128270000Y-88900000D03*
X125730000Y-88900000D03*
X123190000Y-88900000D03*
D14*
X176530000Y-93035000D03*
D15*
X168910000Y-93035000D03*
D10*
X112395000Y-89535000D03*
D11*
X112395000Y-92075000D03*
X112395000Y-94615000D03*
D10*
X105400000Y-104140000D03*
D11*
X107940000Y-104140000D03*
X110480000Y-104140000D03*
X113020000Y-104140000D03*
X115560000Y-104140000D03*
X118100000Y-104140000D03*
X120640000Y-104140000D03*
X123180000Y-104140000D03*
X125720000Y-104140000D03*
X128260000Y-104140000D03*
X130800000Y-104140000D03*
X133340000Y-104140000D03*
X135880000Y-104140000D03*
X138420000Y-104140000D03*
X140960000Y-104140000D03*
X143500000Y-104140000D03*
X146040000Y-104140000D03*
X148580000Y-104140000D03*
X151120000Y-104140000D03*
X153660000Y-104140000D03*
D14*
X83820000Y-82550000D03*
X83820000Y-87550000D03*
X176530000Y-81125000D03*
D15*
X168910000Y-81125000D03*
D19*
X123577500Y-91041000D03*
X131102400Y-84273600D03*
X124795000Y-101024000D03*
X98279600Y-61650600D03*
X102742900Y-70872500D03*
X100220300Y-70426400D03*
X98750500Y-63282600D03*
X128924800Y-83355100D03*
X95639900Y-60906400D03*
X103151500Y-62666700D03*
X124553300Y-90569700D03*
X104712400Y-72872600D03*
X114314600Y-90295700D03*
X99854800Y-71611900D03*
X116994800Y-84627700D03*
X128908900Y-84627700D03*
X98675600Y-84461400D03*
X117735700Y-87911200D03*
X137693000Y-84456200D03*
X138583800Y-82887800D03*
X130369800Y-85425500D03*
X119892700Y-92096600D03*
X92795800Y-80481600D03*
D20*
X160020000Y-96520000D02*
X160020000Y-100330000D01*
X161290000Y-95250000D02*
X160020000Y-96520000D01*
X130810000Y-88900000D02*
X130810000Y-87773100D01*
X127774500Y-105329200D02*
X126905800Y-104460500D01*
X133340000Y-104140000D02*
X132163100Y-104140000D01*
X131291900Y-105329200D02*
X127774500Y-105329200D01*
X123302800Y-98729000D02*
X122055100Y-97481300D01*
X132163100Y-104140000D02*
X132163100Y-104458000D01*
X128167500Y-82699400D02*
X128167500Y-85130600D01*
X122055100Y-92563400D02*
X123577500Y-91041000D01*
X122055100Y-97481300D02*
X122055100Y-92563400D01*
X132163100Y-104458000D02*
X131291900Y-105329200D01*
X128260000Y-82606900D02*
X128167500Y-82699400D01*
X126905800Y-102089500D02*
X123545300Y-98729000D01*
X126905800Y-104460500D02*
X126905800Y-102089500D01*
X128167500Y-85130600D02*
X130810000Y-87773100D01*
X123545300Y-98729000D02*
X123302800Y-98729000D01*
X128260000Y-81280000D02*
X128260000Y-82606900D01*
X130800000Y-83971200D02*
X131102400Y-84273600D01*
X130800000Y-82606900D02*
X130800000Y-83971200D01*
X129540000Y-96843800D02*
X129540000Y-91296900D01*
X130800000Y-81280000D02*
X130800000Y-82606900D01*
X135659300Y-102963100D02*
X129540000Y-96843800D01*
X135880000Y-102963100D02*
X135659300Y-102963100D01*
X135880000Y-104140000D02*
X135880000Y-102963100D01*
X129540000Y-91296900D02*
X128270000Y-90026900D01*
X128270000Y-88900000D02*
X128270000Y-90026900D01*
X121554500Y-97783500D02*
X121554500Y-88098900D01*
X124795000Y-101024000D02*
X121554500Y-97783500D01*
X121554500Y-88098900D02*
X121910000Y-87743400D01*
X121910000Y-87743400D02*
X121910000Y-69585500D01*
X121910000Y-69585500D02*
X124673100Y-66822400D01*
X124673100Y-66822400D02*
X124673100Y-66040000D01*
X125720000Y-66040000D02*
X124673100Y-66040000D01*
X121075200Y-98332100D02*
X121075200Y-83042100D01*
X121075200Y-83042100D02*
X120640000Y-82606900D01*
X125720000Y-102963100D02*
X125706200Y-102963100D01*
X120640000Y-81280000D02*
X120640000Y-82606900D01*
X125706200Y-102963100D02*
X121075200Y-98332100D01*
X125720000Y-104140000D02*
X125720000Y-102963100D01*
X121551400Y-61062300D02*
X116736900Y-56247800D01*
X93142400Y-55058800D02*
X113561900Y-55058800D01*
X115560000Y-55880000D02*
X114383100Y-55880000D01*
X81201800Y-63543000D02*
X85370700Y-63543000D01*
X78500700Y-66244100D02*
X81201800Y-63543000D01*
X73845400Y-73821700D02*
X70578700Y-73821700D01*
X71750200Y-68834000D02*
X74340100Y-66244100D01*
X115560000Y-55880000D02*
X116736900Y-55880000D01*
X129753100Y-66040000D02*
X129753100Y-65745600D01*
X75023100Y-72644000D02*
X73845400Y-73821700D01*
X129753100Y-65745600D02*
X125069800Y-61062300D01*
X130800000Y-66040000D02*
X129753100Y-66040000D01*
X70578700Y-73821700D02*
X69930000Y-73173000D01*
X70675800Y-68834000D02*
X71750200Y-68834000D01*
X116736900Y-56247800D02*
X116736900Y-55880000D01*
X74340100Y-66244100D02*
X78500700Y-66244100D01*
X69930000Y-73173000D02*
X69930000Y-69579800D01*
X90026900Y-58886800D02*
X90026900Y-58174300D01*
X76200000Y-72644000D02*
X75023100Y-72644000D01*
X90026900Y-58174300D02*
X93142400Y-55058800D01*
X85370700Y-63543000D02*
X90026900Y-58886800D01*
X125069800Y-61062300D02*
X121551400Y-61062300D01*
X113561900Y-55058800D02*
X114383100Y-55880000D01*
X69930000Y-69579800D02*
X70675800Y-68834000D01*
X131196500Y-58005400D02*
X134712900Y-58005400D01*
X97799900Y-62130300D02*
X98279600Y-61650600D01*
X76200000Y-75184000D02*
X77263500Y-75184000D01*
X90102300Y-62130300D02*
X97799900Y-62130300D01*
X134712900Y-58005400D02*
X142453100Y-65745600D01*
X128260000Y-55880000D02*
X129436900Y-55880000D01*
X78850900Y-75184000D02*
X78850900Y-73381700D01*
X142453100Y-65745600D02*
X142453100Y-66040000D01*
X129436900Y-56245800D02*
X131196500Y-58005400D01*
X143500000Y-66040000D02*
X142453100Y-66040000D01*
X91440000Y-88900000D02*
X91440000Y-87773100D01*
X78850900Y-73381700D02*
X90102300Y-62130300D01*
X77263500Y-75184000D02*
X78850900Y-75184000D01*
X129436900Y-55880000D02*
X129436900Y-56245800D01*
X78850900Y-75184000D02*
X91440000Y-87773100D01*
X99060000Y-77216000D02*
X99060000Y-76089100D01*
X99060000Y-76089100D02*
X102742900Y-72406200D01*
X102742900Y-72406200D02*
X102742900Y-70872500D01*
X94231500Y-76089100D02*
X99894200Y-70426400D01*
X99894200Y-70426400D02*
X100220300Y-70426400D01*
X93980000Y-77216000D02*
X93980000Y-76089100D01*
X93980000Y-76089100D02*
X94231500Y-76089100D01*
X98144500Y-63888600D02*
X98750500Y-63282600D01*
X90026900Y-74962200D02*
X90026900Y-65825900D01*
X90026900Y-65825900D02*
X91964200Y-63888600D01*
X88900000Y-76089100D02*
X90026900Y-74962200D01*
X88900000Y-77216000D02*
X88900000Y-76089100D01*
X91964200Y-63888600D02*
X98144500Y-63888600D01*
X145295600Y-66069700D02*
X143998400Y-67366900D01*
X142950400Y-67366900D02*
X129753100Y-80564200D01*
X129753100Y-80564200D02*
X129753100Y-82526800D01*
X145486900Y-66069700D02*
X145295600Y-66069700D01*
X136690400Y-57464500D02*
X133195600Y-57464500D01*
X145295600Y-66069700D02*
X136690400Y-57464500D01*
X131976900Y-56245800D02*
X131976900Y-55880000D01*
X143998400Y-67366900D02*
X142950400Y-67366900D01*
X145516600Y-66040000D02*
X145486900Y-66069700D01*
X129753100Y-82526800D02*
X128924800Y-83355100D01*
X130800000Y-55880000D02*
X131976900Y-55880000D01*
X133195600Y-57464500D02*
X131976900Y-56245800D01*
X146040000Y-66040000D02*
X145516600Y-66040000D01*
X129591500Y-58940400D02*
X126896900Y-56245800D01*
X139913100Y-65745600D02*
X133107900Y-58940400D01*
X133107900Y-58940400D02*
X129591500Y-58940400D01*
X140960000Y-66040000D02*
X139913100Y-66040000D01*
X76200000Y-87884000D02*
X77376900Y-87884000D01*
X139913100Y-66040000D02*
X139913100Y-65745600D01*
X77376900Y-87884000D02*
X78392900Y-88900000D01*
X125720000Y-55880000D02*
X126896900Y-55880000D01*
X126896900Y-56245800D02*
X126896900Y-55880000D01*
X78392900Y-88900000D02*
X88900000Y-88900000D01*
X90076000Y-61481200D02*
X95065100Y-61481200D01*
X75014200Y-74688700D02*
X75788900Y-73914000D01*
X75788900Y-73914000D02*
X77643200Y-73914000D01*
X125978000Y-57800200D02*
X128392500Y-60214700D01*
X76200000Y-90424000D02*
X76200000Y-89247100D01*
X128392500Y-60214700D02*
X131842200Y-60214700D01*
X124356900Y-55880000D02*
X124356900Y-56181300D01*
X137373100Y-65745600D02*
X137373100Y-66040000D01*
X76200000Y-89247100D02*
X75834200Y-89247100D01*
X77643200Y-73914000D02*
X90076000Y-61481200D01*
X123180000Y-55880000D02*
X124356900Y-55880000D01*
X138420000Y-66040000D02*
X137373100Y-66040000D01*
X95065100Y-61481200D02*
X95639900Y-60906400D01*
X131842200Y-60214700D02*
X137373100Y-65745600D01*
X124356900Y-56181300D02*
X125975800Y-57800200D01*
X75014200Y-88427100D02*
X75014200Y-74688700D01*
X75834200Y-89247100D02*
X75014200Y-88427100D01*
X125975800Y-57800200D02*
X125978000Y-57800200D01*
X97987000Y-63018200D02*
X98459700Y-62545500D01*
X89418300Y-92549900D02*
X77791000Y-92549900D01*
X92604100Y-84085400D02*
X92604100Y-89364100D01*
X89887300Y-78356300D02*
X90313100Y-77930500D01*
X87769900Y-65106200D02*
X89857900Y-63018200D01*
X89887300Y-78356300D02*
X87957100Y-78356300D01*
X92604100Y-89364100D02*
X89418300Y-92549900D01*
X77791000Y-92549900D02*
X77376900Y-92964000D01*
X87769900Y-78169100D02*
X87769900Y-65106200D01*
X90170000Y-78639000D02*
X90170000Y-81651300D01*
X87957100Y-78356300D02*
X87769900Y-78169100D01*
X89887300Y-78356300D02*
X90170000Y-78639000D01*
X76200000Y-92964000D02*
X77376900Y-92964000D01*
X91440000Y-77216000D02*
X90313100Y-77216000D01*
X90170000Y-81651300D02*
X92604100Y-84085400D01*
X89857900Y-63018200D02*
X97987000Y-63018200D01*
X98459700Y-62545500D02*
X103030300Y-62545500D01*
X90313100Y-77930500D02*
X90313100Y-77216000D01*
X103030300Y-62545500D02*
X103151500Y-62666700D01*
X130800000Y-104140000D02*
X130800000Y-102963100D01*
X130800000Y-102963100D02*
X126916200Y-99079300D01*
X124538700Y-81414400D02*
X124673100Y-81280000D01*
X126916200Y-99079300D02*
X126916200Y-91873500D01*
X124538700Y-89496000D02*
X124538700Y-81414400D01*
X126916200Y-91873500D02*
X124538700Y-89496000D01*
X125720000Y-81280000D02*
X124673100Y-81280000D01*
X127141300Y-90637600D02*
X127141300Y-66111800D01*
X127141300Y-66111800D02*
X127213100Y-66040000D01*
X128260000Y-66040000D02*
X127213100Y-66040000D01*
X128270000Y-96520000D02*
X128270000Y-91766300D01*
X128270000Y-91766300D02*
X127141300Y-90637600D01*
X124553300Y-90569700D02*
X124297700Y-90314100D01*
X122986700Y-90314100D02*
X122063100Y-89390500D01*
X128260000Y-104140000D02*
X128260000Y-102963100D01*
X128260000Y-102963100D02*
X128260000Y-101620500D01*
X123180000Y-87112500D02*
X123180000Y-81280000D01*
X122063100Y-88229400D02*
X123180000Y-87112500D01*
X124297700Y-90314100D02*
X122986700Y-90314100D01*
X128260000Y-101620500D02*
X124553300Y-97913800D01*
X122063100Y-89390500D02*
X122063100Y-88229400D01*
X124553300Y-97913800D02*
X124553300Y-90569700D01*
X120621500Y-83825300D02*
X119550200Y-82754000D01*
X123180000Y-102963100D02*
X120621500Y-100404600D01*
X91946100Y-59546900D02*
X90636900Y-59546900D01*
X119550200Y-69669800D02*
X122133100Y-67086900D01*
X119550200Y-82754000D02*
X119550200Y-69669800D01*
X90636900Y-59546900D02*
X81349900Y-68833900D01*
X120621500Y-100404600D02*
X120621500Y-83825300D01*
X92710000Y-58020700D02*
X92710000Y-58783000D01*
X123180000Y-104140000D02*
X123180000Y-102963100D01*
X117064800Y-69669800D02*
X104210600Y-56815600D01*
X73567000Y-68833900D02*
X72296900Y-70104000D01*
X93915100Y-56815600D02*
X92710000Y-58020700D01*
X122133100Y-67086900D02*
X122133100Y-66040000D01*
X123180000Y-66040000D02*
X122133100Y-66040000D01*
X119550200Y-69669800D02*
X117064800Y-69669800D01*
X92710000Y-58783000D02*
X91946100Y-59546900D01*
X71120000Y-70104000D02*
X72296900Y-70104000D01*
X104210600Y-56815600D02*
X93915100Y-56815600D01*
X81349900Y-68833900D02*
X73567000Y-68833900D01*
X89858600Y-61029200D02*
X94452700Y-61029200D01*
X96600400Y-59997300D02*
X97790000Y-58807700D01*
X98593300Y-57290500D02*
X100470500Y-57290500D01*
X79589600Y-71298200D02*
X89858600Y-61029200D01*
X94452700Y-61029200D02*
X95484600Y-59997300D01*
X100470500Y-57290500D02*
X101600000Y-58420000D01*
X73642700Y-71298200D02*
X79589600Y-71298200D01*
X95484600Y-59997300D02*
X96600400Y-59997300D01*
X97790000Y-58093800D02*
X98593300Y-57290500D01*
X97790000Y-58807700D02*
X97790000Y-58093800D01*
X72296900Y-72644000D02*
X73642700Y-71298200D01*
X71120000Y-72644000D02*
X72296900Y-72644000D01*
X131506100Y-63968400D02*
X125789900Y-58252200D01*
X134833100Y-66040000D02*
X134833100Y-65745600D01*
X121816900Y-56245800D02*
X121816900Y-55880000D01*
X133055900Y-63968400D02*
X131506100Y-63968400D01*
X120640000Y-55880000D02*
X121816900Y-55880000D01*
X135880000Y-66040000D02*
X134833100Y-66040000D01*
X125789900Y-58252200D02*
X123823300Y-58252200D01*
X123823300Y-58252200D02*
X121816900Y-56245800D01*
X134833100Y-65745600D02*
X133055900Y-63968400D01*
X126155200Y-59607700D02*
X122638800Y-59607700D01*
X91068600Y-54606900D02*
X84423100Y-61252400D01*
X132293100Y-66040000D02*
X132293100Y-65745600D01*
X118100000Y-55880000D02*
X118569300Y-55880000D01*
X69449000Y-67509700D02*
X69449000Y-75241900D01*
X75569900Y-63753900D02*
X72936700Y-66387100D01*
X78976800Y-63753900D02*
X75569900Y-63753900D01*
X70754200Y-76547100D02*
X71120000Y-76547100D01*
X118688500Y-55880000D02*
X119276900Y-55880000D01*
X118569300Y-55880000D02*
X117296200Y-54606900D01*
X69449000Y-75241900D02*
X70754200Y-76547100D01*
X72936700Y-66387100D02*
X70571600Y-66387100D01*
X118688500Y-55880000D02*
X118569300Y-55880000D01*
X133340000Y-66040000D02*
X132293100Y-66040000D01*
X132293100Y-65745600D02*
X126155200Y-59607700D01*
X117296200Y-54606900D02*
X91068600Y-54606900D01*
X119276900Y-56245800D02*
X119276900Y-55880000D01*
X81478300Y-61252400D02*
X78976800Y-63753900D01*
X71120000Y-77724000D02*
X71120000Y-76547100D01*
X84423100Y-61252400D02*
X81478300Y-61252400D01*
X70571600Y-66387100D02*
X69449000Y-67509700D01*
X122638800Y-59607700D02*
X119276900Y-56245800D01*
X104712400Y-72976700D02*
X104712400Y-72872600D01*
X101600000Y-76089100D02*
X104712400Y-72976700D01*
X101600000Y-77216000D02*
X101600000Y-76089100D01*
X102726900Y-66530900D02*
X102726900Y-66040000D01*
X114314600Y-90295700D02*
X114314600Y-79055900D01*
X105410000Y-69214000D02*
X102726900Y-66530900D01*
X114314600Y-79055900D02*
X105410000Y-70151300D01*
X121910000Y-104602100D02*
X121910000Y-103582700D01*
X138420000Y-104140000D02*
X137243100Y-104140000D01*
X101600000Y-66040000D02*
X102726900Y-66040000D01*
X121910000Y-103582700D02*
X114314600Y-95987300D01*
X105410000Y-70151300D02*
X105410000Y-69214000D01*
X137243100Y-104140000D02*
X137243100Y-104507800D01*
X114314600Y-95987300D02*
X114314600Y-90295700D01*
X135937000Y-105813900D02*
X123121800Y-105813900D01*
X123121800Y-105813900D02*
X121910000Y-104602100D01*
X137243100Y-104507800D02*
X135937000Y-105813900D01*
X89097400Y-93189100D02*
X91308800Y-93189100D01*
X91308800Y-93189100D02*
X95250000Y-89247900D01*
X72296900Y-92964000D02*
X73501600Y-94168700D01*
X88117800Y-94168700D02*
X89097400Y-93189100D01*
X73501600Y-94168700D02*
X88117800Y-94168700D01*
X95250000Y-89247900D02*
X95250000Y-78767700D01*
X96520000Y-74946700D02*
X99854800Y-71611900D01*
X96520000Y-77216000D02*
X96520000Y-74946700D01*
X71120000Y-92964000D02*
X72296900Y-92964000D01*
X96520000Y-77356800D02*
X96520000Y-77216000D01*
X96520000Y-77356800D02*
X96520000Y-77497700D01*
X95250000Y-78767700D02*
X96520000Y-77497700D01*
X139783100Y-103772100D02*
X138974100Y-102963100D01*
X96520000Y-66040000D02*
X97646900Y-66040000D01*
X104615400Y-64902700D02*
X115366300Y-75653600D01*
X131290400Y-87494200D02*
X128908900Y-85112700D01*
X139783100Y-104140000D02*
X139783100Y-103772100D01*
X115366300Y-82999200D02*
X116994800Y-84627700D01*
X132205800Y-87494200D02*
X131290400Y-87494200D01*
X97646900Y-66040000D02*
X97646900Y-65758300D01*
X138974100Y-102963100D02*
X138141800Y-102963100D01*
X98502500Y-64902700D02*
X104615400Y-64902700D01*
X138141800Y-102963100D02*
X132205800Y-97027100D01*
X115366300Y-75653600D02*
X115366300Y-82999200D01*
X128908900Y-85112700D02*
X128908900Y-84627700D01*
X132205800Y-87494200D02*
X138420000Y-81280000D01*
X97646900Y-65758300D02*
X98502500Y-64902700D01*
X140960000Y-104140000D02*
X139783100Y-104140000D01*
X132205800Y-97027100D02*
X132205800Y-87494200D01*
X110480000Y-102963100D02*
X100209200Y-92692300D01*
X110480000Y-104140000D02*
X110480000Y-102963100D01*
X100209200Y-85995000D02*
X98675600Y-84461400D01*
X100209200Y-92692300D02*
X100209200Y-85995000D01*
X113020000Y-102963100D02*
X105410000Y-95353100D01*
X101600000Y-81280000D02*
X101600000Y-82406900D01*
X113020000Y-104140000D02*
X113020000Y-102963100D01*
X105410000Y-86216900D02*
X101600000Y-82406900D01*
X105410000Y-95353100D02*
X105410000Y-86216900D01*
X109512500Y-96915600D02*
X109512500Y-87779400D01*
X104140000Y-81280000D02*
X104140000Y-82406900D01*
X115560000Y-104140000D02*
X115560000Y-102963100D01*
X115560000Y-102963100D02*
X109512500Y-96915600D01*
X109512500Y-87779400D02*
X104140000Y-82406900D01*
X101600000Y-71068000D02*
X101600000Y-70722900D01*
X107940000Y-102963100D02*
X97908700Y-92931800D01*
X101600000Y-69596000D02*
X101600000Y-70722900D01*
X107940000Y-104140000D02*
X107940000Y-102963100D01*
X97908700Y-92931800D02*
X97908700Y-74759300D01*
X97908700Y-74759300D02*
X101600000Y-71068000D01*
X96520000Y-69596000D02*
X97646900Y-69596000D01*
X97646900Y-69314300D02*
X98538300Y-68422900D01*
X103013100Y-69389400D02*
X103013100Y-70062800D01*
X112395000Y-79444700D02*
X112395000Y-88358100D01*
X97646900Y-69596000D02*
X97646900Y-69314300D01*
X102046600Y-68422900D02*
X103013100Y-69389400D01*
X112395000Y-89535000D02*
X112395000Y-88358100D01*
X98538300Y-68422900D02*
X102046600Y-68422900D01*
X103013100Y-70062800D02*
X112395000Y-79444700D01*
X92566900Y-66040000D02*
X92566900Y-65806500D01*
X117735700Y-84115900D02*
X117735700Y-87911200D01*
X91440000Y-66040000D02*
X92566900Y-66040000D01*
X115865300Y-75492300D02*
X115865300Y-82245500D01*
X93933000Y-64440400D02*
X104813400Y-64440400D01*
X104813400Y-64440400D02*
X115865300Y-75492300D01*
X115865300Y-82245500D02*
X117735700Y-84115900D01*
X92566900Y-65806500D02*
X93933000Y-64440400D01*
X113571900Y-79027900D02*
X104140000Y-69596000D01*
X112762900Y-93438100D02*
X113571900Y-92629100D01*
X112395000Y-93438100D02*
X112762900Y-93438100D01*
X112395000Y-94615000D02*
X112395000Y-93438100D01*
X113571900Y-92629100D02*
X113571900Y-79027900D01*
X148580000Y-66040000D02*
X149626900Y-66040000D01*
X149626900Y-66324000D02*
X151237600Y-67934700D01*
X151455900Y-67934700D02*
X162960900Y-79439700D01*
X170056700Y-84470100D02*
X170056700Y-94811400D01*
X170056700Y-94811400D02*
X168910000Y-95958100D01*
X168910000Y-97085000D02*
X168910000Y-95958100D01*
X151237600Y-67934700D02*
X151455900Y-67934700D01*
X162960900Y-79439700D02*
X165026300Y-79439700D01*
X149626900Y-66040000D02*
X149626900Y-66324000D01*
X165026300Y-79439700D02*
X170056700Y-84470100D01*
X144864700Y-96827500D02*
X144864700Y-95905100D01*
X147086900Y-81574500D02*
X147086900Y-81280000D01*
X147759900Y-93009900D02*
X167758000Y-93009900D01*
X133350000Y-96520000D02*
X134476900Y-96520000D01*
X146040000Y-81280000D02*
X147086900Y-81280000D01*
X135374900Y-97699700D02*
X143992500Y-97699700D01*
X147759900Y-93009900D02*
X147759900Y-82247500D01*
X167758000Y-93009900D02*
X167783100Y-93035000D01*
X143992500Y-97699700D02*
X144864700Y-96827500D01*
X147759900Y-82247500D02*
X147086900Y-81574500D01*
X168910000Y-93035000D02*
X167783100Y-93035000D01*
X134476900Y-96520000D02*
X134476900Y-96801700D01*
X134476900Y-96801700D02*
X135374900Y-97699700D01*
X144864700Y-95905100D02*
X147759900Y-93009900D01*
X142152300Y-79932300D02*
X143500000Y-81280000D01*
X135890000Y-95393100D02*
X139700000Y-91583100D01*
X140545000Y-79932300D02*
X142152300Y-79932300D01*
X139700000Y-91583100D02*
X139700000Y-80777300D01*
X139700000Y-80777300D02*
X140545000Y-79932300D01*
X135890000Y-96520000D02*
X135890000Y-95393100D01*
X138481100Y-79458100D02*
X136926900Y-81012300D01*
X135880000Y-81280000D02*
X136926900Y-81280000D01*
X144639600Y-80599800D02*
X145349300Y-79890100D01*
X145349300Y-79890100D02*
X162738200Y-79890100D01*
X144639600Y-80599800D02*
X143497900Y-79458100D01*
X143497900Y-79458100D02*
X138481100Y-79458100D01*
X162738200Y-79890100D02*
X167783100Y-84935000D01*
X168910000Y-84935000D02*
X167783100Y-84935000D01*
X144639600Y-94263500D02*
X143510000Y-95393100D01*
X143510000Y-96520000D02*
X143510000Y-95393100D01*
X136926900Y-81012300D02*
X136926900Y-81280000D01*
X144639600Y-80599800D02*
X144639600Y-94263500D01*
X142006900Y-86270000D02*
X142006900Y-81280000D01*
X143510000Y-87773100D02*
X142006900Y-86270000D01*
X143510000Y-88900000D02*
X143510000Y-87773100D01*
X140960000Y-81280000D02*
X142006900Y-81280000D01*
X137693000Y-85970100D02*
X137693000Y-84456200D01*
X135890000Y-87773100D02*
X137693000Y-85970100D01*
X151120000Y-66040000D02*
X162155000Y-77075000D01*
X135890000Y-88900000D02*
X135890000Y-87773100D01*
X162155000Y-77075000D02*
X168910000Y-77075000D01*
X138583800Y-82887800D02*
X138233500Y-82887800D01*
X133350000Y-88900000D02*
X133350000Y-87773100D01*
X133350000Y-87771300D02*
X133350000Y-87773100D01*
X138233500Y-82887800D02*
X133350000Y-87771300D01*
X151565900Y-64698400D02*
X152613100Y-65745600D01*
X131014300Y-85425500D02*
X134610000Y-81829800D01*
X152613100Y-65745600D02*
X152613100Y-66040000D01*
X134610000Y-81829800D02*
X134610000Y-80727800D01*
X148095100Y-64698400D02*
X151565900Y-64698400D01*
X134610000Y-80727800D02*
X147310000Y-68027800D01*
X147310000Y-65483500D02*
X148095100Y-64698400D01*
X153660000Y-66040000D02*
X152613100Y-66040000D01*
X130369800Y-85425500D02*
X131014300Y-85425500D01*
X147310000Y-68027800D02*
X147310000Y-65483500D01*
X100186900Y-58420000D02*
X100186900Y-58664900D01*
X99060000Y-58420000D02*
X100186900Y-58420000D01*
X116317200Y-80512800D02*
X119892700Y-84088300D01*
X116317200Y-74795200D02*
X116317200Y-80512800D01*
X119892700Y-84088300D02*
X119892700Y-92096600D01*
X100186900Y-58664900D02*
X116317200Y-74795200D01*
X91440000Y-69596000D02*
X91440000Y-70722900D01*
X92795800Y-72078700D02*
X92795800Y-80481600D01*
X91440000Y-70722900D02*
X92795800Y-72078700D01*
M02*
